<?xml version="1.0" encoding="utf-8"?>
<!-- Generator: Adobe Illustrator 18.1.1, SVG Export Plug-In . SVG Version: 6.00 Build 0)  -->
<!DOCTYPE svg PUBLIC "-//W3C//DTD SVG 1.1//EN" "http://www.w3.org/Graphics/SVG/1.1/DTD/svg11.dtd">
<svg version="1.1" id="Calque_1" xmlns="http://www.w3.org/2000/svg" xmlns:xlink="http://www.w3.org/1999/xlink" x="0px" y="0px"
	 viewBox="-119.5 -18.4 289.5 49.7" enable-background="new -119.5 -18.4 289.5 49.7" xml:space="preserve">
<g>
	<path fill="#333333" d="M143.1,31.5c-0.5,0-1.2-0.2-1.5-0.6l-0.1,0.5h-1.5V20.8h1.8v3.4c0.4-0.4,0.9-0.4,1.4-0.4c2.2,0,3,1.8,3,3.8
		C146.3,29.7,145.5,31.5,143.1,31.5z M143.1,25.5c-0.7,0-1.2,0.4-1.2,1.1v1.9c0,0.8,0.5,1.1,1.2,1.1c1.3,0,1.3-1.2,1.3-2.1
		C144.5,26.7,144.4,25.5,143.1,25.5z"/>
	<path fill="#333333" d="M154.5,28.1H150c0.1,1,0.6,1.8,1.7,1.8c0.7,0,1.2-0.3,1.6-0.7l1.1,1.1c-0.8,0.8-1.6,1.3-2.7,1.3
		c-2.3,0-3.5-1.7-3.5-3.8c0-2.1,1.1-3.9,3.4-3.9c1.9,0,2.9,1.5,2.9,3.7L154.5,28.1L154.5,28.1z M152.8,26.9
		c-0.1-0.8-0.4-1.4-1.3-1.4s-1.3,0.6-1.5,1.4H152.8z"/>
	<path fill="#333333" d="M160,25.4h-1v3.7c0,0.5,0.2,0.6,0.8,0.6v1.5h-0.7c-1.2,0-1.8-0.9-1.8-2v-3.9h-0.9v-1.5h0.9v-2h1.8v2h1
		L160,25.4L160,25.4z"/>
	<path fill="#333333" d="M168.2,31.1l-1.5,0.4l-0.1-0.6c-0.5,0.4-1.2,0.6-1.8,0.6c-1.5,0-2.7-0.8-2.7-2.4c0-1.4,0.9-2.3,2.7-2.3
		c0.4,0,1.1,0,1.1,0c0.3,0,0.4-0.1,0.5-0.2v-0.3c0-0.5-0.5-0.8-1-0.8c-0.6,0-1.1,0.2-1.4,0.8l-1.5-0.5c0.4-1.3,1.5-1.9,3-1.9
		c1.3,0,2.7,0.9,2.7,2.3V30L168.2,31.1z M166.2,28c-0.2,0.1-0.4,0.1-0.5,0.1h-0.9c-0.6,0-1.2,0.3-1.2,1c0,0.6,0.6,0.9,1.1,0.9
		c0.6,0,1-0.2,1.5-0.6V28L166.2,28z"/>
</g>
<g>
	<path fill="#E1161A" d="M-16.3,16.3h-2.4V5c0-3.4-0.7-6.6-5-6.6c-4.2,0-4.9,3.8-4.9,6.9v11.1H-31V5c0-3.4-0.8-6.6-5.1-6.6
		c-2.3,0-4.7,2-4.7,4.4v13.7h-2.4v-20h2.1l0,2.7c1.2-2.2,3.4-3,5.1-3c2.8,0,5,1.1,6.3,4.1c1.2-2.9,3.4-4.1,6-4.1
		c5.5,0,7.4,3.9,7.4,9V16.3z"/>
	<path fill="#E1161A" d="M-1.4,16.7c-6.4,0-8.6-4.5-8.6-10.3c0-5.9,2.2-10.4,8.6-10.4c6.4,0,8.6,4.5,8.6,10.4
		C7.1,12.2,4.9,16.7-1.4,16.7z M-1.4-1.7c-5.2,0-6.1,4-6.1,8.1c0,4,0.9,8,6.1,8c5.1,0,6.1-3.9,6.1-8C4.7,2.3,3.7-1.7-1.4-1.7z"/>
	<path fill="#E1161A" d="M21.7,16.7c-2,0-4.4-0.5-5.7-2.9l-0.1,2.6h-2.1v-29h2.4v11.4c1.5-2.3,3.7-2.8,5.5-2.8
		c6.2,0,8.1,4.9,8.1,10.4C29.8,11.9,27.9,16.7,21.7,16.7z M21.6-1.7c-2.9,0-5.4,1.8-5.4,4.9v6.3c0,3.1,2.5,4.9,5.4,4.9
		c5.1,0,5.7-4.4,5.7-8C27.4,2.7,26.7-1.7,21.6-1.7z"/>
	<path fill="#E1161A" d="M38.2-9.2c-1,0-1.9-0.9-1.9-1.9s0.8-1.9,1.9-1.9c1.1,0,2,0.8,2,1.9S39.3-9.2,38.2-9.2z M39.4,16.3h-2.4v-20
		h2.4V16.3z"/>
	<path fill="#E1161A" d="M63.7,16.3h-2.4V5c0-3.8-1.2-6.7-5.7-6.7c-3.1,0-5.4,2.4-5.4,4.8v13.2h-2.4v-20h2.1l0.1,2.7
		c1.4-2.2,3.7-3,5.7-3c5.8,0,8.1,3.6,8.1,9V16.3z"/>
	<path fill="#E1161A" d="M78.3-1.6h-3.4v13c0,2,0.7,2.7,2.7,2.7v2.2h-0.9c-3,0-4.3-2-4.3-4.8V-1.6h-2.9v-2.2h2.9v-5.9h2.4v5.9h3.4
		V-1.6z"/>
	<path fill="#E1161A" d="M92.6,16.7c-6.4,0-8.6-4.5-8.6-10.3c0-5.9,2.2-10.4,8.6-10.4c6.4,0,8.6,4.5,8.6,10.4
		C101.2,12.2,99,16.7,92.6,16.7z M92.6-1.7c-5.2,0-6.1,4-6.1,8.1c0,4,0.9,8,6.1,8c5.1,0,6.1-3.9,6.1-8C98.7,2.3,97.8-1.7,92.6-1.7z"
		/>
	<path fill="#E1161A" d="M123.4,16.3h-2.1l-0.1-2.4c-1.7,2.1-3.8,2.8-5.7,2.8c-5.8,0-8.1-3.1-8.1-8.7V-3.7h2.4V7.9
		c0,3.9,1.1,6.4,5.7,6.4c2.3,0,5.4-1.7,5.4-4.5V-3.7h2.4V16.3z"/>
	<path fill="#E1161A" d="M144.2,0.6c-1.4-1.5-2.9-2.4-5.1-2.4c-5.1,0-6.6,4-6.6,8.1c0,4.1,1.5,8.1,6.6,8.1c2.3,0,3.7-1,5.1-2.4
		l1.7,1.6c-2,2.2-3.8,3.1-6.9,3.1c-6.1,0-9.1-4.6-9.1-10.3c0-5.8,3-10.4,9.1-10.4c3.1,0,4.9,1,6.9,3.2L144.2,0.6z"/>
	<path fill="#E1161A" d="M168.7,16.3h-2.4V4.9c0-3.8-1.2-6.6-5.7-6.6c-2.4,0-5.4,1.8-5.4,4.6v13.4h-2.4v-29h2.4v11.5
		c1.2-2.1,3.7-2.9,5.6-2.9c5.6,0,7.9,3.7,7.9,9V16.3z"/>
</g>
<circle fill="#E1161A" cx="-115.9" cy="-7.8" r="2.2"/>
<path fill="#E1161A" d="M-113.8,18.9c0,1.2-1,2.2-2.2,2.2c-1.2,0-2.2-1-2.2-2.2V9.4c0-11.6,9.5-21.1,21.2-21.1
	c1.2,0,2.4,0.1,3.6,0.3c1.2,0.2,2,1.4,1.8,2.6c-0.2,1.2-1.3,2-2.6,1.8c-0.9-0.2-2-0.2-2.9-0.2c-9.2,0-16.8,7.5-16.8,16.7V18.9z"/>
<path fill="#E1161A" d="M-82.5,23.9c0,1.2-1,2.2-2.2,2.2s-2.2-1-2.2-2.2V9.4c0-5.5-4.5-10-10-10c-5.5,0-10,4.5-10,10v14.5
	c0,1.2-1,2.2-2.2,2.2s-2.2-1-2.2-2.2V9.4c0-8,6.5-14.5,14.4-14.5c8,0,14.4,6.5,14.4,14.5V23.9z"/>
<path fill="#E1161A" d="M-76.1,18.9c0,1.2-1,2.2-2.2,2.2s-2.2-1-2.2-2.2V9.4c0-5.5-2.6-10.6-7.2-13.8c-1-0.7-1.2-2.1-0.5-3.1
	c0.7-1,2-1.3,3-0.6c5.8,3.9,9.1,10.5,9.1,17.4V18.9z"/>
<path fill="#E1161A" d="M-69.4,12.6c-0.1,1.1-1.1,2-2.2,2c-0.1,0-0.2,0-0.3,0c-1.2-0.1-2.1-1.2-2-2.5c0.1-0.9,0.2-1.8,0.2-2.7
	C-73.6-3.5-84.1-14-97-14c-4.2,0-8.2,1.1-11.8,3.2c-1.1,0.6-2.4,0.3-3-0.8c-0.6-1.1-0.3-2.4,0.8-3c4.2-2.5,9.1-3.8,14.1-3.8
	c7.4,0,14.4,2.9,19.7,8.1C-72.1-5-69.2,2-69.2,9.4C-69.2,10.5-69.2,11.6-69.4,12.6z"/>
</svg>
