<?xml version="1.0" encoding="utf-8"?>
<!-- Generator: Adobe Illustrator 18.1.1, SVG Export Plug-In . SVG Version: 6.00 Build 0)  -->
<!DOCTYPE svg PUBLIC "-//W3C//DTD SVG 1.1//EN" "http://www.w3.org/Graphics/SVG/1.1/DTD/svg11.dtd">
<svg version="1.1" id="Calque_1" xmlns="http://www.w3.org/2000/svg" xmlns:xlink="http://www.w3.org/1999/xlink" x="0px" y="0px"
	 viewBox="0 0 200.3 38.8" enable-background="new 0 0 200.3 38.8" xml:space="preserve">
<path fill="#FFFFFF" d="M193,0h-12.3c-4,0-7.2,3.2-7.2,7.2s3.2,7.2,7.2,7.2H193c4,0,7.2-3.2,7.2-7.2S197,0,193,0z M193,13.5h-12.3
	c-3.5,0-6.3-2.8-6.3-6.3s2.8-6.3,6.3-6.3H193c3.5,0,6.3,2.8,6.3,6.3S196.5,13.5,193,13.5z"/>
<g>
	<path fill="#FFFFFF" d="M60.4,27.7H59v-7c0-2.1-0.4-4.1-3.1-4.1c-2.6,0-3,2.3-3,4.3v6.8h-1.5v-7c0-2.1-0.5-4.1-3.1-4.1
		c-1.4,0-2.9,1.2-2.9,2.7v8.4h-1.5V15.3h1.3l0,1.6c0.8-1.4,2.1-1.9,3.1-1.9c1.7,0,3.1,0.7,3.9,2.5c0.7-1.8,2.1-2.5,3.7-2.5
		c3.4,0,4.6,2.4,4.6,5.6L60.4,27.7L60.4,27.7z"/>
	<path fill="#FFFFFF" d="M69.6,27.9c-4,0-5.3-2.8-5.3-6.4c0-3.7,1.3-6.4,5.3-6.4c3.9,0,5.3,2.8,5.3,6.4
		C74.9,25.1,73.6,27.9,69.6,27.9z M69.6,16.6c-3.2,0-3.8,2.5-3.8,5s0.6,4.9,3.8,4.9c3.2,0,3.8-2.4,3.8-4.9
		C73.4,19,72.8,16.6,69.6,16.6z"/>
	<path fill="#FFFFFF" d="M83.9,27.9c-1.2,0-2.7-0.3-3.5-1.8l-0.1,1.6h-1.3V9.8h1.5v7.1c0.9-1.4,2.3-1.7,3.4-1.7c3.8,0,5,3,5,6.4
		S87.8,27.9,83.9,27.9z M83.9,16.6c-1.8,0-3.3,1.1-3.3,3v3.9c0,1.9,1.5,3,3.3,3c3.1,0,3.5-2.7,3.5-4.9C87.4,19.3,87,16.6,83.9,16.6z
		"/>
	<path fill="#FFFFFF" d="M94.1,11.9c-0.6,0-1.2-0.5-1.2-1.2c0-0.6,0.5-1.2,1.2-1.2c0.7,0,1.2,0.5,1.2,1.2
		C95.3,11.4,94.8,11.9,94.1,11.9z M94.8,27.7h-1.5V15.3h1.5V27.7z"/>
	<path fill="#FFFFFF" d="M109.9,27.7h-1.5v-7c0-2.4-0.8-4.1-3.5-4.1c-1.9,0-3.3,1.5-3.3,3v8.2H100V15.3h1.3l0.1,1.6
		c0.8-1.4,2.3-1.9,3.5-1.9c3.6,0,5,2.2,5,5.6L109.9,27.7L109.9,27.7z"/>
	<path fill="#FFFFFF" d="M118.9,16.6h-2.1v8c0,1.3,0.5,1.7,1.7,1.7v1.3h-0.5c-1.9,0-2.7-1.2-2.7-3v-8.1h-1.8v-1.3h1.8v-3.7h1.5v3.7
		h2.1L118.9,16.6L118.9,16.6z"/>
	<path fill="#FFFFFF" d="M127.7,27.9c-4,0-5.3-2.8-5.3-6.4c0-3.7,1.3-6.4,5.3-6.4c3.9,0,5.3,2.8,5.3,6.4
		C133,25.1,131.7,27.9,127.7,27.9z M127.7,16.6c-3.2,0-3.8,2.5-3.8,5s0.6,4.9,3.8,4.9c3.2,0,3.8-2.4,3.8-4.9
		C131.5,19,130.9,16.6,127.7,16.6z"/>
	<path fill="#FFFFFF" d="M146.8,27.7h-1.3l-0.1-1.5c-1,1.3-2.4,1.7-3.5,1.7c-3.6,0-5-1.9-5-5.3v-7.3h1.5v7.1c0,2.4,0.7,4,3.5,4
		c1.4,0,3.3-1,3.3-2.8v-8.4h1.5L146.8,27.7L146.8,27.7L146.8,27.7z"/>
	<path fill="#FFFFFF" d="M159.6,18c-0.9-0.9-1.8-1.5-3.2-1.5c-3.1,0-4.1,2.5-4.1,5c0,2.5,0.9,5,4.1,5c1.4,0,2.3-0.6,3.2-1.5l1.1,1
		c-1.3,1.3-2.4,1.9-4.2,1.9c-3.8,0-5.6-2.8-5.6-6.4c0-3.6,1.9-6.4,5.6-6.4c1.9,0,3,0.6,4.2,1.9L159.6,18z"/>
	<path fill="#FFFFFF" d="M174.7,27.7h-1.5v-7.1c0-2.3-0.8-4.1-3.5-4.1c-1.5,0-3.3,1.1-3.3,2.8v8.3h-1.5V9.8h1.5v7.1
		c0.8-1.3,2.3-1.8,3.5-1.8c3.5,0,4.9,2.3,4.9,5.6V27.7L174.7,27.7z"/>
</g>
<path fill="#FFFFFF" d="M18.3,2.2C8.2,2.2,0,10.4,0,20.5s8.2,18.3,18.3,18.3s18.3-8.2,18.3-18.3S28.5,2.2,18.3,2.2z M10,15.3
	c0.5,0,0.8,0.4,0.8,0.8c0,0.5-0.4,0.8-0.8,0.8s-0.8-0.4-0.8-0.8S9.6,15.3,10,15.3z M10.8,26.1c0,0.5-0.4,0.8-0.8,0.8
	s-0.8-0.4-0.8-0.8v-3.6c0-4.4,3.6-7.9,7.9-7.9c0.4,0,0.9,0,1.3,0.1c0.5,0.1,0.8,0.5,0.7,1c-0.1,0.4-0.5,0.8-1,0.7
	c-0.3-0.1-0.7-0.1-1.1-0.1c-3.4,0-6.3,2.8-6.3,6.2L10.8,26.1L10.8,26.1L10.8,26.1z M22.5,28c0,0.5-0.4,0.8-0.8,0.8s-0.8-0.4-0.8-0.8
	v-5.4c0-2.1-1.7-3.7-3.8-3.7s-3.8,1.7-3.8,3.7V28c0,0.5-0.4,0.8-0.8,0.8c-0.5,0-0.8-0.4-0.8-0.8v-5.4c0-3,2.4-5.4,5.4-5.4
	s5.4,2.4,5.4,5.4L22.5,28L22.5,28z M24.9,26.1c0,0.5-0.4,0.8-0.8,0.8s-0.8-0.4-0.8-0.8v-3.6c0-2.1-1-4-2.7-5.2
	c-0.4-0.3-0.5-0.8-0.2-1.2c0.3-0.4,0.8-0.5,1.1-0.2c2.2,1.5,3.4,3.9,3.4,6.5L24.9,26.1L24.9,26.1z M27.4,23.8
	c-0.1,0.4-0.4,0.7-0.8,0.7c0,0-0.1,0-0.1,0c-0.5-0.1-0.8-0.5-0.7-0.9c0-0.3,0.1-0.7,0.1-1c0-4.8-3.9-8.8-8.8-8.8
	c-1.6,0-3.1,0.4-4.4,1.2c-0.4,0.2-0.9,0.1-1.1-0.3c-0.2-0.4-0.1-0.9,0.3-1.1c1.6-0.9,3.4-1.4,5.3-1.4c2.8,0,5.4,1.1,7.4,3
	c2,2,3,4.6,3,7.4C27.5,23,27.5,23.4,27.4,23.8z"/>
<g>
	<path fill="#FFFFFF" d="M180.7,10.2c-0.3,0-0.7-0.1-0.8-0.3l0,0.3H179V4.2h1v1.9c0.2-0.2,0.5-0.2,0.8-0.2c1.2,0,1.7,1,1.7,2.1
		C182.4,9.2,182,10.2,180.7,10.2z M180.7,6.9c-0.4,0-0.7,0.2-0.7,0.6v1.1c0,0.4,0.3,0.6,0.7,0.6c0.7,0,0.7-0.7,0.7-1.2
		C181.4,7.5,181.4,6.9,180.7,6.9z"/>
	<path fill="#FFFFFF" d="M187,8.3h-2.5c0,0.6,0.3,1,0.9,1c0.4,0,0.7-0.2,0.9-0.4l0.6,0.6c-0.5,0.5-0.9,0.7-1.5,0.7
		c-1.3,0-2-0.9-2-2.1c0-1.2,0.6-2.2,1.9-2.2c1,0,1.6,0.8,1.6,2V8.3z M186.1,7.6c-0.1-0.5-0.2-0.8-0.8-0.8c-0.5,0-0.8,0.3-0.8,0.8
		H186.1z"/>
	<path fill="#FFFFFF" d="M190.1,6.8h-0.6v2.1c0,0.3,0.1,0.4,0.4,0.4v0.9h-0.4c-0.7,0-1-0.5-1-1.1V6.8H188V6h0.5V4.8h1V6h0.6V6.8z"/>
	<path fill="#FFFFFF" d="M194.7,10l-0.9,0.2l-0.1-0.3c-0.3,0.2-0.7,0.3-1,0.3c-0.8,0-1.5-0.5-1.5-1.3c0-0.8,0.5-1.3,1.5-1.3
		c0.2,0,0.6,0,0.6,0c0.1,0,0.2-0.1,0.3-0.1V7.3c0-0.3-0.3-0.5-0.6-0.5c-0.3,0-0.6,0.1-0.8,0.4L191.4,7c0.2-0.7,0.9-1,1.7-1
		c0.8,0,1.5,0.5,1.5,1.3v2.2L194.7,10z M193.6,8.3c-0.1,0.1-0.2,0.1-0.3,0.1h-0.5c-0.3,0-0.7,0.2-0.7,0.6c0,0.3,0.4,0.5,0.6,0.5
		c0.3,0,0.6-0.1,0.8-0.3L193.6,8.3L193.6,8.3z"/>
</g>
</svg>
