<?xml version="1.0" encoding="utf-8"?>
<!-- Generator: Adobe Illustrator 18.1.1, SVG Export Plug-In . SVG Version: 6.00 Build 0)  -->
<!DOCTYPE svg PUBLIC "-//W3C//DTD SVG 1.1//EN" "http://www.w3.org/Graphics/SVG/1.1/DTD/svg11.dtd">
<svg version="1.1" id="Calque_1" xmlns="http://www.w3.org/2000/svg" xmlns:xlink="http://www.w3.org/1999/xlink" x="0px" y="0px"
	 viewBox="0 0 60 10.7" enable-background="new 0 0 60 10.7" xml:space="preserve">
<g>
	<path d="M54.4,10.5c-0.1,0-0.2,0-0.3-0.1l0,0.1h-0.3V8.3h0.4V9c0.1-0.1,0.2-0.1,0.3-0.1c0.5,0,0.6,0.4,0.6,0.8
		C55.1,10.1,54.9,10.5,54.4,10.5z M54.4,9.2c-0.1,0-0.2,0.1-0.2,0.2v0.4c0,0.2,0.1,0.2,0.2,0.2c0.3,0,0.3-0.2,0.3-0.4
		C54.7,9.5,54.7,9.2,54.4,9.2z"/>
	<path d="M56.8,9.8h-0.9c0,0.2,0.1,0.4,0.4,0.4c0.1,0,0.2-0.1,0.3-0.1l0.2,0.2c-0.2,0.2-0.3,0.3-0.6,0.3c-0.5,0-0.7-0.4-0.7-0.8
		s0.2-0.8,0.7-0.8c0.4,0,0.6,0.3,0.6,0.8V9.8L56.8,9.8z M56.4,9.5c0-0.2-0.1-0.3-0.3-0.3c-0.2,0-0.3,0.1-0.3,0.3H56.4z"/>
	<path d="M57.9,9.2h-0.2V10c0,0.1,0,0.1,0.2,0.1v0.3h-0.1c-0.2,0-0.4-0.2-0.4-0.4V9.2h-0.2V8.9h0.2V8.5h0.4v0.4h0.2L57.9,9.2
		L57.9,9.2z"/>
	<path d="M59.6,10.4l-0.3,0.1l0-0.1c-0.1,0.1-0.2,0.1-0.4,0.1c-0.3,0-0.6-0.2-0.6-0.5c0-0.3,0.2-0.5,0.6-0.5c0.1,0,0.2,0,0.2,0
		c0.1,0,0.1,0,0.1,0V9.4c0-0.1-0.1-0.2-0.2-0.2c-0.1,0-0.2,0-0.3,0.2l-0.3-0.1c0.1-0.3,0.3-0.4,0.6-0.4c0.3,0,0.6,0.2,0.6,0.5v0.8
		V10.4z M59.2,9.8c0,0-0.1,0-0.1,0h-0.2c-0.1,0-0.2,0.1-0.2,0.2c0,0.1,0.1,0.2,0.2,0.2c0.1,0,0.2,0,0.3-0.1L59.2,9.8L59.2,9.8z"/>
</g>
<g>
	<path d="M21.4,7.3h-0.5V5c0-0.7-0.1-1.4-1-1.4c-0.9,0-1,0.8-1,1.4v2.3h-0.5V5c0-0.7-0.2-1.4-1.1-1.4c-0.5,0-1,0.4-1,0.9v2.8h-0.5
		V3.2h0.4v0.6c0.2-0.5,0.7-0.6,1.1-0.6c0.6,0,1,0.2,1.3,0.8c0.2-0.6,0.7-0.8,1.2-0.8C21,3.2,21.4,4,21.4,5C21.4,5,21.4,7.3,21.4,7.3
		z"/>
	<path d="M24.5,7.4c-1.3,0-1.8-0.9-1.8-2.1c0-1.2,0.5-2.2,1.8-2.2s1.8,0.9,1.8,2.2C26.2,6.5,25.8,7.4,24.5,7.4z M24.5,3.6
		c-1.1,0-1.3,0.8-1.3,1.7c0,0.8,0.2,1.7,1.3,1.7c1.1,0,1.3-0.8,1.3-1.7S25.5,3.6,24.5,3.6z"/>
	<path d="M29.3,7.4c-0.4,0-0.9-0.1-1.2-0.6l0,0.5h-0.4v-6h0.5v2.4c0.3-0.5,0.8-0.6,1.1-0.6c1.3,0,1.7,1,1.7,2.2S30.5,7.4,29.3,7.4z
		 M29.2,3.6c-0.6,0-1.1,0.4-1.1,1v1.3c0,0.6,0.5,1,1.1,1c1.1,0,1.2-0.9,1.2-1.7C30.4,4.5,30.3,3.6,29.2,3.6z"/>
	<path d="M32.7,2c-0.2,0-0.4-0.2-0.4-0.4s0.2-0.4,0.4-0.4c0.2,0,0.4,0.2,0.4,0.4S32.9,2,32.7,2z M32.9,7.3h-0.5V3.2h0.5V7.3z"/>
	<path d="M38,7.3h-0.5V5c0-0.8-0.2-1.4-1.2-1.4c-0.6,0-1.1,0.5-1.1,1v2.7h-0.5V3.2h0.4l0,0.6c0.3-0.5,0.8-0.6,1.2-0.6
		C37.5,3.1,38,3.9,38,5L38,7.3L38,7.3z"/>
	<path d="M41,3.6h-0.7v2.7c0,0.4,0.1,0.6,0.6,0.6v0.5h-0.2c-0.6,0-0.9-0.4-0.9-1V3.6h-0.6V3.2h0.6V1.9h0.5v1.2H41L41,3.6L41,3.6z"/>
	<path d="M44,7.4c-1.3,0-1.8-0.9-1.8-2.1c0-1.2,0.5-2.2,1.8-2.2s1.8,0.9,1.8,2.2C45.7,6.5,45.3,7.4,44,7.4z M44,3.6
		c-1.1,0-1.3,0.8-1.3,1.7c0,0.8,0.2,1.7,1.3,1.7c1.1,0,1.3-0.8,1.3-1.7S45,3.6,44,3.6z"/>
	<path d="M50.3,7.3h-0.4l0-0.5c-0.4,0.4-0.8,0.6-1.2,0.6c-1.2,0-1.7-0.6-1.7-1.8V3.2h0.5v2.4c0,0.8,0.2,1.3,1.2,1.3
		c0.5,0,1.1-0.4,1.1-0.9V3.2h0.5L50.3,7.3L50.3,7.3z"/>
	<path d="M54.7,4.1c-0.3-0.3-0.6-0.5-1.1-0.5c-1.1,0-1.4,0.8-1.4,1.7s0.3,1.7,1.4,1.7c0.5,0,0.8-0.2,1.1-0.5L55,6.8
		c-0.4,0.5-0.8,0.6-1.4,0.6c-1.3,0-1.9-1-1.9-2.1c0-1.2,0.6-2.2,1.9-2.2c0.6,0,1,0.2,1.4,0.7L54.7,4.1z"/>
	<path d="M59.7,7.3h-0.5V5c0-0.8-0.2-1.4-1.2-1.4c-0.5,0-1.1,0.4-1.1,1v2.8h-0.5v-6h0.5v2.4c0.2-0.4,0.8-0.6,1.2-0.6
		c1.2,0,1.6,0.8,1.6,1.9C59.7,5,59.7,7.3,59.7,7.3z"/>
</g>
<circle cx="0.7" cy="2.3" r="0.5"/>
<path d="M1.2,7.9c0,0.2-0.2,0.5-0.5,0.5S0.3,8.1,0.3,7.9v-2c0-2.4,2-4.4,4.4-4.4c0.2,0,0.5,0,0.7,0.1s0.4,0.3,0.4,0.5
	c0,0.2-0.3,0.4-0.5,0.4c-0.2,0-0.4,0-0.6,0C2.7,2.5,1.2,4,1.2,5.9L1.2,7.9L1.2,7.9z"/>
<path d="M7.7,8.9c0,0.2-0.2,0.5-0.5,0.5S6.8,9.1,6.8,8.9v-3c0-1.1-0.9-2.1-2.1-2.1S2.6,4.8,2.6,5.9v3c0,0.2-0.2,0.5-0.5,0.5
	S1.7,9.1,1.7,8.9v-3c0-1.7,1.3-3,3-3c1.7,0,3,1.3,3,3C7.7,5.9,7.7,8.9,7.7,8.9z"/>
<path d="M9,7.9c0,0.2-0.2,0.5-0.5,0.5S8.1,8.1,8.1,7.9v-2c0-1.1-0.5-2.2-1.5-2.9C6.4,2.9,6.3,2.6,6.5,2.4c0.1-0.2,0.4-0.3,0.6-0.1
	C8.3,3.1,9,4.4,9,5.9C9,5.9,9,7.9,9,7.9z"/>
<path d="M10.4,6.6c0,0.2-0.2,0.4-0.5,0.4c0,0,0,0-0.1,0C9.6,7,9.4,6.7,9.5,6.5c0-0.2,0-0.4,0-0.6C9.5,3.2,7.3,1,4.7,1
	C3.8,1,3,1.3,2.2,1.7C2,1.8,1.7,1.8,1.6,1.5S1.5,1,1.8,0.9c0.9-0.5,1.9-0.8,2.9-0.8c1.5,0,3,0.6,4.1,1.7c1.1,1.1,1.7,2.5,1.7,4.1
	C10.4,6.1,10.4,6.4,10.4,6.6z"/>
</svg>
