<?xml version="1.0" encoding="utf-8"?>
<!-- Generator: Adobe Illustrator 19.2.0, SVG Export Plug-In . SVG Version: 6.00 Build 0)  -->
<svg version="1.1" id="Layer_1" xmlns="http://www.w3.org/2000/svg" xmlns:xlink="http://www.w3.org/1999/xlink" x="0px" y="0px"
	 viewBox="0 0 16.8 16.8" style="enable-background:new 0 0 16.8 16.8;" xml:space="preserve">
<style type="text/css">
	.st0{fill:#EAEAEA;}
	.st1{clip-path:url(#SVGID_2_);fill:#AEAEAE;}
</style>
<g id="Layer_2">
	<rect class="st0" width="16.8" height="16.8"/>
</g>
<g id="Layer_1_1_">
	<g>
		<g>
			<g>
				<g>
					<g>
						<defs>
							<rect id="SVGID_1_" x="5.6" y="3.9" width="5.4" height="8.9"/>
						</defs>
						<clipPath id="SVGID_2_">
							<use xlink:href="#SVGID_1_"  style="overflow:visible;"/>
						</clipPath>
						<path class="st1" d="M5.6,3.9v8.8h2.2v-1.6h1.1v1.6h2.2V3.9H5.6z M7.3,10.5H6.2V9.4h1.1C7.3,9.4,7.3,10.5,7.3,10.5z M7.3,8.9
							H6.2V7.8h1.1C7.3,7.8,7.3,8.9,7.3,8.9z M7.3,7.2H6.2V6.1h1.1C7.3,6.1,7.3,7.2,7.3,7.2z M7.3,5.6H6.2V4.5h1.1
							C7.3,4.5,7.3,5.6,7.3,5.6z M8.9,10.5H7.8V9.4h1.1V10.5z M8.9,8.9H7.8V7.8h1.1V8.9z M8.9,7.2H7.8V6.1h1.1V7.2z M8.9,5.6H7.8
							V4.5h1.1V5.6z M10.6,10.5H9.5V9.4h1.1V10.5z M10.6,8.9H9.5V7.8h1.1V8.9z M10.6,7.2H9.5V6.1h1.1V7.2z M10.6,5.6H9.5V4.5h1.1
							V5.6z"/>
					</g>
				</g>
			</g>
		</g>
	</g>
</g>
</svg>
