<?xml version="1.0" encoding="utf-8"?>
<!-- Generator: Adobe Illustrator 18.1.1, SVG Export Plug-In . SVG Version: 6.00 Build 0)  -->
<!DOCTYPE svg PUBLIC "-//W3C//DTD SVG 1.1//EN" "http://www.w3.org/Graphics/SVG/1.1/DTD/svg11.dtd">
<svg version="1.1" id="Calque_1" xmlns="http://www.w3.org/2000/svg" xmlns:xlink="http://www.w3.org/1999/xlink" x="0px" y="0px"
	 viewBox="0 0 1000 1000" enable-background="new 0 0 1000 1000" xml:space="preserve">
<path fill="#FFFFFF" d="M500,0C224,0,0,224,0,500s224,500,500,500s500-224,500-500S776,0,500,0z M432,90c45-8,93-8,138,0
	c10,2,16,11,14,21c-2,8-9,14-18,14c-1,0-2,0-3,0c-41-8-84-8-125,0c-10,2-19-4-21-14C416,100,422,91,432,90z M365,157
	c42-19,88-29,135-29c50,0,98,11,142,32c9,4,12,15,8,24c-3,6-9,10-16,10c-2,0-5,0-8-2c-40-19-82-29-127-29c-42,0-82,9-120,26
	c-9,4-20,0-24-9C352,171,356,161,365,157z M339,222c48-33,103-50,161-50c60,0,118,19,167,54c8,6,10,17,4,25c-4,5-9,7-14,7
	c-4,0-7-1-10-3c-43-31-93-47-146-47c-51,0-99,15-141,44c-8,6-19,4-25-4C329,239,331,228,339,222z M500,385c-20,0-38,8-52,23
	c-7,7-18,8-25,1c-7-7-8-18-1-25c20-22,48-34,78-34s60,13,80,36c6,7,6,18-2,25c-3,3-8,4-12,4c-5,0-10-2-13-6C540,394,520,385,500,385
	z M532,557c-10,3-20,5-32,5c-11,0-22-2-32-5c-9-3-14-13-11-22s13-15,23-11c6,2,13,3,21,3c8,0,14-1,21-3c9-3,19,2,22,12
	C546,544,541,554,532,557z M500,571c32,0,62-13,84-36c7-7,18-8,25-1s8,18,1,25c-28,30-68,48-110,48s-82-18-110-48c-7-7-6-18,1-25
	s18-6,25,1C438,558,468,571,500,571z M604,391c-5,0-10-2-14-7c-22-28-55-43-90-43c-34,0-66,15-88,41c-6,8-18,8-25,2c-8-6-8-18-2-25
	c29-34,71-54,116-54c46,0,89,21,118,57c6,8,5,19-3,25C612,389,608,391,604,391z M620,350c-30-34-74-54-120-54c-23,0-44,5-65,14
	c-20,9-38,22-52,38c-7,7-18,8-25,1c-7-7-8-19-2-26c18-20,40-35,64-46c25-11,52-17,80-17c56,0,110,24,146,66c6,7,6,18-2,25
	c-3,3-8,4-12,4C628,356,624,354,620,350z M365,542c30,46,80,74,135,74s105-28,135-74c5-8,16-11,24-6c8,5,11,16,6,24
	c-36,56-98,90-165,90s-128-34-165-90c-5-8-3-19,6-24C349,531,360,534,365,542z M665,307c-4,4-8,6-13,6c-4,0-9-2-12-5
	c-38-36-88-56-140-56c-50,0-99,18-136,52c-7,6-18,6-25-1c-6-7-6-18,1-25c44-40,101-62,160-62c62,0,120,23,164,65
	C672,288,672,300,665,307z M295,542c9-4,20-1,24,8c17,33,42,60,74,80s69,30,107,30s75-10,107-30c31-20,57-47,74-80c4-9,15-12,24-8
	s12,15,8,24c-20,38-50,71-86,94c-38,24-82,36-126,36c-45,0-88-12-126-36c-37-23-67-55-86-94C283,558,286,547,295,542z M251,553
	c9-4,20,0,24,8c20,42,51,78,90,103c40,26,87,40,135,40s95-14,135-40c39-26,70-61,90-103c4-9,15-13,24-8c9,4,13,15,8,24
	c-22,48-58,89-103,118c-45,30-98,46-154,46s-108-16-154-46c-45-29-80-70-103-118C239,567,242,557,251,553z M212,574c9-4,20,0,24,8
	c24,49,60,91,106,120c47,30,102,46,158,46s111-16,158-46c46-30,83-71,106-120c4-9,15-12,24-8c9,4,12,15,8,24c-26,55-68,102-119,135
	c-53,34-114,52-177,52s-124-18-177-52c-52-33-92-80-119-135C200,589,203,578,212,574z M180,610c9-5,19-2,24,7
	c59,109,172,176,296,176s237-68,296-176c5-9,16-12,24-7c9,5,12,16,7,24c-66,120-191,194-327,194s-262-74-327-194
	C168,626,171,615,180,610z M842,765c-21,23-44,44-69,63c-15,12-41,29-76,46c-62,29-128,43-197,43s-135-15-197-44c-36-16-61-34-76-46
	c-26-19-49-40-70-64c-6-7-6-18,1-25c7-6,18-6,25,1c20,22,41,42,65,59l0,0l0,0c11,9,35,26,70,42c57,27,118,40,182,40s125-14,182-40
	c34-16,58-33,70-42l0,0l0,0c23-17,45-36,64-58c6-7,18-8,25-1C848,747,849,758,842,765z M845,690c-78,115-207,183-345,183
	s-267-68-345-183c-6-8-4-19,5-25c8-6,19-4,25,5c71,105,189,168,315,168s244-63,316-168c6-8,16-10,25-5C848,671,850,682,845,690z"/>
</svg>
