<?xml version="1.0" encoding="utf-8"?>
<!-- Generator: Adobe Illustrator 18.1.1, SVG Export Plug-In . SVG Version: 6.00 Build 0)  -->
<!DOCTYPE svg PUBLIC "-//W3C//DTD SVG 1.1//EN" "http://www.w3.org/Graphics/SVG/1.1/DTD/svg11.dtd">
<svg version="1.1" id="Calque_1" xmlns="http://www.w3.org/2000/svg" xmlns:xlink="http://www.w3.org/1999/xlink" x="0px" y="0px"
	 viewBox="0 99.7 600 600" enable-background="new 0 99.7 600 600" xml:space="preserve">
<path d="M-0.6,99.7v600h600v-600H-0.6z"/>
<g>
	<path fill="#FFFFFF" d="M244.7,162.7c17.8-4.2,36.1-6.4,54.5-6.4c18.4,0,36.7,2.2,54.5,6.4c5.4,1.3,8.7,6.7,7.4,12.1
		c-1.3,5.4-6.7,8.7-12.1,7.4c-16.3-3.8-33-5.8-49.9-5.8c-16.9,0-33.6,2-49.9,5.8c-0.8,0.2-1.6,0.3-2.3,0.3c-4.5,0-8.6-3.1-9.7-7.7
		C236,169.4,239.3,164,244.7,162.7z"/>
	<path fill="#FFFFFF" d="M299.4,292.1c11.5,0,22.4-4.9,30-13.5c3.7-4.1,10-4.5,14.1-0.8s4.5,10,0.8,14.1
		c-11.4,12.9-27.8,20.3-44.9,20.3c-17.3,0-33.8-7.5-45.2-20.5c-3.7-4.1-3.2-10.5,1-14.1c4.1-3.7,10.5-3.2,14.1,1
		C276.8,287.2,287.8,292.1,299.4,292.1z"/>
	<path fill="#FFFFFF" d="M273.6,270.7c0-0.1,0-0.1,0-0.1c0-0.2,0.1-0.4,0.1-0.6c0-0.1,0.1-0.2,0.1-0.4c0-0.1,0.1-0.2,0.1-0.4
		s0.1-0.4,0.1-0.5c0-0.1,0.1-0.1,0.1-0.2c0.2-0.7,0.5-1.4,1-2.1c0.1-0.1,0.1-0.2,0.2-0.4c0.1-0.1,0.1-0.2,0.2-0.2
		c0.1-0.2,0.3-0.4,0.4-0.6c0,0,0,0,0-0.1c0.1-0.1,0.1-0.1,0.2-0.2c0.2-0.2,0.3-0.4,0.5-0.5c0.1-0.1,0.2-0.2,0.2-0.2
		c0.1-0.1,0.3-0.3,0.5-0.4c0.1-0.1,0.2-0.2,0.4-0.2c0.1-0.1,0.3-0.2,0.4-0.3c0.1-0.1,0.3-0.2,0.4-0.2c0.1-0.1,0.2-0.2,0.4-0.2
		c0.2-0.1,0.4-0.2,0.5-0.2c0.1-0.1,0.2-0.1,0.4-0.2c0.2-0.1,0.4-0.2,0.7-0.2c0.1,0,0.2-0.1,0.2-0.1h0.1h0.1
		c5.9-1.9,12.2-2.8,18.4-2.8c6.4,0,12.7,1,18.8,2.9c0.1,0,0.1,0,0.1,0.1h0.1c0.1,0,0.1,0.1,0.2,0.1c0.2,0.1,0.5,0.2,0.7,0.2
		c0.1,0.1,0.2,0.1,0.3,0.2c0.2,0.1,0.4,0.2,0.5,0.3c0.1,0.1,0.2,0.1,0.4,0.2c0.2,0.1,0.3,0.2,0.5,0.3c0.1,0.1,0.3,0.2,0.4,0.3
		c0.1,0.1,0.2,0.2,0.4,0.3c0.2,0.1,0.3,0.2,0.4,0.4c0.1,0.1,0.2,0.2,0.3,0.2c0.2,0.2,0.3,0.4,0.5,0.5c0.1,0.1,0.1,0.1,0.2,0.2
		c0,0,0,0,0,0.1c0.1,0.2,0.2,0.4,0.4,0.5c0.1,0.1,0.1,0.2,0.2,0.3s0.1,0.2,0.2,0.3c0.4,0.7,0.8,1.4,1,2.2c0,0.1,0,0.1,0.1,0.1
		c0.1,0.2,0.1,0.4,0.1,0.6c0,0.1,0.1,0.2,0.1,0.4c0,0.1,0.1,0.3,0.1,0.4c0,0.2,0.1,0.4,0.1,0.5c0,0.1,0,0.1,0,0.2
		c0.1,0.7,0,1.4-0.1,2.2c0,0.2-0.1,0.4-0.1,0.5c0,0.1-0.1,0.2-0.1,0.2c-0.1,0.2-0.1,0.5-0.2,0.7c0,0,0,0,0,0.1
		c-0.1,0.2-0.2,0.5-0.3,0.8c-0.1,0.1-0.1,0.2-0.1,0.2c-0.1,0.2-0.2,0.4-0.2,0.5c-0.1,0.1-0.1,0.2-0.2,0.3c-0.1,0.2-0.2,0.4-0.3,0.5
		c-0.1,0.1-0.1,0.2-0.2,0.3c-0.1,0.2-0.2,0.4-0.4,0.5c-0.1,0.1-0.1,0.1-0.2,0.2c-0.4,0.5-0.8,0.9-1.3,1.3l-0.1,0.1
		c-6.2,5-14,7.7-22,7.7s-15.8-2.8-22-7.7c-0.1,0-0.1-0.1-0.1-0.1c0,0,0,0-0.1-0.1s-0.1-0.1-0.2-0.2c-0.2-0.2-0.4-0.3-0.5-0.5
		c-0.1-0.1-0.2-0.2-0.2-0.2c-0.1-0.1-0.3-0.3-0.4-0.5c-0.1-0.1-0.2-0.2-0.3-0.4c-0.1-0.1-0.2-0.3-0.3-0.4c-0.1-0.1-0.2-0.3-0.3-0.4
		c-0.1-0.1-0.2-0.2-0.2-0.4c-0.1-0.2-0.2-0.4-0.3-0.5c-0.1-0.1-0.1-0.2-0.2-0.4c-0.1-0.2-0.2-0.4-0.2-0.7c0-0.1-0.1-0.2-0.1-0.2
		c0,0,0,0,0-0.1c-0.1-0.2-0.1-0.5-0.2-0.7c0-0.1-0.1-0.2-0.1-0.3c0-0.1-0.1-0.3-0.1-0.4C273.6,272.3,273.5,271.5,273.6,270.7z"/>
	<path fill="#FFFFFF" d="M338.3,256.9c-12.7-3.7-25.8-5.5-39.1-5.5c-13.4,0-26.6,1.9-39.4,5.6c-1,0.3-1.9,0.4-2.8,0.4
		c-4.3,0-8.3-2.8-9.6-7.2c-1.6-5.3,1.5-10.9,6.8-12.4c14.6-4.3,29.7-6.4,45-6.4c15.2,0,30.2,2.1,44.6,6.4c5.3,1.6,8.3,7.1,6.8,12.4
		S343.6,258.4,338.3,256.9z"/>
	<path fill="#FFFFFF" d="M255.6,300.2c12,10.9,27.5,16.9,43.7,16.9c16.1,0,31.6-5.9,43.5-16.7c4.1-3.7,10.4-3.4,14.1,0.7
		c3.7,4.1,3.4,10.4-0.7,14.1c-15.6,14.1-35.8,21.8-56.9,21.8c-21.2,0-41.6-7.9-57.2-22.1c-4.1-3.7-4.4-10-0.7-14.1
		C245.2,296.8,251.5,296.5,255.6,300.2z"/>
	<path fill="#FFFFFF" d="M347.6,233.5c-15.6-4.8-31.9-7.2-48.4-7.2c-16.6,0-33,2.5-48.7,7.3c-1,0.3-2,0.4-2.9,0.4
		c-4.3,0-8.2-2.8-9.5-7.1c-1.6-5.3,1.3-10.9,6.6-12.5c17.6-5.5,36-8.2,54.6-8.2c18.5,0,36.7,2.7,54.2,8.1c5.3,1.6,8.3,7.2,6.7,12.5
		C358.4,232.2,352.9,235.2,347.6,233.5z"/>
	<path fill="#FFFFFF" d="M348.6,207.8c-16-4.3-32.6-6.5-49.4-6.5c-16.8,0-33.5,2.2-49.6,6.5c-0.9,0.2-1.7,0.4-2.6,0.4
		c-4.4,0-8.5-2.9-9.7-7.4c-1.4-5.3,1.7-10.8,7.1-12.2c17.8-4.8,36.2-7.2,54.8-7.2c18.5,0,36.8,2.4,54.5,7.1
		c5.3,1.4,8.5,6.9,7.1,12.2C359.4,206.1,353.9,209.2,348.6,207.8z"/>
	<path fill="#FFFFFF" d="M233.2,327.7c3.2-4.5,9.5-5.5,14-2.3c15.3,10.9,33.4,16.7,52.3,16.7c18.8,0,36.8-5.7,52-16.6
		c4.5-3.2,10.7-2.2,13.9,2.3s2.2,10.7-2.3,13.9c-18.7,13.3-40.6,20.2-63.6,20.2c-23.1,0-45.2-7.1-63.9-20.5
		C231,338.5,229.9,332.2,233.2,327.7z"/>
	<path fill="#FFFFFF" d="M225.5,353.5c2.9-4.7,9.1-6.2,13.7-3.3c18.1,11.1,38.8,17,60.1,17c21.2,0,41.9-5.8,59.9-16.8
		c4.7-2.9,10.9-1.4,13.7,3.3c2.9,4.7,1.4,10.9-3.3,13.7c-21.1,12.9-45.4,19.7-70.3,19.7c-25,0-49.4-6.9-70.6-19.9
		C224.1,364.3,222.6,358.1,225.5,353.5z"/>
	<path fill="#FFFFFF" d="M218.2,378.7c2.7-4.9,8.8-6.6,13.6-3.9c20.6,11.3,43.9,17.4,67.6,17.4c23.6,0,46.9-5.9,67.4-17.3
		c4.9-2.6,10.9-0.9,13.6,4c2.6,4.9,0.9,10.9-4,13.6c-23.5,12.9-50.1,19.7-77,19.7c-27,0-53.7-6.8-77.3-19.9
		C217.3,389.6,215.5,383.5,218.2,378.7z"/>
	<path fill="#FFFFFF" d="M211.1,403.6c2.5-4.9,8.5-6.9,13.4-4.4c23.3,11.9,48.5,17.9,74.8,17.9c26.3,0,51.4-6,74.6-17.8
		c4.9-2.5,10.9-0.5,13.4,4.4c2.5,4.9,0.5,10.9-4.4,13.4c-26.1,13.3-54.2,20-83.7,20c-29.5,0-57.7-6.7-83.9-20
		C210.6,414.6,208.6,408.6,211.1,403.6z"/>
	<path fill="#FFFFFF" d="M204.3,428.4c2.4-5,8.3-7.1,13.3-4.7c25.6,12.2,53.2,18.4,81.8,18.4c28.6,0,56-6.2,81.6-18.4
		c5-2.4,11-0.2,13.3,4.7c2.4,5,0.2,11-4.7,13.3c-28.3,13.5-58.7,20.3-90.2,20.3c-31.6,0-62-6.8-90.4-20.4
		C204,439.4,201.9,433.4,204.3,428.4z"/>
	<path fill="#FFFFFF" d="M197.6,453.1c2.3-5,8.2-7.3,13.3-5c27.9,12.6,57.7,19,88.5,19s60.5-6.4,88.4-19c5-2.3,11-0.1,13.3,5
		c2.3,5,0.1,11-5,13.3c-30.5,13.7-63,20.8-96.7,20.8c-33.7,0-66.3-7-96.8-20.8C197.6,464.1,195.4,458.2,197.6,453.1z"/>
	<path fill="#FFFFFF" d="M191.2,477.8c2.2-5.1,8.1-7.4,13.1-5.2c30.1,13,62,19.6,95,19.6c33,0,64.9-6.5,95-19.5
		c5.1-2.2,11,0.2,13.1,5.2c2.2,5.1-0.2,11-5.2,13.1c-32.5,14-67.1,21.2-102.9,21.2S229,505,196.4,491
		C191.4,488.8,189.1,482.9,191.2,477.8z"/>
	<path fill="#FFFFFF" d="M185.2,502.6c2.1-5.1,8-7.6,13.1-5.4c32.1,13.3,66.1,20,101.2,20s69.1-6.7,101.1-20
		c5.1-2.1,11,0.3,13.1,5.4c2.1,5.1-0.3,11-5.4,13.1c-34.5,14.3-71.1,21.5-108.8,21.5s-74.3-7.3-108.8-21.5
		C185.5,513.5,183.1,507.7,185.2,502.6z"/>
	<path fill="#FFFFFF" d="M179.8,527.5c2-5.2,7.9-7.7,13-5.6c33.9,13.4,69.8,20.2,106.6,20.2s72.7-6.8,106.6-20.2
		c5.2-2,10.9,0.5,13,5.6c2,5.2-0.5,10.9-5.6,13c-36.3,14.3-74.6,21.6-113.9,21.6s-77.7-7.3-113.9-21.6
		C180.3,538.5,177.8,532.7,179.8,527.5z"/>
	<path fill="#FFFFFF" d="M339.4,626.5c0,0.2,0,0.4-0.1,0.6c0,0.2-0.1,0.3-0.1,0.5s-0.1,0.3-0.1,0.5c-0.1,0.2-0.1,0.4-0.1,0.5
		c-0.1,0.1-0.1,0.2-0.1,0.4c-0.1,0.2-0.1,0.4-0.2,0.5c-0.1,0.1-0.1,0.2-0.1,0.4c-0.1,0.2-0.2,0.4-0.2,0.5c-0.1,0.1-0.1,0.2-0.2,0.4
		c-0.1,0.1-0.2,0.3-0.2,0.4c-0.1,0.1-0.2,0.3-0.2,0.4c-0.1,0.1-0.2,0.2-0.2,0.4c-0.1,0.1-0.2,0.3-0.4,0.4c-0.1,0.1-0.2,0.2-0.2,0.3
		c-0.1,0.1-0.2,0.3-0.4,0.4c-0.1,0.1-0.2,0.2-0.3,0.2c-0.1,0.1-0.3,0.2-0.4,0.4c-0.1,0.1-0.2,0.2-0.4,0.3c-0.1,0.1-0.2,0.2-0.4,0.3
		s-0.4,0.2-0.5,0.3c-0.1,0.1-0.2,0.1-0.3,0.2c-0.2,0.1-0.4,0.2-0.7,0.3c-0.1,0-0.1,0.1-0.2,0.1h-0.1c-0.1,0-0.1,0-0.1,0.1
		c-12.9,5.3-24.2,8-33.7,8c-9.4,0-20.7-2.7-33.6-8c-0.1,0-0.1,0-0.1-0.1c0,0-0.1,0-0.1-0.1c-0.1,0-0.1-0.1-0.2-0.1
		c-0.2-0.1-0.5-0.2-0.7-0.3c-0.1-0.1-0.2-0.1-0.3-0.2c-0.2-0.1-0.4-0.2-0.5-0.3c-0.1-0.1-0.3-0.2-0.4-0.3c-0.1-0.1-0.2-0.2-0.4-0.3
		c-0.1-0.1-0.3-0.2-0.4-0.4c-0.1-0.1-0.2-0.2-0.3-0.2c-0.1-0.1-0.3-0.3-0.4-0.4c-0.1-0.1-0.2-0.2-0.2-0.3c-0.1-0.1-0.2-0.3-0.4-0.4
		c-0.1-0.1-0.2-0.2-0.2-0.4c-0.1-0.1-0.2-0.3-0.2-0.4c-0.1-0.1-0.2-0.3-0.2-0.4s-0.1-0.2-0.2-0.4c-0.1-0.2-0.2-0.4-0.2-0.5
		s-0.1-0.2-0.1-0.4c-0.1-0.2-0.1-0.4-0.2-0.5c-0.1-0.1-0.1-0.2-0.1-0.4c-0.1-0.2-0.1-0.4-0.1-0.5c-0.1-0.1-0.1-0.3-0.1-0.4
		c0-0.2-0.1-0.4-0.1-0.5c0-0.2-0.1-0.4-0.1-0.6c0-0.1,0-0.2,0-0.4c0-0.2,0-0.5,0-0.7c0-0.1,0-0.1,0-0.2c0,0,0,0,0-0.1
		c0-0.2,0.1-0.5,0.1-0.7c0-0.1,0-0.2,0.1-0.3c0.1-0.2,0.1-0.3,0.1-0.5s0.1-0.4,0.1-0.5c0-0.1,0.1-0.2,0.1-0.2
		c0.1-0.2,0.2-0.5,0.2-0.7c0,0,0,0,0-0.1s0.1-0.1,0.1-0.2c0.1-0.2,0.2-0.5,0.3-0.7c0.1-0.1,0.1-0.2,0.2-0.3c0.1-0.2,0.2-0.4,0.3-0.5
		c0.1-0.1,0.2-0.2,0.3-0.4c0.1-0.1,0.2-0.2,0.3-0.4c0.1-0.1,0.2-0.3,0.4-0.4c0.1-0.1,0.2-0.2,0.3-0.3s0.2-0.2,0.4-0.4
		c0.1-0.1,0.2-0.2,0.3-0.3c0.1-0.1,0.2-0.2,0.4-0.3c0.1-0.1,0.2-0.2,0.4-0.3c0.1-0.1,0.2-0.2,0.4-0.2c0.2-0.1,0.3-0.2,0.5-0.3
		c0.1-0.1,0.2-0.1,0.4-0.2c0.2-0.1,0.4-0.2,0.5-0.2c0.1-0.1,0.2-0.1,0.3-0.1c0.2-0.1,0.4-0.1,0.6-0.2c0.1-0.1,0.2-0.1,0.3-0.1
		c0.2-0.1,0.4-0.1,0.6-0.2c0.1,0,0.2-0.1,0.4-0.1c0.2-0.1,0.4-0.1,0.5-0.1s0.4,0,0.5-0.1c0.1,0,0.3,0,0.4,0c0.2,0,0.5,0,0.7,0
		c0.1,0,0.2,0,0.2,0s0.1,0,0.1,0l0,0c9.6,0.8,19.4,1.1,29,1.1c9.7,0,19.4-0.4,29-1.1l0,0c0.1,0,0.1,0,0.1,0c0.1,0,0.2,0,0.2,0
		c0.2,0,0.5,0,0.7,0s0.4,0,0.5,0c0.1,0,0.3,0,0.4,0.1c0.2,0,0.5,0.1,0.7,0.1c0.1,0,0.2,0,0.2,0.1c0.3,0.1,0.5,0.1,0.8,0.2
		c0.1,0,0.1,0,0.1,0.1c0.3,0.1,0.5,0.2,0.8,0.3c0,0,0.1,0,0.1,0.1c0.2,0.1,0.5,0.2,0.8,0.4c0.1,0,0.1,0.1,0.1,0.1
		c0.2,0.1,0.5,0.2,0.7,0.4c0.1,0.1,0.1,0.1,0.2,0.1c0.2,0.1,0.4,0.3,0.6,0.4c0.1,0.1,0.1,0.1,0.2,0.2c0.2,0.1,0.4,0.3,0.5,0.4
		c0.1,0.1,0.2,0.1,0.2,0.2c0.2,0.2,0.3,0.3,0.4,0.5c0.1,0.1,0.1,0.2,0.2,0.2c0.1,0.2,0.3,0.4,0.4,0.5c0.1,0.1,0.1,0.2,0.2,0.2
		c0.1,0.2,0.3,0.4,0.4,0.7c0.1,0.1,0.1,0.1,0.1,0.2c0.1,0.2,0.2,0.5,0.4,0.8c0,0.1,0.1,0.1,0.1,0.1l0,0c0.1,0.2,0.2,0.5,0.3,0.8
		c0,0.1,0.1,0.1,0.1,0.2c0.1,0.2,0.1,0.4,0.1,0.5c0.1,0.2,0.1,0.3,0.1,0.5c0,0.1,0,0.2,0.1,0.3c0.1,0.2,0.1,0.5,0.1,0.7
		c0,0,0,0,0,0.1s0,0.1,0,0.2c0,0.2,0,0.5,0,0.8C339.4,626.2,339.4,626.4,339.4,626.5z"/>
	<path fill="#FFFFFF" d="M385.3,601.8c-28,6.8-56.9,10.3-85.9,10.3c-29,0-57.8-3.5-85.8-10.3c-5.3-1.3-8.6-6.7-7.3-12.1
		s6.7-8.6,12.1-7.3c26.3,6.4,53.6,9.7,81.1,9.7c27.5,0,54.8-3.3,81.2-9.8c5.3-1.3,10.8,2,12.1,7.3
		C394,595.1,390.7,600.5,385.3,601.8z"/>
	<path fill="#FFFFFF" d="M413.3,567.2c-36.5,13.2-74.8,19.9-114,19.9c-39.1,0-77.5-6.7-113.9-19.9c-5.2-1.9-7.9-7.6-6-12.8
		c1.9-5.2,7.6-7.9,12.8-6c34.3,12.4,70.3,18.7,107.2,18.7c36.8,0,72.8-6.3,107.2-18.7c5.2-1.9,10.9,0.8,12.8,6
		C421.3,559.6,418.6,565.4,413.3,567.2z"/>
</g>
</svg>
