<?xml version="1.0" encoding="utf-8"?>
<!-- Generator: Adobe Illustrator 18.1.1, SVG Export Plug-In . SVG Version: 6.00 Build 0)  -->
<!DOCTYPE svg PUBLIC "-//W3C//DTD SVG 1.1//EN" "http://www.w3.org/Graphics/SVG/1.1/DTD/svg11.dtd">
<svg version="1.1" id="Calque_1" xmlns="http://www.w3.org/2000/svg" xmlns:xlink="http://www.w3.org/1999/xlink" x="0px" y="0px"
	 viewBox="0 0 600 800" enable-background="new 0 0 600 800" xml:space="preserve">
<g>
	<g>
		<path fill="#E21417" d="M460.3,506.2c-0.9,0-1.7-0.1-2.6-0.2c-12.1-1.5-20.7-12.3-19.2-24.3c1.1-8.9,1.5-18,1.5-27
			c0-127.1-103.4-230.5-230.5-230.5c-41.1,0-81.4,10.9-116.6,31.6c-10.5,6.2-23.9,2.6-30-7.8s-2.6-23.9,7.8-30
			c42-24.6,90-37.7,138.9-37.7c73.3,0,142.2,28.5,193.9,80.3s80.3,120.7,80.3,193.9c0,10.7-0.6,21.5-1.8,32.2
			C480.8,497.9,471.3,506.2,460.3,506.2z"/>
	</g>
	<g>
		<path fill="#E21417" d="M22,570.5c-12.1,0-21.7-9.9-21.7-21.9v-94c0-114.9,93.9-208.5,209.1-208.5c11.6,0,23.6,1,35.3,3
			c12,2,20.1,13.4,18,25.3c-2,12-13.4,20-25.2,18c-9.3-1.5-19.3-2.4-28.3-2.4c-91,0-165.4,73.8-165.4,164.6v94
			C43.8,560.7,34.1,570.5,22,570.5z"/>
	</g>
	<g>
		<path fill="#E21417" d="M394.1,570.5c-12.1,0-21.7-9.9-21.7-21.9v-94c0-54.3-26.1-105-70.9-135.8c-10-6.9-12.2-20.5-5.3-30.5
			c6.9-10,19.7-12.6,29.8-5.7c56.8,39,90,103.2,90,172v94C415.8,560.7,406.2,570.5,394.1,570.5z"/>
	</g>
	<g>
		<path fill="#E21417" d="M331.3,619.9c-12.1,0-21.7-9.9-21.7-21.9V455.1c0-54.5-44.6-98.8-99-98.8s-99,44.3-99,98.7V598
			c0,12.1-9.7,21.9-21.7,21.9S68,610.1,68,598V455c0-78.7,63.9-142.6,142.5-142.6s142.5,64,142.5,142.7V598
			C353,610.1,343.4,619.9,331.3,619.9z"/>
	</g>
	<circle fill="#E21417" cx="22.7" cy="285.2" r="21.9"/>
</g>
<path fill="#FFFFFF" stroke="#E21417" stroke-width="34" stroke-miterlimit="10" d="M507.1,324.9H365.9c-46.4,0-82.7,37-82.7,82.7
	s37,82.7,82.7,82.7h141.2c45.8,0,82.7-37,82.7-82.7S552.9,324.9,507.1,324.9z"/>
<g>
	<path fill="#E21417" d="M350.3,448.9c-4.1,0-10.2-1.4-11.5-4.1v4.1H326v-83.8h14.2v27c2.7-2.7,6.8-2.7,11.5-2.7
		c16.9,0,23.7,14.2,23.7,29.8C374,435.4,368.6,448.9,350.3,448.9z M350.3,403c-5.4,0-10.2,2.7-10.2,8.1v15.5c0,5.4,4.1,8.1,10.2,8.1
		c10.2,0,10.2-10.2,10.2-16.9C359.8,411,359.8,403,350.3,403z"/>
	<path fill="#E21417" d="M438.9,422.5h-35.1c0,8.1,4.1,14.2,12.8,14.2c5.4,0,10.2-2.7,12.8-5.4l8.8,8.8c-6.8,6.8-12.8,10.2-21,10.2
		c-18.2,0-28.4-12.8-28.4-29.8s8.8-31.1,27-31.1c14.2,0,22.3,11.5,22.3,28.4v5.4h0.7L438.9,422.5L438.9,422.5z M426,412.4
		c-1.4-6.8-2.7-11.5-11.5-11.5c-6.8,0-11.5,4.1-11.5,11.5H426z"/>
	<path fill="#E21417" d="M482.8,401.6H474v29.8c0,4.1,1.4,5.4,5.4,5.4v12.8H474c-10.2,0-14.2-6.8-14.2-15.5v-32.4H453v-11.5h6.8
		v-16.9H474v16.9h8.8V401.6z"/>
	<path fill="#E21417" d="M547,446.2l-12.8,2.7l-1.4-4.1c-4.1,2.7-10.2,4.1-14.2,4.1c-11.5,0-21-6.8-21-18.2s6.8-18.2,21-18.2
		c2.7,0,8.8,0,8.8,0c1.4,0,2.7-1.4,4.1-1.4v-2.7c0-4.1-4.1-6.8-8.8-6.8c-4.1,0-8.8,1.4-11.5,5.4l-11.5-2.7
		c2.7-10.2,12.8-14.2,23.7-14.2c11.5,0,21,6.8,21,18.2v31.1L547,446.2z M532.2,422.5c-1.4,1.4-2.7,1.4-4.1,1.4h-6.8
		c-4.1,0-10.2,2.7-10.2,8.1c0,4.1,5.4,6.8,8.8,6.8c4.1,0,8.8-1.4,11.5-4.1L532.2,422.5L532.2,422.5z"/>
</g>
</svg>
