<?xml version="1.0" encoding="utf-8"?>
<!-- Generator: Adobe Illustrator 18.1.1, SVG Export Plug-In . SVG Version: 6.00 Build 0)  -->
<!DOCTYPE svg PUBLIC "-//W3C//DTD SVG 1.1//EN" "http://www.w3.org/Graphics/SVG/1.1/DTD/svg11.dtd">
<svg version="1.1" id="Calque_1" xmlns="http://www.w3.org/2000/svg" xmlns:xlink="http://www.w3.org/1999/xlink" x="0px" y="0px"
	 viewBox="0 0 1000 1000" enable-background="new 0 0 1000 1000" xml:space="preserve">
<path fill="#FFFFFF" d="M499.2-1.4c-276.1,0-500,223.9-500,500s223.9,500,500,500s500-223.9,500-500S775.2-1.4,499.2-1.4z
	 M353.5,310.6c0-12.5,10-22.6,22.5-22.6s22.5,10.2,22.5,22.7v147.8c0,56.4,46.1,102.2,102.5,102.2s102.5-45.8,102.5-102.1V310.7
	c0-12.5,10-22.7,22.5-22.7s22.5,10.1,22.5,22.7v147.9c0,81.4-66.1,147.6-147.5,147.6S353.5,540,353.5,458.5V310.6z M288.4,361.7
	c0.1-12.5,10.1-22.6,22.6-22.6s22.5,10.2,22.5,22.7V459c0,56.2,27,108.7,73.4,140.5c10.3,7.1,12.6,21.2,5.5,31.6
	c-7.1,10.3-20.4,13-30.8,5.9c-58.8-40.3-93.2-106.8-93.2-178V361.7z M645.6,704.1c-43.4,25.5-93.1,39-143.7,39
	c-75.8,0-147.1-29.5-200.7-83.1c-53.6-53.6-83.1-124.9-83.1-200.7c0-11.1,0.6-22.3,1.9-33.3c1.3-11.8,11.1-20.3,22.5-20.3
	c0.9,0,1.8,0.1,2.7,0.2c12.5,1.5,21.4,12.7,19.9,25.2c-1.1,9.2-1.6,18.6-1.6,28c0,131.5,107,238.5,238.5,238.5
	c42.5,0,84.2-11.3,120.6-32.7c10.8-6.4,24.7-2.7,31.1,8.1C660.1,683.8,656.4,697.7,645.6,704.1z M695.3,657
	c-12.5,0-22.7-10.2-22.7-22.7s10.2-22.7,22.7-22.7s22.7,10.2,22.7,22.7S707.9,657,695.3,657z M718.5,459
	c0,118.9-97.2,215.7-216.4,215.7c-12,0-24.4-1-36.5-3.1c-12.4-2.1-20.8-13.8-18.7-26.2c2.1-12.4,13.8-20.7,26.1-18.6
	c9.6,1.6,20,2.5,29.3,2.5c94.2,0,171.2-76.4,171.2-170.3v-97.3c0-12.5,10-22.6,22.5-22.6s22.5,10.2,22.5,22.7V459z"/>
</svg>
