<?xml version="1.0" encoding="utf-8"?>
<!-- Generator: Adobe Illustrator 18.1.1, SVG Export Plug-In . SVG Version: 6.00 Build 0)  -->
<!DOCTYPE svg PUBLIC "-//W3C//DTD SVG 1.1//EN" "http://www.w3.org/Graphics/SVG/1.1/DTD/svg11.dtd">
<svg version="1.1" id="Calque_1" xmlns="http://www.w3.org/2000/svg" xmlns:xlink="http://www.w3.org/1999/xlink" x="0px" y="0px"
	 viewBox="0 0 1000 1000" enable-background="new 0 0 1000 1000" xml:space="preserve">
<path fill="#FFFFFF" d="M499.1-1.3c-276.1,0-500,223.9-500,500s223.9,500,500,500c276.1,0,500-223.9,500-500S775.2-1.3,499.1-1.3z"
	/>
<g>
	<g>
		<path fill="#E2231A" d="M725,608.3c-0.9,0-1.8-0.1-2.7-0.2c-12.5-1.5-21.4-12.7-19.9-25.2c1.1-9.2,1.6-18.6,1.6-28
			c0-131.5-107-238.5-238.5-238.5c-42.5,0-84.2,11.3-120.6,32.7c-10.8,6.4-24.7,2.7-31.1-8.1c-6.4-10.8-2.7-24.7,8.1-31.1
			c43.4-25.5,93.1-39,143.7-39c75.8,0,147.1,29.5,200.7,83.1c53.6,53.6,83.1,124.9,83.1,200.7c0,11.1-0.6,22.3-1.9,33.3
			C746.2,599.8,736.4,608.3,725,608.3z"/>
	</g>
	<g>
		<path fill="#E2231A" d="M271.5,674.9c-12.5,0-22.5-10.2-22.5-22.7V555c0-118.9,97.2-215.7,216.4-215.7c12,0,24.4,1,36.5,3.1
			c12.4,2.1,20.8,13.8,18.7,26.2c-2.1,12.4-13.8,20.7-26.1,18.6c-9.6-1.6-20-2.5-29.3-2.5C371,384.7,294,461.1,294,555v97.3
			C294,664.8,284,674.9,271.5,674.9z"/>
	</g>
	<g>
		<path fill="#E2231A" d="M656.5,674.9c-12.5,0-22.5-10.2-22.5-22.7V555c0-56.2-27-108.7-73.4-140.5c-10.3-7.1-12.6-21.2-5.5-31.6
			c7.1-10.3,20.4-13,30.8-5.9c58.8,40.3,93.2,106.8,93.2,178v97.3C679,664.8,669,674.9,656.5,674.9z"/>
	</g>
	<g>
		<path fill="#E2231A" d="M591.5,726c-12.5,0-22.5-10.2-22.5-22.7V555.5c0-56.4-46.1-102.2-102.5-102.2S364,499.1,364,555.4v147.9
			c0,12.5-10,22.7-22.5,22.7S319,715.9,319,703.3V555.4c0-81.4,66.1-147.6,147.5-147.6c81.4,0,147.5,66.2,147.5,147.7v147.9
			C614,715.9,604,726,591.5,726z"/>
	</g>
	<circle fill="#E2231A" cx="272.2" cy="379.7" r="22.7"/>
</g>
</svg>
