<?xml version="1.0" encoding="utf-8"?>
<!-- Generator: Adobe Illustrator 18.1.1, SVG Export Plug-In . SVG Version: 6.00 Build 0)  -->
<!DOCTYPE svg PUBLIC "-//W3C//DTD SVG 1.1//EN" "http://www.w3.org/Graphics/SVG/1.1/DTD/svg11.dtd">
<svg version="1.1" id="Calque_1" xmlns="http://www.w3.org/2000/svg" xmlns:xlink="http://www.w3.org/1999/xlink" x="0px" y="0px"
	 viewBox="0 0 60 60" enable-background="new 0 0 60 60" xml:space="preserve">
<path fill="#FFFFFF" d="M0,0v60h60V0H0z M24.6,6.3c1.8-0.4,3.6-0.6,5.4-0.6c1.8,0,3.7,0.2,5.4,0.6C36,6.4,36.3,7,36.2,7.5
	C36.1,8,35.5,8.4,35,8.2c-1.6-0.4-3.3-0.6-5-0.6c-1.7,0-3.4,0.2-5,0.6c-0.1,0-0.2,0-0.2,0c-0.4,0-0.9-0.3-1-0.8
	C23.7,7,24,6.4,24.6,6.3z M32.4,16.6C32.4,16.6,32.4,16.6,32.4,16.6C32.4,16.7,32.4,16.7,32.4,16.6c0.1,0.1,0.1,0.2,0.1,0.3
	c0,0,0,0,0,0c0,0,0,0,0,0.1c0,0,0,0,0,0c0,0,0,0,0,0c0,0,0,0,0,0.1c0,0,0,0,0,0c0,0.1,0,0.1,0,0.2c0,0,0,0,0,0c0,0,0,0,0,0
	c0,0,0,0,0,0.1c0,0,0,0,0,0c0,0,0,0.1,0,0.1c0,0,0,0,0,0c0,0,0,0,0,0.1c0,0,0,0,0,0c0,0,0,0,0,0c0,0,0,0,0,0c0,0,0,0,0,0
	c0,0,0,0,0,0c0,0-0.1,0.1-0.1,0.1l0,0c-0.6,0.5-1.4,0.8-2.2,0.8s-1.6-0.3-2.2-0.8c0,0,0,0,0,0c0,0,0,0,0,0s0,0,0,0c0,0,0,0-0.1,0
	c0,0,0,0,0,0c0,0,0,0,0,0c0,0,0,0,0,0s0,0,0,0c0,0,0,0,0,0c0,0,0,0,0,0c0,0,0,0,0-0.1c0,0,0,0,0,0c0,0,0,0,0-0.1c0,0,0,0,0,0
	c0,0,0,0,0,0c0,0,0,0,0-0.1c0,0,0,0,0,0s0,0,0,0c0-0.1,0-0.2,0-0.2c0,0,0,0,0,0c0,0,0,0,0-0.1c0,0,0,0,0,0s0,0,0,0c0,0,0,0,0-0.1
	c0,0,0,0,0,0c0-0.1,0.1-0.1,0.1-0.2c0,0,0,0,0,0c0,0,0,0,0,0c0,0,0,0,0-0.1c0,0,0,0,0,0c0,0,0,0,0,0c0,0,0,0,0-0.1c0,0,0,0,0,0
	c0,0,0,0,0,0c0,0,0,0,0,0c0,0,0,0,0,0c0,0,0,0,0,0s0,0,0,0c0,0,0,0,0.1,0c0,0,0,0,0,0c0,0,0,0,0.1,0c0,0,0,0,0,0h0h0
	c0.6-0.2,1.2-0.3,1.8-0.3c0.6,0,1.3,0.1,1.9,0.3c0,0,0,0,0,0h0c0,0,0,0,0,0c0,0,0,0,0.1,0c0,0,0,0,0,0c0,0,0,0,0.1,0c0,0,0,0,0,0
	c0,0,0,0,0,0c0,0,0,0,0,0s0,0,0,0c0,0,0,0,0,0c0,0,0,0,0,0C32.3,16.5,32.3,16.5,32.4,16.6C32.3,16.6,32.4,16.6,32.4,16.6
	C32.4,16.6,32.4,16.6,32.4,16.6C32.4,16.6,32.4,16.6,32.4,16.6z M30,19.2c1.1,0,2.2-0.5,3-1.4c0.4-0.4,1-0.5,1.4-0.1s0.5,1,0.1,1.4
	c-1.1,1.3-2.8,2-4.5,2c-1.7,0-3.4-0.8-4.5-2.1c-0.4-0.4-0.3-1,0.1-1.4c0.4-0.4,1-0.3,1.4,0.1C27.8,18.7,28.9,19.2,30,19.2z
	 M33.9,15.7c-1.3-0.4-2.6-0.6-3.9-0.6c-1.3,0-2.7,0.2-3.9,0.6c-0.1,0-0.2,0-0.3,0c-0.4,0-0.8-0.3-1-0.7c-0.2-0.5,0.1-1.1,0.7-1.2
	c1.5-0.4,3-0.6,4.5-0.6c1.5,0,3,0.2,4.5,0.6c0.5,0.2,0.8,0.7,0.7,1.2C35,15.6,34.5,15.9,33.9,15.7z M25.6,20
	c1.2,1.1,2.8,1.7,4.4,1.7c1.6,0,3.2-0.6,4.4-1.7c0.4-0.4,1-0.3,1.4,0.1c0.4,0.4,0.3,1-0.1,1.4c-1.6,1.4-3.6,2.2-5.7,2.2
	c-2.1,0-4.2-0.8-5.7-2.2c-0.4-0.4-0.4-1-0.1-1.4C24.6,19.7,25.2,19.7,25.6,20z M34.8,13.4c-1.6-0.5-3.2-0.7-4.8-0.7
	c-1.7,0-3.3,0.2-4.9,0.7c-0.1,0-0.2,0-0.3,0c-0.4,0-0.8-0.3-1-0.7c-0.2-0.5,0.1-1.1,0.7-1.2c1.8-0.5,3.6-0.8,5.5-0.8
	c1.8,0,3.7,0.3,5.4,0.8c0.5,0.2,0.8,0.7,0.7,1.2C35.9,13.2,35.4,13.5,34.8,13.4z M34.9,10.8c-1.6-0.4-3.3-0.6-4.9-0.6
	c-1.7,0-3.3,0.2-5,0.7c-0.1,0-0.2,0-0.3,0c-0.4,0-0.8-0.3-1-0.7C23.7,9.6,24,9,24.5,8.9c1.8-0.5,3.6-0.7,5.5-0.7
	c1.8,0,3.7,0.2,5.5,0.7c0.5,0.1,0.9,0.7,0.7,1.2C36,10.6,35.5,10.9,34.9,10.8z M23.4,22.8c0.3-0.4,0.9-0.6,1.4-0.2
	c1.5,1.1,3.3,1.7,5.2,1.7c1.9,0,3.7-0.6,5.2-1.7c0.5-0.3,1.1-0.2,1.4,0.2c0.3,0.5,0.2,1.1-0.2,1.4c-1.9,1.3-4.1,2-6.4,2
	c-2.3,0-4.5-0.7-6.4-2C23.2,23.9,23.1,23.2,23.4,22.8z M22.6,25.4c0.3-0.5,0.9-0.6,1.4-0.3c1.8,1.1,3.9,1.7,6,1.7
	c2.1,0,4.2-0.6,6-1.7c0.5-0.3,1.1-0.1,1.4,0.3c0.3,0.5,0.1,1.1-0.3,1.4c-2.1,1.3-4.5,2-7,2c-2.5,0-4.9-0.7-7.1-2
	C22.5,26.5,22.3,25.8,22.6,25.4z M21.9,27.9c0.3-0.5,0.9-0.7,1.4-0.4c2.1,1.1,4.4,1.7,6.8,1.7c2.4,0,4.7-0.6,6.7-1.7
	c0.5-0.3,1.1-0.1,1.4,0.4s0.1,1.1-0.4,1.4c-2.3,1.3-5,2-7.7,2c-2.7,0-5.4-0.7-7.7-2C21.8,29,21.6,28.4,21.9,27.9z M21.2,30.4
	c0.3-0.5,0.9-0.7,1.3-0.4c2.3,1.2,4.8,1.8,7.5,1.8c2.6,0,5.1-0.6,7.5-1.8c0.5-0.3,1.1-0.1,1.3,0.4c0.3,0.5,0.1,1.1-0.4,1.3
	c-2.6,1.3-5.4,2-8.4,2c-3,0-5.8-0.7-8.4-2C21.1,31.5,20.9,30.9,21.2,30.4z M20.5,32.9c0.2-0.5,0.8-0.7,1.3-0.5
	c2.6,1.2,5.3,1.8,8.2,1.8c2.9,0,5.6-0.6,8.2-1.8c0.5-0.2,1.1,0,1.3,0.5c0.2,0.5,0,1.1-0.5,1.3c-2.8,1.3-5.9,2-9,2
	c-3.2,0-6.2-0.7-9-2C20.5,34,20.3,33.4,20.5,32.9z M19.8,35.3c0.2-0.5,0.8-0.7,1.3-0.5c2.8,1.3,5.8,1.9,8.9,1.9s6.1-0.6,8.8-1.9
	c0.5-0.2,1.1,0,1.3,0.5c0.2,0.5,0,1.1-0.5,1.3c-3,1.4-6.3,2.1-9.7,2.1c-3.4,0-6.6-0.7-9.7-2.1C19.8,36.4,19.6,35.8,19.8,35.3z
	 M19.2,37.8c0.2-0.5,0.8-0.7,1.3-0.5c3,1.3,6.2,2,9.5,2c3.3,0,6.5-0.7,9.5-1.9c0.5-0.2,1.1,0,1.3,0.5c0.2,0.5,0,1.1-0.5,1.3
	c-3.3,1.4-6.7,2.1-10.3,2.1c-3.6,0-7-0.7-10.3-2.1C19.2,38.9,19,38.3,19.2,37.8z M18.6,40.3c0.2-0.5,0.8-0.8,1.3-0.5
	c3.2,1.3,6.6,2,10.1,2s6.9-0.7,10.1-2c0.5-0.2,1.1,0,1.3,0.5s0,1.1-0.5,1.3c-3.5,1.4-7.1,2.1-10.9,2.1s-7.4-0.7-10.9-2.1
	C18.6,41.4,18.4,40.8,18.6,40.3z M18,42.8c0.2-0.5,0.8-0.8,1.3-0.6c3.4,1.3,7,2,10.7,2s7.3-0.7,10.7-2c0.5-0.2,1.1,0,1.3,0.6
	c0.2,0.5,0,1.1-0.6,1.3c-3.6,1.4-7.5,2.2-11.4,2.2s-7.8-0.7-11.4-2.2C18.1,43.9,17.8,43.3,18,42.8z M34,52.5
	C34,52.6,34,52.6,34,52.5C34,52.6,34,52.6,34,52.5c0,0.1,0,0.1,0,0.1c0,0,0,0,0,0.1c0,0,0,0,0,0c0,0,0,0,0,0c0,0,0,0,0,0.1
	c0,0,0,0,0,0c0,0,0,0,0,0.1c0,0,0,0,0,0c0,0,0,0,0,0s0,0,0,0c0,0,0,0,0,0c0,0,0,0,0,0c0,0,0,0,0,0c0,0,0,0,0,0c0,0,0,0,0,0
	c0,0,0,0,0,0c0,0,0,0,0,0c0,0,0,0,0,0c0,0,0,0,0,0s0,0,0,0c0,0,0,0,0,0c0,0,0,0,0,0c0,0,0,0-0.1,0c0,0,0,0,0,0h0c0,0,0,0,0,0
	c-1.3,0.5-2.4,0.8-3.4,0.8c-0.9,0-2.1-0.3-3.4-0.8c0,0,0,0,0,0c0,0,0,0,0,0c0,0,0,0,0,0c0,0,0,0-0.1,0c0,0,0,0,0,0c0,0,0,0,0,0
	s0,0,0,0s0,0,0,0c0,0,0,0,0,0c0,0,0,0,0,0c0,0,0,0,0,0c0,0,0,0,0,0c0,0,0,0,0,0c0,0,0,0,0,0c0,0,0,0,0,0s0,0,0,0s0,0,0,0
	c0,0,0,0,0,0s0,0,0,0c0,0,0,0,0-0.1c0,0,0,0,0,0c0,0,0,0,0-0.1c0,0,0,0,0,0c0,0,0,0,0,0c0,0,0,0,0-0.1c0,0,0,0,0,0c0,0,0,0,0-0.1
	c0,0,0,0,0,0c0,0,0,0,0,0c0,0,0,0,0-0.1c0,0,0,0,0,0c0,0,0,0,0,0c0,0,0,0,0,0c0,0,0,0,0,0c0,0,0,0,0-0.1c0,0,0,0,0,0c0,0,0,0,0,0
	c0,0,0,0,0-0.1c0,0,0,0,0,0c0,0,0,0,0-0.1c0,0,0,0,0,0c0,0,0,0,0,0c0,0,0,0,0,0c0,0,0,0,0,0s0,0,0,0c0,0,0,0,0,0c0,0,0,0,0,0
	c0,0,0,0,0,0c0,0,0,0,0,0c0,0,0,0,0,0c0,0,0,0,0,0c0,0,0,0,0.1,0c0,0,0,0,0,0c0,0,0,0,0.1,0c0,0,0,0,0,0c0,0,0,0,0.1,0c0,0,0,0,0,0
	c0,0,0,0,0.1,0s0,0,0.1,0c0,0,0,0,0,0c0,0,0,0,0.1,0c0,0,0,0,0,0s0,0,0,0c1,0.1,1.9,0.1,2.9,0.1c1,0,1.9,0,2.9-0.1c0,0,0,0,0,0
	s0,0,0,0c0,0,0,0,0.1,0c0,0,0,0,0.1,0c0,0,0,0,0,0c0,0,0,0,0.1,0c0,0,0,0,0,0c0,0,0.1,0,0.1,0c0,0,0,0,0,0c0,0,0.1,0,0.1,0
	c0,0,0,0,0,0c0,0,0.1,0,0.1,0c0,0,0,0,0,0c0,0,0,0,0.1,0c0,0,0,0,0,0c0,0,0,0,0.1,0c0,0,0,0,0,0c0,0,0,0,0,0c0,0,0,0,0,0
	c0,0,0,0,0,0c0,0,0,0,0,0c0,0,0,0,0,0.1c0,0,0,0,0,0c0,0,0,0,0,0.1c0,0,0,0,0,0c0,0,0,0.1,0,0.1c0,0,0,0,0,0c0,0,0,0.1,0,0.1
	c0,0,0,0,0,0c0,0,0,0,0,0.1c0,0,0,0,0,0C34,52.5,34,52.5,34,52.5C34,52.5,34,52.5,34,52.5C34,52.5,34,52.5,34,52.5z M38.6,50.2
	c-2.8,0.7-5.7,1-8.6,1c-2.9,0-5.8-0.3-8.6-1c-0.5-0.1-0.9-0.7-0.7-1.2c0.1-0.5,0.7-0.9,1.2-0.7c2.6,0.6,5.4,1,8.1,1
	c2.7,0,5.5-0.3,8.1-1c0.5-0.1,1.1,0.2,1.2,0.7C39.5,49.5,39.1,50.1,38.6,50.2z M41.4,46.8c-3.6,1.3-7.5,2-11.4,2
	c-3.9,0-7.7-0.7-11.4-2c-0.5-0.2-0.8-0.8-0.6-1.3c0.2-0.5,0.8-0.8,1.3-0.6c3.4,1.2,7,1.9,10.7,1.9c3.7,0,7.3-0.6,10.7-1.9
	c0.5-0.2,1.1,0.1,1.3,0.6C42.2,46,41.9,46.6,41.4,46.8z"/>
</svg>
