<?xml version="1.0" encoding="utf-8"?>
<!-- Generator: Adobe Illustrator 18.1.1, SVG Export Plug-In . SVG Version: 6.00 Build 0)  -->
<!DOCTYPE svg PUBLIC "-//W3C//DTD SVG 1.1//EN" "http://www.w3.org/Graphics/SVG/1.1/DTD/svg11.dtd">
<svg version="1.1" id="Calque_1" xmlns="http://www.w3.org/2000/svg" xmlns:xlink="http://www.w3.org/1999/xlink" x="0px" y="0px"
	 viewBox="0 0 300 300" enable-background="new 0 0 300 300" xml:space="preserve">
<g>
	<circle fill="#BBBBBB" cx="116.6" cy="132.7" r="3.3"/>
	<path fill="#BBBBBB" d="M119.8,172.4c0,1.8-1.5,3.3-3.3,3.3s-3.3-1.5-3.3-3.3v-14.2c0-17.3,14.2-31.5,31.6-31.5
		c1.7,0,3.6,0.2,5.3,0.5c1.8,0.3,3,2,2.7,3.8c-0.3,1.8-2,3-3.8,2.7c-1.4-0.2-2.9-0.4-4.3-0.4c-13.7,0-25,11.1-25,24.8V172.4z"/>
	<path fill="#BBBBBB" d="M166.5,179.9c0,1.8-1.5,3.3-3.3,3.3c-1.8,0-3.3-1.5-3.3-3.3v-21.6c0-8.2-6.7-14.9-15-14.9
		c-8.2,0-15,6.7-15,14.9v21.6c0,1.8-1.5,3.3-3.3,3.3c-1.8,0-3.3-1.5-3.3-3.3v-21.6c0-11.9,9.6-21.5,21.5-21.5
		c11.9,0,21.5,9.7,21.5,21.5V179.9z"/>
	<path fill="#BBBBBB" d="M175.9,172.4c0,1.8-1.5,3.3-3.3,3.3s-3.3-1.5-3.3-3.3v-14.2c0-8.2-3.9-15.9-10.7-20.5
		c-1.5-1-1.8-3.1-0.8-4.6c1-1.5,3-1.9,4.5-0.9c8.6,5.9,13.6,15.6,13.6,26V172.4z"/>
	<path fill="#BBBBBB" d="M186,163.1c-0.2,1.7-1.6,2.9-3.3,2.9c-0.1,0-0.3,0-0.4,0c-1.8-0.2-3.1-1.9-2.9-3.7c0.2-1.3,0.2-2.7,0.2-4.1
		c0-19.2-15.6-34.8-34.8-34.8c-6.2,0-12.3,1.7-17.6,4.8c-1.6,0.9-3.6,0.4-4.5-1.2s-0.4-3.6,1.2-4.5c6.3-3.7,13.6-5.7,21-5.7
		c11.1,0,21.5,4.3,29.3,12.1c7.8,7.8,12.1,18.2,12.1,29.3C186.3,159.8,186.2,161.5,186,163.1z"/>
</g>
<g>
	<path fill="#BBBBBB" d="M149.7,225.1c-41.4,0-75.1-33.7-75.1-75.1s33.7-75.1,75.1-75.1s75.1,33.7,75.1,75.1
		S191.2,225.1,149.7,225.1z M149.7,79c-39.2,0-71,31.9-71,71s31.9,71,71,71s71-31.9,71-71S188.9,79,149.7,79z"/>
</g>
<g>
	<path fill="#BBBBBB" d="M149.7,215.5c-36.1,0-65.5-29.4-65.5-65.5s29.4-65.5,65.5-65.5s65.5,29.4,65.5,65.5
		S185.8,215.5,149.7,215.5z M149.7,86.6c-35,0-63.4,28.4-63.4,63.4s28.4,63.4,63.4,63.4s63.4-28.4,63.4-63.4S184.7,86.6,149.7,86.6z
		"/>
</g>
<g>
	<path fill="#BBBBBB" d="M149.7,300c-40.1,0-77.7-15.6-106.1-43.9C15.3,227.7-0.3,190.1-0.3,150S15.3,72.3,43.7,43.9
		C72,15.6,109.7,0,149.7,0s77.7,15.6,106.1,43.9c28.3,28.3,43.9,66,43.9,106.1s-15.6,77.7-43.9,106.1
		C227.5,284.4,189.8,300,149.7,300z M149.7,7.7c-38,0-73.7,14.8-100.6,41.7C22.3,76.3,7.5,112,7.5,150s14.8,73.7,41.7,100.6
		c26.9,26.9,62.6,41.7,100.6,41.7s73.7-14.8,100.6-41.7C277.2,223.7,292,188,292,150s-14.8-73.7-41.7-100.6
		C223.5,22.5,187.7,7.7,149.7,7.7z"/>
</g>
<g>
	<path fill="#BBBBBB" d="M149.7,290.1c-0.8,0-1.7,0-2.5,0l0-2.6c1.7,0,3.4,0,5.1,0l0,2.6C151.5,290.1,150.6,290.1,149.7,290.1z
		 M142,289.9c-1.7-0.1-3.5-0.2-5.2-0.4l0.2-2.6c1.7,0.2,3.4,0.3,5.1,0.4L142,289.9z M157.5,289.9l-0.1-2.6c1.7-0.1,3.4-0.2,5.1-0.4
		l0.2,2.6C161,289.7,159.3,289.8,157.5,289.9z M131.7,289c-1.7-0.2-3.4-0.5-5.1-0.8l0.4-2.5c1.7,0.3,3.3,0.5,5,0.7L131.7,289z
		 M167.9,289l-0.3-2.6c1.7-0.2,3.4-0.5,5-0.7l0.4,2.5C171.3,288.5,169.6,288.7,167.9,289z M121.5,287.3c-1.7-0.3-3.4-0.7-5.1-1.1
		l0.6-2.5c1.6,0.4,3.3,0.8,5,1.1L121.5,287.3z M178.1,287.2l-0.5-2.5c1.7-0.3,3.3-0.7,5-1.1l0.6,2.5
		C181.5,286.5,179.8,286.9,178.1,287.2z M111.4,284.8c-1.7-0.5-3.3-1-5-1.5l0.8-2.5c1.6,0.5,3.2,1,4.9,1.5L111.4,284.8z
		 M188.1,284.8l-0.7-2.5c1.6-0.5,3.3-1,4.9-1.5l0.8,2.5C191.4,283.8,189.8,284.3,188.1,284.8z M101.6,281.6
		c-1.6-0.6-3.2-1.2-4.8-1.9l1-2.4c1.6,0.6,3.2,1.3,4.8,1.8L101.6,281.6z M198,281.6l-0.9-2.4c1.6-0.6,3.2-1.2,4.7-1.8l1,2.4
		C201.2,280.4,199.6,281,198,281.6z M92,277.7c-1.6-0.7-3.1-1.5-4.7-2.2l1.2-2.3c1.5,0.8,3.1,1.5,4.6,2.2L92,277.7z M207.5,277.7
		l-1.1-2.3c1.5-0.7,3.1-1.4,4.6-2.2l1.2,2.3C210.7,276.2,209.1,277,207.5,277.7z M82.7,273.1c-1.5-0.8-3-1.7-4.5-2.6l1.3-2.2
		c1.5,0.9,2.9,1.7,4.4,2.5L82.7,273.1z M216.8,273.1l-1.2-2.3c1.5-0.8,3-1.7,4.4-2.5l1.3,2.2C219.8,271.4,218.3,272.2,216.8,273.1z
		 M225.7,267.8l-1.4-2.2c1.4-0.9,2.8-1.9,4.2-2.8l1.5,2.1C228.6,265.9,227.1,266.8,225.7,267.8z M73.8,267.8
		c-1.4-0.9-2.9-1.9-4.3-2.9l1.5-2.1c1.4,1,2.8,1.9,4.2,2.8L73.8,267.8z M234.1,261.8l-1.6-2.1c1.3-1,2.7-2.1,4-3.1l1.6,2
		C236.9,259.7,235.5,260.8,234.1,261.8z M65.3,261.8c-1.4-1-2.7-2.1-4.1-3.2l1.6-2c1.3,1.1,2.7,2.1,4,3.1L65.3,261.8z M242.2,255.3
		l-1.7-1.9c1.3-1.1,2.5-2.3,3.8-3.4l1.8,1.9C244.7,253,243.5,254.2,242.2,255.3z M57.3,255.3c-1.3-1.1-2.6-2.3-3.8-3.5l1.8-1.9
		c1.2,1.2,2.5,2.3,3.8,3.4L57.3,255.3z M249.7,248.2l-1.8-1.8c1.2-1.2,2.4-2.4,3.5-3.7l1.9,1.7C252.1,245.7,250.9,247,249.7,248.2z
		 M49.7,248.2c-1.2-1.2-2.4-2.5-3.6-3.8l1.9-1.7c1.1,1.2,2.3,2.5,3.5,3.7L49.7,248.2z M256.7,240.6l-2-1.7c1.1-1.3,2.2-2.6,3.2-3.9
		l2,1.6C258.9,237.9,257.8,239.2,256.7,240.6z M42.8,240.5c-1.1-1.3-2.2-2.7-3.3-4l2-1.6c1,1.3,2.1,2.6,3.2,3.9L42.8,240.5z
		 M263.1,232.4l-2.1-1.5c1-1.4,2-2.8,2.9-4.2l2.1,1.4C265.1,229.6,264.1,231,263.1,232.4z M36.4,232.4c-1-1.4-2-2.8-3-4.2l2.1-1.4
		c0.9,1.4,1.9,2.8,2.9,4.2L36.4,232.4z M268.9,223.8l-2.2-1.4c0.9-1.4,1.8-2.9,2.6-4.4l2.2,1.3C270.7,220.9,269.8,222.3,268.9,223.8
		z M30.6,223.8c-0.9-1.5-1.8-3-2.6-4.4l2.2-1.3c0.8,1.5,1.7,2.9,2.6,4.4L30.6,223.8z M25.5,214.8c-0.8-1.5-1.6-3.1-2.3-4.6l2.3-1.1
		c0.7,1.5,1.5,3,2.3,4.5L25.5,214.8z M274,214.8l-2.3-1.2c0.8-1.5,1.5-3,2.3-4.6l2.3,1.1C275.6,211.7,274.8,213.3,274,214.8z
		 M21,205.5c-0.7-1.6-1.3-3.2-2-4.8l2.4-0.9c0.6,1.6,1.3,3.1,1.9,4.7L21,205.5z M278.5,205.4l-2.4-1c0.7-1.6,1.3-3.1,1.9-4.7
		l2.4,0.9C279.8,202.2,279.1,203.9,278.5,205.4z M17.3,195.9c-0.6-1.6-1.1-3.3-1.6-4.9l2.5-0.8c0.5,1.6,1,3.2,1.6,4.8L17.3,195.9z
		 M282.2,195.8l-2.4-0.8c0.6-1.6,1.1-3.2,1.6-4.8l2.5,0.8C283.3,192.5,282.8,194.1,282.2,195.8z M14.3,186c-0.4-1.7-0.9-3.4-1.2-5
		l2.5-0.6c0.4,1.6,0.8,3.3,1.2,4.9L14.3,186z M285.2,185.8l-2.5-0.7c0.4-1.6,0.8-3.3,1.2-4.9l2.5,0.6
		C286.1,182.5,285.7,184.2,285.2,185.8z M12,175.9c-0.3-1.7-0.6-3.4-0.9-5.1l2.5-0.4c0.2,1.7,0.5,3.4,0.8,5L12,175.9z M287.5,175.7
		l-2.5-0.5c0.3-1.7,0.6-3.3,0.8-5l2.5,0.4C288.1,172.3,287.8,174.1,287.5,175.7z M10.5,165.6c-0.2-1.7-0.3-3.4-0.5-5.2l2.6-0.2
		c0.1,1.7,0.3,3.4,0.5,5.1L10.5,165.6z M289,165.5l-2.6-0.3c0.2-1.7,0.3-3.4,0.5-5.1l2.6,0.2C289.3,162.1,289.2,163.8,289,165.5z
		 M9.7,155.3c-0.1-1.7-0.1-3.5-0.1-5.2l2.6,0c0,1.7,0,3.4,0.1,5.1L9.7,155.3z M289.8,155.2l-2.6-0.1c0.1-1.7,0.1-3.4,0.1-5.1l0-0.2
		l2.6,0l0,0.2C289.8,151.7,289.8,153.5,289.8,155.2z M12.3,145l-2.6-0.1c0.1-1.7,0.2-3.5,0.3-5.2l2.6,0.2
		C12.4,141.6,12.3,143.3,12.3,145z M287.2,144.7c-0.1-1.7-0.2-3.4-0.3-5.1l2.6-0.2c0.1,1.7,0.2,3.4,0.3,5.2L287.2,144.7z M13,134.9
		l-2.6-0.3c0.2-1.7,0.4-3.4,0.7-5.1l2.6,0.4C13.4,131.5,13.2,133.2,13,134.9z M286.4,134.5c-0.2-1.7-0.4-3.4-0.7-5l2.5-0.4
		c0.3,1.7,0.5,3.4,0.7,5.1L286.4,134.5z M14.5,124.8l-2.5-0.5c0.3-1.7,0.7-3.4,1-5.1l2.5,0.6C15.1,121.5,14.8,123.2,14.5,124.8z
		 M284.9,124.5c-0.3-1.7-0.7-3.3-1-5l2.5-0.6c0.4,1.7,0.7,3.4,1,5.1L284.9,124.5z M16.7,114.9l-2.5-0.7c0.4-1.7,0.9-3.3,1.4-5
		l2.5,0.7C17.6,111.7,17.1,113.3,16.7,114.9z M282.7,114.6c-0.4-1.6-0.9-3.3-1.4-4.9l2.5-0.8c0.5,1.6,1,3.3,1.4,5L282.7,114.6z
		 M19.7,105.2l-2.4-0.8c0.6-1.6,1.2-3.3,1.8-4.9l2.4,0.9C20.8,102,20.2,103.6,19.7,105.2z M279.7,104.9c-0.6-1.6-1.1-3.2-1.8-4.8
		l2.4-0.9c0.6,1.6,1.2,3.2,1.8,4.9L279.7,104.9z M23.3,95.7l-2.4-1c0.7-1.6,1.4-3.2,2.1-4.7l2.3,1.1C24.7,92.6,24,94.1,23.3,95.7z
		 M276,95.4c-0.7-1.5-1.4-3.1-2.1-4.6l2.3-1.1c0.7,1.5,1.5,3.1,2.1,4.7L276,95.4z M27.7,86.5l-2.3-1.2c0.8-1.5,1.6-3.1,2.5-4.6
		l2.2,1.3C29.3,83.5,28.5,85,27.7,86.5z M271.6,86.3c-0.8-1.5-1.6-3-2.4-4.4l2.2-1.3c0.9,1.5,1.7,3,2.5,4.5L271.6,86.3z M32.7,77.6
		l-2.2-1.4c0.9-1.5,1.8-2.9,2.8-4.4l2.1,1.4C34.6,74.8,33.6,76.2,32.7,77.6z M266.6,77.5c-0.9-1.4-1.8-2.9-2.8-4.3l2.1-1.4
		c1,1.4,1.9,2.9,2.8,4.3L266.6,77.5z M38.4,69.2l-2.1-1.5c1-1.4,2.1-2.8,3.1-4.1l2,1.6C40.4,66.5,39.4,67.8,38.4,69.2z M260.9,69
		c-1-1.4-2-2.7-3.1-4l2-1.6c1.1,1.3,2.1,2.7,3.1,4.1L260.9,69z M44.7,61.2l-2-1.7c1.1-1.3,2.3-2.6,3.4-3.9l1.9,1.7
		C46.9,58.6,45.8,59.9,44.7,61.2z M254.6,61.1c-1.1-1.3-2.2-2.6-3.4-3.8l1.9-1.7c1.2,1.3,2.3,2.6,3.4,3.9L254.6,61.1z M51.5,53.7
		l-1.8-1.8c1.2-1.2,2.4-2.5,3.7-3.6l1.8,1.9C53.9,51.3,52.7,52.5,51.5,53.7z M247.8,53.6c-1.2-1.2-2.4-2.4-3.6-3.6l1.8-1.9
		c1.2,1.2,2.5,2.4,3.7,3.6L247.8,53.6z M58.9,46.7l-1.7-1.9c1.3-1.1,2.6-2.3,3.9-3.3l1.6,2C61.5,44.5,60.2,45.6,58.9,46.7z
		 M240.4,46.6c-1.3-1.1-2.6-2.2-3.9-3.3l1.6-2c1.3,1.1,2.7,2.2,4,3.3L240.4,46.6z M66.8,40.3l-1.6-2.1c1.4-1,2.8-2.1,4.2-3l1.5,2.1
		C69.5,38.3,68.1,39.3,66.8,40.3z M232.5,40.2c-1.3-1-2.7-2-4.1-3l1.5-2.1c1.4,1,2.8,2,4.2,3L232.5,40.2z M75.1,34.5l-1.4-2.2
		c1.4-0.9,2.9-1.8,4.4-2.7l1.3,2.2C78,32.6,76.5,33.5,75.1,34.5z M224.2,34.3c-1.4-0.9-2.9-1.8-4.3-2.7l1.3-2.2
		c1.5,0.9,3,1.8,4.4,2.7L224.2,34.3z M83.8,29.3L82.6,27c1.5-0.8,3-1.6,4.6-2.4l1.2,2.3C86.8,27.7,85.3,28.5,83.8,29.3z M215.4,29.1
		c-1.5-0.8-3-1.6-4.5-2.4l1.1-2.3c1.5,0.8,3.1,1.6,4.6,2.4L215.4,29.1z M92.9,24.7l-1.1-2.3c1.6-0.7,3.2-1.4,4.7-2l1,2.4
		C96,23.4,94.4,24,92.9,24.7z M206.3,24.6c-1.5-0.7-3.1-1.4-4.7-2l1-2.4c1.6,0.6,3.2,1.3,4.8,2L206.3,24.6z M102.3,20.9l-0.9-2.4
		c1.6-0.6,3.3-1.2,4.9-1.7l0.8,2.5C105.5,19.7,103.9,20.3,102.3,20.9z M196.9,20.8c-1.6-0.6-3.2-1.1-4.8-1.7l0.8-2.5
		c1.6,0.5,3.3,1.1,4.9,1.7L196.9,20.8z M111.9,17.7l-0.7-2.5c1.7-0.5,3.3-0.9,5-1.3l0.6,2.5C115.2,16.8,113.6,17.3,111.9,17.7z
		 M187.2,17.6c-1.6-0.5-3.3-0.9-4.9-1.3l0.6-2.5c1.7,0.4,3.4,0.8,5,1.3L187.2,17.6z M121.8,15.3l-0.5-2.5c1.7-0.3,3.4-0.7,5.1-1
		l0.4,2.5C125.1,14.6,123.4,15,121.8,15.3z M177.3,15.2c-1.6-0.3-3.3-0.6-5-0.9l0.4-2.5c1.7,0.3,3.4,0.6,5.1,0.9L177.3,15.2z
		 M131.8,13.6l-0.3-2.6c1.7-0.2,3.4-0.4,5.1-0.6l0.2,2.6C135.2,13.2,133.5,13.4,131.8,13.6z M167.3,13.6c-1.7-0.2-3.4-0.4-5.1-0.5
		l0.2-2.6c1.7,0.2,3.4,0.3,5.1,0.6L167.3,13.6z M141.9,12.7l-0.1-2.6c1.7-0.1,3.5-0.2,5.2-0.2l0,2.6
		C145.3,12.5,143.6,12.6,141.9,12.7z M157.2,12.7c-1.7-0.1-3.4-0.1-5.1-0.2l0-2.6c1.7,0,3.5,0.1,5.2,0.2L157.2,12.7z"/>
</g>
<g>
	<path fill="#BBBBBB" d="M54.8,209.5c-1.1-1.6-0.7-3.7,0.9-4.8c1.6-1.1,3.7-0.7,4.8,0.9c1.1,1.6,0.7,3.7-0.9,4.8
		C58.1,211.5,55.9,211.1,54.8,209.5z"/>
	<path fill="#BBBBBB" d="M75.5,221.2l-4.8-5.1l-2.3,2.2l4.3,4.5l-1.8,1.7l-4.3-4.5l-4.5,4.2l-1.8-1.9l10.5-9.9l6.5,7L75.5,221.2z"/>
	<path fill="#BBBBBB" d="M79,231.7c0.1,0.3,0,0.8,0,1.1l-0.9,6.3l-2.3-1.9l0.9-5.6c0.1-0.8,0.2-1.3-0.5-1.9l-0.8-0.7l-3.8,4.6
		l-2-1.7l9.3-11l4,3.4c2.1,1.8,2.9,4.2,1,6.5C82.6,232.1,80.8,232.5,79,231.7z M81.2,226.1l-2-1.7l-2.4,2.8l2,1.7c1,0.8,2,1.2,3,0.1
		C82.8,227.9,82.2,226.9,81.2,226.1z"/>
	<path fill="#BBBBBB" d="M84.9,243.9c-3.6-2.4-3-6.2-1-9.4c2.1-3.2,5.4-5.3,9-2.9c3.6,2.4,3.1,6.2,1,9.4
		C91.9,244.2,88.5,246.3,84.9,243.9z M91.6,233.7c-2.4-1.5-4.2,0.3-5.4,2.2c-1.2,1.9-2.2,4.3,0.2,5.9c2.4,1.5,4.2-0.3,5.4-2.2
		C93,237.7,94,235.3,91.6,233.7z"/>
	<path fill="#BBBBBB" d="M105.4,254.6l-2.4-1.1l3.3-7l-6.1,5.7l-1.5-0.7l0.5-8.3l-3.3,7l-2.4-1.1l6.1-13l2.3,1.1l-0.7,11l8-7.5
		l2.2,1L105.4,254.6z"/>
	<path fill="#BBBBBB" d="M128.1,261.2l-2.5-0.6l1.8-7.5l-4.8,6.8l-1.6-0.4l-1.2-8.2l-1.8,7.5l-2.5-0.6l3.4-14l2.4,0.6l1.5,10.9
		l6.4-9l2.4,0.6L128.1,261.2z"/>
	<path fill="#BBBBBB" d="M138.1,262.6c-4.3-0.4-5.6-4.1-5.2-7.9c0.4-3.8,2.3-7.2,6.6-6.7c4.3,0.4,5.6,4.1,5.2,7.9
		C144.3,259.6,142.4,263,138.1,262.6z M139.3,250.5c-2.8-0.3-3.6,2.2-3.8,4.5c-0.2,2.2,0.1,4.8,2.9,5.1c2.8,0.3,3.6-2.2,3.8-4.5
		C142.3,253.3,142.1,250.7,139.3,250.5z"/>
	<path fill="#BBBBBB" d="M152.9,262.9l-5.5,0.1l-0.3-14.4l5.2-0.1c2.7-0.1,5,1,5,4.1c0,1-0.3,2-1.2,2.7c1.2,0.7,1.8,1.9,1.8,3.2
		C158,261.7,155.8,262.9,152.9,262.9z M152.4,251l-2.6,0.1l0.1,3.5l2.7-0.1c1.3,0,2.3-0.3,2.3-1.8C154.7,251.2,153.6,251,152.4,251z
		 M152.8,256.8l-2.9,0.1l0.1,3.7l2.9-0.1c1.3,0,2.5-0.3,2.5-1.9C155.3,257,154.1,256.8,152.8,256.8z"/>
	<path fill="#BBBBBB" d="M163.4,262.2l-2.6,0.3l-1.5-14.3l2.6-0.3L163.4,262.2z"/>
	<path fill="#BBBBBB" d="M177.3,259.9l-2.1,0.4l-7.3-7.8l1.7,8.9l-2.6,0.5l-2.7-14.1l2.1-0.4l7.3,7.8l-1.7-8.9l2.5-0.5L177.3,259.9z
		"/>
	<path fill="#BBBBBB" d="M187.5,244.4l-3.9,1.3l3.6,11.3l-2.5,0.8l-3.6-11.3l-3.9,1.3l-0.8-2.4l10.4-3.3L187.5,244.4z"/>
	<path fill="#BBBBBB" d="M198.6,252.6c-3.9,1.8-6.9-0.8-8.5-4.2c-1.6-3.5-1.6-7.4,2.4-9.2c3.9-1.8,6.9,0.8,8.5,4.2
		C202.6,246.9,202.6,250.9,198.6,252.6z M193.6,241.6c-2.6,1.2-2,3.7-1.1,5.8c0.9,2,2.5,4.2,5,3c2.6-1.2,2-3.7,1.1-5.8
		C197.7,242.5,196.2,240.4,193.6,241.6z"/>
	<path fill="#BBBBBB" d="M213.4,237.4c1.9,3.1,2,6-1.4,8.1c-3.4,2.1-5.9,0.8-7.9-2.4l-4.4-7.2l2.2-1.4l4.4,7.1
		c1.1,1.7,2.3,3,4.4,1.7c2.1-1.3,1.5-2.9,0.5-4.7l-4.4-7.1l2.2-1.4L213.4,237.4z"/>
	<path fill="#BBBBBB" d="M226.8,231.5c-0.1,2.4-0.4,3.6-2.3,5.2c-3.3,2.7-7,1.1-9.4-1.9c-2.4-3-3.2-6.9,0.2-9.6
		c1.7-1.4,3.2-1.6,5.4-1.2l-0.3,2.5c-1.3-0.2-2.4-0.2-3.5,0.6c-2.1,1.7-1.1,4.2,0.3,6c1.4,1.7,3.6,3.3,5.8,1.6
		c1.1-0.9,1.4-2,1.4-3.4L226.8,231.5z"/>
	<path fill="#BBBBBB" d="M238.5,223.1l-1.8,1.9l-4.4-4.3l-4,4.1l4.4,4.3l-1.8,1.9l-10.3-10l1.8-1.9l4.1,4l4-4.1l-4.1-4l1.8-1.9
		L238.5,223.1z"/>
	<path fill="#BBBBBB" d="M244.3,210.1c-1.1,1.6-3.2,2-4.8,0.9c-1.6-1.1-1.9-3.3-0.9-4.8c1.1-1.6,3.2-2,4.8-0.9
		C245,206.3,245.4,208.5,244.3,210.1z"/>
</g>
<g>
	<path fill="#BBBBBB" d="M69.2,92.5c-1.6,2.1-4.6,2.6-6.8,1c-2.2-1.6-2.6-4.6-1-6.8c1.6-2.2,4.6-2.6,6.8-1
		C70.3,87.3,70.8,90.4,69.2,92.5z"/>
	<path fill="#BBBBBB" d="M84.4,60.8l-4.5,3.7l10.5,12.8l-2.8,2.3L77.1,66.8l-4.5,3.7l-2.3-2.8L82.1,58L84.4,60.8z"/>
	<path fill="#BBBBBB" d="M102.6,69.4c-5.3,3-9.7-0.2-12.3-4.8c-2.6-4.6-3.1-10.1,2.1-13.1c5.3-3,9.7,0.1,12.3,4.8
		C107.3,60.9,107.8,66.4,102.6,69.4z M94.1,54.6c-3.4,2-2.3,5.4-0.7,8.2c1.6,2.7,4,5.5,7.4,3.5c3.4-2,2.3-5.4,0.7-8.2
		C99.9,55.4,97.6,52.6,94.1,54.6z"/>
	<path fill="#BBBBBB" d="M123.3,51.4c1.7,4.9,0.8,8.8-4.4,10.6c-5.2,1.8-8.3-0.8-10-5.7l-3.8-11.1l3.4-1.2l3.8,11
		c0.9,2.6,2.3,4.8,5.5,3.7c3.3-1.1,3-3.5,2.1-6.3l-3.8-11l3.4-1.2L123.3,51.4z"/>
	<path fill="#BBBBBB" d="M143.1,53.2c-1.7,2.8-3,4.1-6.4,4.6c-5.9,0.9-9.3-3.6-10-8.9c-0.8-5.4,1.1-10.6,7-11.5
		c3.1-0.5,5.1,0.3,7.3,2.4l-2.2,2.9c-1.4-1.2-2.7-2-4.6-1.7c-3.8,0.6-4.3,4.3-3.9,7.4c0.5,3.1,2.1,6.5,5.9,6c2-0.3,3-1.5,4-3.1
		L143.1,53.2z"/>
	<path fill="#BBBBBB" d="M160.8,57l-3.6-0.1l0.3-8.6l-8-0.3l-0.3,8.6l-3.6-0.1l0.7-20.1l3.6,0.1l-0.3,8.1l8,0.3l0.3-8.1l3.6,0.1
		L160.8,57z"/>
	<path fill="#BBBBBB" d="M181.4,61.6l-3.6-0.9l2.6-10.5l-6.7,9.5l-2.3-0.6l-1.6-11.5l-2.6,10.5l-3.6-0.9l4.8-19.6l3.4,0.8l2,15.3
		l9-12.6l3.3,0.8L181.4,61.6z"/>
	<path fill="#BBBBBB" d="M199.2,69.9l-3.5-1.7l0.5-5.6l-6.4-3.1l-4,3.9l-3.5-1.7L197.9,47l2.9,1.4L199.2,69.9z M196.5,59.3l0.6-6.9
		l-4.9,4.8L196.5,59.3z"/>
	<path fill="#BBBBBB" d="M203.4,73.1l-3-2l11-16.9l3,2L203.4,73.1z"/>
	<path fill="#BBBBBB" d="M215.9,83.1l-9.5-8l12.9-15.5l2.8,2.3l-10.7,12.8l6.8,5.7L215.9,83.1z"/>
	<path fill="#BBBBBB" d="M230.3,92.5c-1.6-2.1-1.1-5.2,1-6.8c2.2-1.6,5.2-1.1,6.8,1c1.6,2.2,1.2,5.2-1,6.8S231.9,94.7,230.3,92.5z"
		/>
</g>
</svg>
