<?xml version="1.0" encoding="utf-8"?>
<!-- Generator: Adobe Illustrator 18.1.1, SVG Export Plug-In . SVG Version: 6.00 Build 0)  -->
<!DOCTYPE svg PUBLIC "-//W3C//DTD SVG 1.1//EN" "http://www.w3.org/Graphics/SVG/1.1/DTD/svg11.dtd">
<svg version="1.1" id="Calque_1" xmlns="http://www.w3.org/2000/svg" xmlns:xlink="http://www.w3.org/1999/xlink" x="0px" y="0px"
	 viewBox="0 0 1000 1000" enable-background="new 0 0 1000 1000" xml:space="preserve">
<path fill="#E21417" d="M499.6-0.7c-276.1,0-500,223.9-500,500s223.9,500,500,500s500-223.9,500-500
	C999.6,223.1,775.7-0.7,499.6-0.7z M408.5,104c29.6-7,60.2-10.6,90.8-10.6c30.7,0,61.2,3.6,90.8,10.6c9,2.1,14.5,11.1,12.4,20.1
	s-11.1,14.5-20.1,12.4c-27.1-6.4-55-9.7-83.1-9.7s-56,3.3-83.1,9.7c-1.3,0.3-2.6,0.5-3.9,0.5c-7.5,0-14.4-5.2-16.2-12.8
	C394,115.2,399.5,106.2,408.5,104z M499.6,319.8c19.1,0,37.3-8.2,50-22.5c6.1-6.9,16.6-7.5,23.5-1.4s7.5,16.6,1.4,23.5
	c-19,21.5-46.3,33.8-74.9,33.8c-28.9,0-56.3-12.5-75.3-34.2c-6.1-6.9-5.3-17.5,1.6-23.5c6.9-6.1,17.5-5.4,23.5,1.6
	C462,311.5,480.3,319.8,499.6,319.8z M456.6,284.1c0-0.1,0-0.2,0-0.2c0-0.3,0.1-0.7,0.1-1c0-0.2,0.1-0.4,0.1-0.6s0.1-0.4,0.2-0.7
	c0.1-0.3,0.1-0.6,0.2-0.9c0-0.1,0.1-0.2,0.1-0.3c0.4-1.2,0.9-2.3,1.6-3.5c0.1-0.2,0.2-0.4,0.4-0.6c0.1-0.1,0.2-0.3,0.3-0.4
	c0.2-0.3,0.5-0.6,0.7-1c0,0,0,0,0-0.1c0.1-0.1,0.2-0.2,0.3-0.3c0.3-0.3,0.5-0.6,0.8-0.9c0.1-0.1,0.3-0.3,0.4-0.4
	c0.2-0.2,0.5-0.5,0.8-0.7c0.2-0.2,0.4-0.3,0.6-0.4c0.2-0.2,0.5-0.4,0.7-0.5c0.2-0.2,0.5-0.3,0.7-0.4s0.4-0.3,0.7-0.4
	c0.3-0.2,0.6-0.3,0.9-0.4c0.2-0.1,0.4-0.2,0.6-0.3c0.4-0.1,0.7-0.3,1.1-0.4c0.1,0,0.3-0.1,0.4-0.2h0.1h0.1
	c9.9-3.1,20.3-4.6,30.7-4.6c10.6,0,21.2,1.6,31.3,4.8c0.1,0,0.1,0,0.2,0.1h0.1c0.1,0,0.2,0.1,0.4,0.1c0.4,0.1,0.8,0.3,1.1,0.4
	c0.2,0.1,0.4,0.2,0.5,0.3c0.3,0.1,0.6,0.3,0.9,0.5c0.2,0.1,0.4,0.2,0.6,0.4c0.3,0.2,0.5,0.3,0.8,0.5c0.2,0.2,0.5,0.3,0.7,0.5
	s0.4,0.3,0.6,0.5c0.3,0.2,0.5,0.4,0.7,0.7c0.2,0.1,0.3,0.3,0.5,0.4c0.3,0.3,0.5,0.6,0.8,0.9c0.1,0.1,0.2,0.2,0.3,0.3c0,0,0,0,0,0.1
	c0.2,0.3,0.4,0.6,0.7,0.9c0.1,0.2,0.2,0.3,0.3,0.5s0.2,0.3,0.3,0.5c0.7,1.2,1.3,2.4,1.7,3.7c0,0.1,0,0.1,0.1,0.2
	c0.1,0.3,0.2,0.7,0.2,1c0,0.2,0.1,0.4,0.1,0.6s0.1,0.5,0.1,0.7c0,0.3,0.1,0.6,0.1,0.9c0,0.1,0,0.2,0,0.4c0.1,1.2,0,2.4-0.2,3.6
	c0,0.3-0.1,0.6-0.1,0.8c0,0.1-0.1,0.3-0.1,0.4c-0.1,0.4-0.2,0.8-0.3,1.2c0,0,0,0,0,0.1c-0.1,0.4-0.3,0.9-0.5,1.3
	c-0.1,0.1-0.1,0.3-0.2,0.4c-0.1,0.3-0.3,0.6-0.4,0.9c-0.1,0.2-0.2,0.3-0.3,0.5c-0.2,0.3-0.3,0.6-0.5,0.8c-0.1,0.2-0.2,0.3-0.3,0.5
	c-0.2,0.3-0.4,0.6-0.6,0.8c-0.1,0.1-0.2,0.2-0.3,0.4c-0.7,0.8-1.4,1.5-2.2,2.2l-0.1,0.1c-10.3,8.3-23.3,12.9-36.6,12.9
	c-13.3,0-26.3-4.6-36.6-12.9c-0.1,0-0.1-0.1-0.2-0.1c0,0,0,0-0.1-0.1s-0.2-0.2-0.3-0.3c-0.3-0.3-0.6-0.5-0.9-0.8
	c-0.1-0.1-0.3-0.3-0.4-0.4c-0.2-0.2-0.5-0.5-0.7-0.8c-0.2-0.2-0.3-0.4-0.5-0.6s-0.4-0.5-0.5-0.7c-0.2-0.2-0.3-0.5-0.5-0.7
	c-0.1-0.2-0.3-0.4-0.4-0.6c-0.2-0.3-0.3-0.6-0.5-0.9c-0.1-0.2-0.2-0.4-0.3-0.6c-0.2-0.4-0.3-0.7-0.4-1.1c0-0.1-0.1-0.3-0.1-0.4
	c0,0,0,0,0-0.1c-0.1-0.4-0.2-0.8-0.3-1.2c0-0.2-0.1-0.3-0.1-0.5s-0.1-0.5-0.1-0.7C456.6,286.7,456.5,285.4,456.6,284.1z M564.5,261
	c-21.1-6.1-43-9.2-65.2-9.2c-22.3,0-44.4,3.2-65.7,9.4c-1.6,0.5-3.1,0.7-4.7,0.7c-7.2,0-13.9-4.7-16-12c-2.6-8.8,2.5-18.1,11.3-20.7
	c24.3-7.1,49.5-10.7,75-10.7c25.3,0,50.3,3.5,74.4,10.6c8.8,2.6,13.9,11.8,11.4,20.7C582.5,258.7,573.3,263.6,564.5,261z
	 M426.6,333.2c20,18.2,45.9,28.2,72.9,28.2c26.8,0,52.6-9.9,72.5-27.8c6.8-6.2,17.4-5.6,23.5,1.2c6.2,6.8,5.6,17.4-1.2,23.5
	c-26,23.5-59.7,36.4-94.8,36.4c-35.4,0-69.3-13.1-95.4-36.9c-6.8-6.2-7.3-16.7-1.1-23.5C409.3,327.5,419.8,327,426.6,333.2z
	 M579.9,222.1c-26-8-53.1-12-80.6-12c-27.7,0-55,4.1-81.1,12.2c-1.6,0.5-3.3,0.7-4.9,0.7c-7.1,0-13.7-4.6-15.9-11.8
	c-2.7-8.8,2.2-18.1,11-20.8c29.4-9.1,60-13.6,91-13.6c30.8,0,61.2,4.5,90.3,13.5c8.8,2.7,13.8,12,11.1,20.8
	C598,219.8,588.7,224.8,579.9,222.1z M581.6,179.2c-26.7-7.2-54.4-10.8-82.3-10.8c-28,0-55.8,3.7-82.6,10.9
	c-1.5,0.4-2.9,0.6-4.3,0.6c-7.3,0-14.1-4.9-16.1-12.3c-2.4-8.9,2.9-18,11.8-20.4c29.6-8,60.4-12,91.3-12c30.8,0,61.4,4,90.9,11.9
	c8.9,2.4,14.2,11.5,11.8,20.4C599.6,176.4,590.5,181.6,581.6,179.2z M389.2,379.1c5.4-7.5,15.8-9.2,23.3-3.9
	c25.5,18.2,55.7,27.9,87.1,27.9c31.3,0,61.3-9.5,86.7-27.6c7.5-5.3,17.9-3.6,23.2,3.9s3.6,17.9-3.9,23.2
	c-31.1,22.1-67.7,33.7-106,33.7c-38.5,0-75.3-11.8-106.5-34.1C385.6,397,383.8,386.6,389.2,379.1z M376.4,422
	c4.8-7.8,15.1-10.3,22.9-5.5c30.1,18.5,64.7,28.3,100.2,28.3c35.3,0,69.8-9.7,99.8-28c7.9-4.8,18.1-2.3,22.9,5.5
	c4.8,7.9,2.3,18.1-5.5,22.9c-35.2,21.5-75.7,32.9-117.2,32.9c-41.6,0-82.3-11.5-117.7-33.2C374.1,440.1,371.6,429.8,376.4,422z
	 M364.3,464c4.5-8.1,14.6-11,22.6-6.5c34.3,18.9,73.2,29,112.6,29c39.3,0,78.1-9.9,112.3-28.8c8.1-4.4,18.2-1.5,22.6,6.6
	c4.4,8.1,1.5,18.2-6.6,22.6c-39.1,21.5-83.5,32.9-128.4,32.9c-45,0-89.5-11.4-128.8-33.1C362.7,482.2,359.8,472.1,364.3,464z
	 M352.5,505.6c4.2-8.2,14.2-11.5,22.4-7.3c38.8,19.8,80.8,29.8,124.6,29.8s85.6-10,124.4-29.7c8.2-4.2,18.2-0.9,22.4,7.3
	c4.2,8.2,0.9,18.2-7.3,22.4c-43.5,22.1-90.4,33.3-139.5,33.3c-49.2,0-96.2-11.2-139.8-33.4C351.6,523.8,348.3,513.8,352.5,505.6z
	 M341.1,546.9c4-8.3,13.9-11.8,22.2-7.9c42.7,20.4,88.6,30.7,136.3,30.7c47.6,0,93.4-10.3,136-30.6c8.3-4,18.3-0.4,22.2,7.9
	c4,8.3,0.4,18.3-7.9,22.2c-47.2,22.5-97.8,33.9-150.4,33.9c-52.7,0-103.4-11.4-150.6-34C340.6,565.2,337.1,555.2,341.1,546.9z
	 M330,588.1c3.8-8.4,13.7-12.1,22.1-8.3c46.5,21,96.1,31.7,147.5,31.7s100.9-10.6,147.4-31.6c8.4-3.8,18.3-0.1,22.1,8.3
	c3.8,8.4,0.1,18.3-8.3,22.1c-50.8,22.9-105,34.6-161.1,34.6c-56.2,0-110.5-11.7-161.3-34.6C329.9,606.4,326.2,596.5,330,588.1z
	 M319.3,629.2c3.6-8.5,13.5-12.3,21.9-8.7c50.1,21.6,103.4,32.6,158.3,32.6c55,0,108.2-10.9,158.3-32.5c8.5-3.6,18.3,0.3,21.9,8.7
	c3.6,8.5-0.3,18.3-8.7,21.9c-54.2,23.4-111.9,35.3-171.5,35.3s-117.3-11.9-171.6-35.3C319.6,647.5,315.7,637.7,319.3,629.2z
	 M309.2,670.5c3.5-8.5,13.3-12.6,21.8-9c53.5,22.1,110.2,33.3,168.6,33.3s115.1-11.2,168.5-33.3c8.5-3.5,18.3,0.5,21.8,9
	s-0.5,18.3-9,21.8c-57.5,23.8-118.5,35.8-181.3,35.8S375.8,716,318.3,692.3C309.7,688.8,305.7,679,309.2,670.5z M300.3,712.1
	c3.4-8.6,13.1-12.8,21.6-9.4c56.5,22.4,116.3,33.7,177.7,33.7s121.1-11.3,177.7-33.7c8.6-3.4,18.2,0.8,21.6,9.4
	c3.4,8.6-0.8,18.2-9.4,21.6c-60.5,23.9-124.4,36-189.9,36s-129.5-12.1-189.9-36C301.1,730.4,296.9,720.7,300.3,712.1z M566.2,877
	c0,0.3,0,0.7-0.1,1c0,0.3-0.1,0.5-0.1,0.8s-0.1,0.5-0.1,0.8c-0.1,0.3-0.1,0.6-0.2,0.9c-0.1,0.2-0.1,0.4-0.2,0.6
	c-0.1,0.3-0.2,0.6-0.3,0.9c-0.1,0.2-0.2,0.4-0.2,0.6c-0.1,0.3-0.3,0.6-0.4,0.8c-0.1,0.2-0.2,0.4-0.3,0.6c-0.1,0.2-0.3,0.5-0.4,0.7
	c-0.1,0.2-0.3,0.5-0.4,0.7c-0.1,0.2-0.3,0.4-0.4,0.6c-0.2,0.2-0.4,0.5-0.6,0.7c-0.1,0.2-0.3,0.3-0.4,0.5c-0.2,0.2-0.4,0.5-0.7,0.7
	c-0.2,0.1-0.3,0.3-0.5,0.4c-0.2,0.2-0.5,0.4-0.7,0.6c-0.2,0.2-0.4,0.3-0.6,0.5c-0.2,0.2-0.4,0.3-0.7,0.5s-0.6,0.3-0.8,0.5
	c-0.2,0.1-0.4,0.2-0.5,0.3c-0.4,0.2-0.7,0.4-1.1,0.5c-0.1,0-0.2,0.1-0.3,0.1h-0.1c-0.1,0-0.1,0-0.2,0.1
	c-21.5,8.9-40.3,13.4-56.1,13.4c-15.7,0-34.5-4.5-56-13.4c-0.1,0-0.1,0-0.2-0.1c0,0-0.1,0-0.1-0.1c-0.1,0-0.2-0.1-0.3-0.2
	c-0.4-0.2-0.8-0.3-1.1-0.5c-0.2-0.1-0.4-0.2-0.5-0.3c-0.3-0.2-0.6-0.3-0.8-0.5c-0.2-0.2-0.5-0.3-0.7-0.5s-0.4-0.3-0.6-0.5
	s-0.5-0.4-0.7-0.6c-0.2-0.1-0.3-0.3-0.5-0.4c-0.2-0.2-0.5-0.5-0.7-0.7c-0.1-0.2-0.3-0.3-0.4-0.5c-0.2-0.2-0.4-0.5-0.6-0.7
	c-0.1-0.2-0.3-0.4-0.4-0.6c-0.2-0.2-0.3-0.5-0.4-0.7s-0.3-0.5-0.4-0.7s-0.2-0.4-0.3-0.6c-0.1-0.3-0.3-0.6-0.4-0.8s-0.2-0.4-0.2-0.6
	c-0.1-0.3-0.2-0.6-0.3-0.9c-0.1-0.2-0.1-0.4-0.2-0.6c-0.1-0.3-0.2-0.6-0.2-0.9c-0.1-0.2-0.1-0.5-0.1-0.7c0-0.3-0.1-0.6-0.1-0.8
	c0-0.3-0.1-0.6-0.1-1c0-0.2,0-0.4,0-0.6c0-0.4,0-0.8,0-1.2c0-0.1,0-0.2,0-0.4c0,0,0,0,0-0.1c0-0.4,0.1-0.8,0.2-1.2
	c0-0.2,0-0.3,0.1-0.5c0.1-0.3,0.1-0.5,0.2-0.8s0.1-0.6,0.2-0.8c0-0.2,0.1-0.3,0.2-0.4c0.1-0.4,0.3-0.8,0.4-1.2c0,0,0,0,0-0.1
	s0.1-0.2,0.1-0.3c0.2-0.4,0.3-0.8,0.5-1.1c0.1-0.2,0.2-0.3,0.3-0.5c0.2-0.3,0.3-0.6,0.5-0.9c0.1-0.2,0.3-0.4,0.5-0.6
	c0.2-0.2,0.3-0.4,0.5-0.6c0.2-0.2,0.4-0.5,0.6-0.7s0.3-0.3,0.5-0.5s0.4-0.4,0.7-0.6c0.2-0.2,0.3-0.3,0.5-0.5s0.4-0.4,0.7-0.5
	c0.2-0.2,0.4-0.3,0.6-0.5c0.2-0.1,0.4-0.3,0.6-0.4c0.3-0.2,0.5-0.3,0.8-0.5c0.2-0.1,0.4-0.2,0.6-0.3c0.3-0.1,0.6-0.3,0.9-0.4
	c0.2-0.1,0.3-0.1,0.5-0.2c0.3-0.1,0.7-0.2,1-0.4c0.2-0.1,0.4-0.1,0.5-0.2c0.3-0.1,0.7-0.2,1-0.3c0.2,0,0.4-0.1,0.7-0.1
	c0.3-0.1,0.6-0.1,0.9-0.1s0.6,0,0.9-0.1c0.2,0,0.5,0,0.7,0c0.4,0,0.8,0,1.1,0c0.1,0,0.3,0,0.4,0s0.2,0,0.2,0l0,0
	c16,1.3,32.3,1.9,48.3,1.9c16.1,0,32.3-0.6,48.4-1.9l0,0c0.1,0,0.1,0,0.2,0c0.1,0,0.3,0,0.4,0c0.4,0,0.8,0,1.1,0s0.6,0,0.9,0
	c0.2,0,0.5,0,0.7,0.1c0.4,0,0.8,0.1,1.2,0.2c0.1,0,0.3,0,0.4,0.1c0.5,0.1,0.9,0.2,1.3,0.3c0.1,0,0.1,0,0.2,0.1
	c0.5,0.1,0.9,0.3,1.4,0.5c0,0,0.1,0,0.1,0.1c0.4,0.2,0.9,0.4,1.3,0.6c0.1,0,0.1,0.1,0.2,0.1c0.4,0.2,0.8,0.4,1.1,0.7
	c0.1,0.1,0.2,0.1,0.3,0.2c0.3,0.2,0.7,0.5,1,0.7c0.1,0.1,0.2,0.2,0.3,0.3c0.3,0.2,0.6,0.5,0.8,0.7c0.1,0.1,0.3,0.2,0.4,0.4
	c0.3,0.3,0.5,0.5,0.7,0.8c0.1,0.1,0.2,0.3,0.4,0.4c0.2,0.3,0.5,0.6,0.7,0.9c0.1,0.1,0.2,0.3,0.3,0.4c0.2,0.4,0.5,0.7,0.7,1.1
	c0.1,0.1,0.1,0.2,0.2,0.3c0.2,0.4,0.4,0.9,0.6,1.3c0,0.1,0.1,0.1,0.1,0.2l0,0c0.2,0.4,0.3,0.9,0.5,1.3c0,0.1,0.1,0.2,0.1,0.3
	c0.1,0.3,0.2,0.6,0.2,0.9c0.1,0.3,0.1,0.5,0.2,0.8c0,0.2,0,0.3,0.1,0.5c0.1,0.4,0.1,0.8,0.2,1.2c0,0,0,0,0,0.1s0,0.2,0,0.3
	c0,0.4,0,0.8,0,1.3C566.2,876.6,566.2,876.8,566.2,877z M642.8,835.9c-46.6,11.4-94.8,17.2-143.2,17.2c-48.3,0-96.4-5.8-143-17.1
	c-8.9-2.2-14.4-11.2-12.2-20.1s11.2-14.4,20.1-12.2c43.9,10.7,89.4,16.2,135.1,16.2c45.8,0,91.3-5.5,135.3-16.3
	c8.9-2.2,18,3.3,20.2,12.2C657.2,824.7,651.7,833.7,642.8,835.9z M689.5,778.3c-60.8,22-124.7,33.2-190,33.2
	c-65.2,0-129.1-11.2-189.9-33.1c-8.7-3.1-13.1-12.7-10-21.3c3.1-8.7,12.7-13.1,21.3-10c57.2,20.7,117.2,31.2,178.6,31.2
	c61.3,0,121.4-10.5,178.6-31.2c8.7-3.1,18.2,1.3,21.3,10C702.7,765.6,698.2,775.2,689.5,778.3z"/>
</svg>
