<?xml version="1.0" encoding="utf-8"?>
<!-- Generator: Adobe Illustrator 18.1.1, SVG Export Plug-In . SVG Version: 6.00 Build 0)  -->
<!DOCTYPE svg PUBLIC "-//W3C//DTD SVG 1.1//EN" "http://www.w3.org/Graphics/SVG/1.1/DTD/svg11.dtd">
<svg version="1.1" id="Calque_1" xmlns="http://www.w3.org/2000/svg" xmlns:xlink="http://www.w3.org/1999/xlink" x="0px" y="0px"
	 viewBox="0 0 300 300" enable-background="new 0 0 300 300" xml:space="preserve">
<g>
	<linearGradient id="SVGID_1_" gradientUnits="userSpaceOnUse" x1="0" y1="150" x2="300" y2="150">
		<stop  offset="0" style="stop-color:#E21417"/>
		<stop  offset="1" style="stop-color:#A51417"/>
	</linearGradient>
	<path fill="url(#SVGID_1_)" d="M150,0C67.2,0,0,67.2,0,150s67.2,150,150,150s150-67.2,150-150S232.8,0,150,0z"/>
</g>
<path fill="#FFFFFF" d="M152,60.4l26.2,53.2c0.3,0.7,1,1.1,1.7,1.2l58.7,8.5c1.8,0.3,2.6,2.5,1.2,3.8l-42.5,41.4
	c-0.5,0.5-0.8,1.3-0.6,2l10,58.4c0.3,1.8-1.6,3.2-3.2,2.4L151,203.7c-0.7-0.3-1.4-0.3-2.1,0l-52.5,27.6c-1.6,0.9-3.6-0.5-3.2-2.4
	l10-58.4c0.1-0.7-0.1-1.5-0.6-2l-42.5-41.4c-1.3-1.3-0.6-3.6,1.2-3.8l58.7-8.5c0.7-0.1,1.4-0.6,1.7-1.2L148,60.4
	C148.8,58.7,151.2,58.7,152,60.4z"/>
</svg>
