<?xml version="1.0" encoding="utf-8"?>
<!-- Generator: Adobe Illustrator 19.2.0, SVG Export Plug-In . SVG Version: 6.00 Build 0)  -->
<svg version="1.1" id="Layer_1" xmlns="http://www.w3.org/2000/svg" xmlns:xlink="http://www.w3.org/1999/xlink" x="0px" y="0px"
	 viewBox="0 0 512 512" style="enable-background:new 0 0 512 512;" xml:space="preserve">
<style type="text/css">
	.st0{fill:#EAEAEA;}
	.st1{fill:#AEAEAE;}
</style>
<g id="Layer_2">
	<rect x="-19" y="-15" class="st0" width="545" height="545"/>
</g>
<g id="Capa_1">
	<g>
		<g>
			<path class="st1" d="M256,256c18.5,0,34.3-6.5,47.3-19.6c13.1-13.1,19.6-28.9,19.6-47.3s-6.5-34.3-19.6-47.3
				c-13.1-13.1-28.9-19.6-47.3-19.6s-34.3,6.5-47.3,19.6c-13.1,13.1-19.6,28.9-19.6,47.3s6.5,34.3,19.6,47.3
				C221.7,249.5,237.5,256,256,256z"/>
			<path class="st1" d="M378.1,326.8c-0.4-5.9-1.2-12.2-2.5-19c-1.2-6.8-2.8-13.1-4.6-18.9c-1.9-5.8-4.3-11.5-7.5-17
				c-3.1-5.5-6.7-10.3-10.8-14.1c-4.1-3.9-9.1-7-14.9-9.3c-5.9-2.3-12.3-3.5-19.5-3.5c-1,0-3.5,1.3-7.3,3.8s-8.2,5.3-13,8.4
				c-4.8,3.1-11.1,5.9-18.8,8.4c-7.7,2.5-15.5,3.8-23.3,3.8s-15.5-1.3-23.3-3.8c-7.7-2.5-14-5.3-18.8-8.4s-9.2-5.9-13-8.4
				c-3.8-2.5-6.3-3.8-7.3-3.8c-7.1,0-13.5,1.2-19.5,3.5c-5.9,2.3-10.8,5.4-14.9,9.3c-4.1,3.9-7.7,8.6-10.8,14.1s-5.6,11.2-7.5,17
				c-1.9,5.8-3.4,12.1-4.6,18.9c-1.2,6.8-2,13.1-2.5,19c-0.4,5.9-0.6,11.9-0.6,18c0,14,4.2,25,12.7,33.1
				c8.5,8.1,19.8,12.1,33.8,12.1h152.4c14.1,0,25.3-4,33.8-12.1c8.5-8.1,12.7-19.1,12.7-33.1C378.8,338.6,378.6,332.6,378.1,326.8z"
				/>
		</g>
	</g>
</g>
</svg>
