<?xml version="1.0" encoding="utf-8"?>
<!-- Generator: Adobe Illustrator 18.1.1, SVG Export Plug-In . SVG Version: 6.00 Build 0)  -->
<!DOCTYPE svg PUBLIC "-//W3C//DTD SVG 1.1//EN" "http://www.w3.org/Graphics/SVG/1.1/DTD/svg11.dtd">
<svg version="1.1" id="Calque_1" xmlns="http://www.w3.org/2000/svg" xmlns:xlink="http://www.w3.org/1999/xlink" x="0px" y="0px"
	 width="659.8px" height="600px" viewBox="0 0 659.8 600" enable-background="new 0 0 659.8 600" xml:space="preserve">
<g>
	<g>
		<path d="M627.5,444.9c-1.1,0-2.4-0.2-3.5-0.2c-16.5-2-28.1-16.7-26.1-33.2c1.5-12.1,2.2-24.6,2.2-36.9
			c0-173.3-141-314.4-314.4-314.4c-56,0-110.9,14.9-159.1,43.1c-14.3,8.3-32.5,3.5-41.1-10.8C77.1,78.2,81.9,60,96.2,51.4
			C153.4,17.8,219,0,285.6,0c100,0,194,38.9,264.5,109.6s109.6,164.6,109.6,264.5c0,14.7-0.9,29.4-2.4,43.9
			C655.4,433.7,642.4,444.9,627.5,444.9z"/>
	</g>
	<g>
		<path d="M29.7,532.6C13.2,532.6,0,519.2,0,502.7V374.6C0,217.9,128.1,90.3,285.2,90.3c15.8,0,32.1,1.3,48.1,4.2
			c16.3,2.9,27.5,18.2,24.6,34.5s-18.2,27.2-34.5,24.6c-12.7-2.2-26.4-3.3-38.7-3.3c-124.1,0-225.6,100.6-225.6,224.5v128.3
			C59.3,519.4,46.1,532.6,29.7,532.6z"/>
	</g>
	<g>
		<path d="M537.2,532.6c-16.5,0-29.7-13.4-29.7-29.9V374.6c0-74-35.6-143.2-96.7-185.2c-13.6-9.4-16.7-27.9-7.3-41.7
			c9.4-13.6,26.8-17.1,40.6-7.7C521.8,193.1,567,280.8,567,374.6v128.3C566.8,519.4,553.6,532.6,537.2,532.6z"/>
	</g>
	<g>
		<path d="M451.5,600c-16.5,0-29.7-13.4-29.7-29.9V375.2c0-74.3-60.9-134.7-135.1-134.7S151.6,301,151.6,375.2v194.9
			c0,16.5-13.2,29.9-29.7,29.9s-29.7-13.4-29.7-29.9V375.2c0-107.2,87.2-194.7,194.4-194.7s194.4,87.2,194.4,194.7v194.9
			C481.1,586.6,468,600,451.5,600z"/>
	</g>
	<circle cx="30.5" cy="143.5" r="29.9"/>
</g>
</svg>
