<?xml version="1.0" encoding="utf-8"?>
<!-- Generator: Adobe Illustrator 18.1.1, SVG Export Plug-In . SVG Version: 6.00 Build 0)  -->
<!DOCTYPE svg PUBLIC "-//W3C//DTD SVG 1.1//EN" "http://www.w3.org/Graphics/SVG/1.1/DTD/svg11.dtd">
<svg version="1.1" id="Calque_1" xmlns="http://www.w3.org/2000/svg" xmlns:xlink="http://www.w3.org/1999/xlink" x="0px" y="0px"
	 viewBox="0 0 755.4 517" enable-background="new 0 0 755.4 517" xml:space="preserve">
<g>
	<path fill="#E2161A" d="M289.4,19C317,6.6,347.1,0,377.9,0c32.8,0,64.2,7.2,93,21c5.9,2.6,7.9,9.8,5.2,15.7
		c-2,3.9-5.9,6.6-10.5,6.6c-1.3,0-3.3,0-5.2-1.3c-26.2-12.5-53.7-19-83.2-19c-27.5,0-53.7,5.9-78.6,17c-5.9,2.6-13.1,0-15.7-5.9
		C280.9,28.2,283.5,21.6,289.4,19z"/>
	<path fill="#E2161A" d="M272.4,61.6c31.5-21.6,67.5-32.8,105.5-32.8c39.3,0,77.3,12.5,109.4,35.4c5.2,3.9,6.6,11.1,2.6,16.4
		c-2.6,3.3-5.9,4.6-9.2,4.6c-2.6,0-4.6-0.7-6.6-2c-28.2-20.3-60.9-30.8-95.7-30.8c-33.4,0-64.9,9.8-92.4,28.8
		c-5.2,3.9-12.5,2.6-16.4-2.6C265.8,72.7,267.2,65.5,272.4,61.6z"/>
	<path fill="#E2161A" d="M377.9,168.4c-13.1,0-24.9,5.2-34.1,15.1c-4.6,4.6-11.8,5.2-16.4,0.7c-4.6-4.6-5.2-11.8-0.7-16.4
		c13.1-14.4,31.5-22.3,51.1-22.3c19.7,0,39.3,8.5,52.4,23.6c3.9,4.6,3.9,11.8-1.3,16.4c-2,2-5.2,2.6-7.9,2.6c-3.3,0-6.6-1.3-8.5-3.9
		C404.1,174.3,391,168.4,377.9,168.4z"/>
	<path fill="#E2161A" d="M398.9,281.1c-6.6,2-13.1,3.3-21,3.3c-7.2,0-14.4-1.3-21-3.3c-5.9-2-9.2-8.5-7.2-14.4
		c2-5.9,8.5-9.8,15.1-7.2c3.9,1.3,8.5,2,13.8,2c5.2,0,9.2-0.7,13.8-2c5.9-2,12.5,1.3,14.4,7.9C408,272.6,404.8,279.1,398.9,281.1z"
		/>
	<path fill="#E2161A" d="M377.9,290.3c21,0,40.6-8.5,55-23.6c4.6-4.6,11.8-5.2,16.4-0.7c4.6,4.6,5.2,11.8,0.7,16.4
		c-18.3,19.7-44.6,31.5-72.1,31.5c-27.5,0-53.7-11.8-72.1-31.5c-4.6-4.6-3.9-11.8,0.7-16.4c4.6-4.6,11.8-3.9,16.4,0.7
		C337.3,281.8,356.9,290.3,377.9,290.3z"/>
	<path fill="#E2161A" d="M446,172.3c-3.3,0-6.6-1.3-9.2-4.6c-14.4-18.3-36-28.2-59-28.2c-22.3,0-43.2,9.8-57.7,26.9
		c-3.9,5.2-11.8,5.2-16.4,1.3c-5.2-3.9-5.2-11.8-1.3-16.4c19-22.3,46.5-35.4,76-35.4c30.1,0,58.3,13.8,77.3,37.4
		c3.9,5.2,3.3,12.5-2,16.4C451.3,171,448.7,172.3,446,172.3z"/>
	<path fill="#E2161A" d="M456.5,145.5c-19.7-22.3-48.5-35.4-78.6-35.4c-15.1,0-28.8,3.3-42.6,9.2c-13.1,5.9-24.9,14.4-34.1,24.9
		c-4.6,4.6-11.8,5.2-16.4,0.7c-4.6-4.6-5.2-12.5-1.3-17c11.8-13.1,26.2-22.9,41.9-30.1c16.4-7.2,34.1-11.1,52.4-11.1
		c36.7,0,72.1,15.7,95.7,43.2c3.9,4.6,3.9,11.8-1.3,16.4c-2,2-5.2,2.6-7.9,2.6C461.8,149.4,459.2,148.1,456.5,145.5z"/>
	<path fill="#E2161A" d="M289.4,271.3c19.7,30.1,52.4,48.5,88.5,48.5s68.8-18.3,88.5-48.5c3.3-5.2,10.5-7.2,15.7-3.9
		s7.2,10.5,3.9,15.7c-23.6,36.7-64.2,59-108.1,59s-83.9-22.3-108.1-59c-3.3-5.2-2-12.5,3.9-15.7C279,264.1,286.2,266,289.4,271.3z"
		/>
	<path fill="#E2161A" d="M486,117.3c-2.6,2.6-5.2,3.9-8.5,3.9c-2.6,0-5.9-1.3-7.9-3.3c-24.9-23.6-57.7-36.7-91.7-36.7
		c-32.8,0-64.9,11.8-89.1,34.1c-4.6,3.9-11.8,3.9-16.4-0.7c-3.9-4.6-3.9-11.8,0.7-16.4c28.8-26.2,66.2-40.6,104.8-40.6
		c40.6,0,78.6,15.1,107.5,42.6C490.6,104.8,490.6,112.7,486,117.3z"/>
	<path fill="#E2161A" d="M243.6,271.3c5.9-2.6,13.1-0.7,15.7,5.2c11.1,21.6,27.5,39.3,48.5,52.4s45.2,19.7,70.1,19.7
		c24.9,0,49.1-6.6,70.1-19.7c20.3-13.1,37.4-30.8,48.5-52.4c2.6-5.9,9.8-7.9,15.7-5.2c5.9,2.6,7.9,9.8,5.2,15.7
		c-13.1,24.9-32.8,46.5-56.4,61.6c-24.9,15.7-53.7,23.6-82.6,23.6c-29.5,0-57.7-7.9-82.6-23.6c-24.2-15.1-43.9-36-56.4-61.6
		C235.7,281.8,237.7,274.6,243.6,271.3z"/>
	<path fill="#E2161A" d="M214.7,278.5c5.9-2.6,13.1,0,15.7,5.2c13.1,27.5,33.4,51.1,59,67.5c26.2,17,57,26.2,88.5,26.2
		s62.3-9.2,88.5-26.2c25.6-17,45.9-40,59-67.5c2.6-5.9,9.8-8.5,15.7-5.2c5.9,2.6,8.5,9.8,5.2,15.7c-14.4,31.5-38,58.3-67.5,77.3
		c-29.5,19.7-64.2,30.1-100.9,30.1s-70.8-10.5-100.9-30.1c-29.5-19-52.4-45.9-67.5-77.3C206.9,287.7,208.8,281.1,214.7,278.5z"/>
	<path fill="#E2161A" d="M189.2,292.3c5.9-2.6,13.1,0,15.7,5.2c15.7,32.1,39.3,59.6,69.5,78.6c30.8,19.7,66.8,30.1,103.5,30.1
		s72.7-10.5,103.5-30.1c30.1-19.7,54.4-46.5,69.5-78.6c2.6-5.9,9.8-7.9,15.7-5.2c5.9,2.6,7.9,9.8,5.2,15.7c-17,36-44.6,66.8-78,88.5
		c-34.7,22.3-74.7,34.1-116,34.1s-81.3-11.8-116-34.1c-34.1-21.6-60.3-52.4-78-88.5C181.3,302.1,183.3,294.9,189.2,292.3z"/>
	<path fill="#E2161A" d="M168.2,315.8c5.9-3.3,12.5-1.3,15.7,4.6c38.7,71.4,112.7,115.3,194,115.3s155.3-44.6,194-115.3
		c3.3-5.9,10.5-7.9,15.7-4.6c5.9,3.3,7.9,10.5,4.6,15.7C548.9,410.2,467,458.7,377.9,458.7s-171.7-48.5-214.3-127.1
		C160.3,326.3,162.3,319.1,168.2,315.8z"/>
	<path fill="#E2161A" d="M602,417.4c-13.8,15.1-28.8,28.8-45.2,41.3c-9.8,7.9-26.9,19-49.8,30.1c-40.6,19-83.9,28.2-129.1,28.2
		s-88.5-9.8-129.1-28.8c-23.6-10.5-40-22.3-49.8-30.1c-17-12.5-32.1-26.2-45.9-41.9c-3.9-4.6-3.9-11.8,0.7-16.4
		c4.6-3.9,11.8-3.9,16.4,0.7c13.1,14.4,26.9,27.5,42.6,38.7l0,0l0,0c7.2,5.9,22.9,17,45.9,27.5c37.4,17.7,77.3,26.2,119.3,26.2
		s81.9-9.2,119.3-26.2c22.3-10.5,38-21.6,45.9-27.5l0,0l0,0c15.1-11.1,29.5-23.6,41.9-38c3.9-4.6,11.8-5.2,16.4-0.7
		C605.9,405.6,606.6,412.8,602,417.4z"/>
	<path fill="#E2161A" d="M604,368.3c-51.1,75.4-135.6,119.9-226.1,119.9s-175-44.6-226.1-119.9c-3.9-5.2-2.6-12.5,3.3-16.4
		c5.2-3.9,12.5-2.6,16.4,3.3C218,424,295.3,465.2,377.9,465.2S537.8,424,585,355.2c3.9-5.2,10.5-6.6,16.4-3.3
		C605.9,355.8,607.2,363,604,368.3z"/>
</g>
<g opacity="0.4">
	<path fill="#E2161A" d="M565.9,123.7c15.4-6.9,31.5-10.5,48.5-10.5c18.2,0,35.2,4,51.3,11.7c1.2,0.8,2.4,0.8,3.2,0.8
		c2.8,0,5.3-1.6,6.5-4c1.6-3.6,0.4-8.1-3.2-9.7c-17.8-8.5-37.2-12.9-57.4-12.9c-19,0-37.6,4-54.6,11.7c-3.6,1.6-5.3,5.7-4,9.3
		C557.8,123.7,562.3,125.3,565.9,123.7z"/>
	<path fill="#E2161A" d="M558.2,149.2c17-11.7,36.4-17.8,57-17.8c21.4,0,41.6,6.5,59,19c1.2,0.8,2.4,1.2,4,1.2c2,0,4-0.8,5.7-2.8
		c2.4-3.2,1.6-7.7-1.6-10.1c-19.8-14.1-43.2-21.8-67.5-21.8c-23.4,0-45.7,6.9-65.1,20.2c-3.2,2.4-4,6.9-1.6,10.5
		C550.6,150.8,555,151.6,558.2,149.2z"/>
	<path fill="#E2161A" d="M636.2,212.6c1.2,1.6,3.2,2.4,5.3,2.4c1.6,0,3.6-0.4,4.8-1.6c3.2-2.8,3.2-7.3,0.8-10.1
		c-8.1-9.3-20.2-14.5-32.3-14.5s-23.4,4.8-31.5,13.7c-2.8,2.8-2.4,7.3,0.4,10.1c2.8,2.8,7.3,2.4,10.1-0.4c5.7-6.1,12.9-9.3,21-9.3
		S631,206.6,636.2,212.6z"/>
	<path fill="#E2161A" d="M623.7,259.1c-2.8,0.8-5.3,1.2-8.5,1.2c-3.2,0-6.1-0.4-8.5-1.2c-4-1.6-8.1,0.8-9.3,4.4
		c-1.2,3.6,0.8,7.7,4.4,8.9c4,1.2,8.5,2,12.9,2c4.8,0,8.9-0.8,12.9-2c3.6-1.2,5.7-5.3,4.8-8.5C631.4,259.9,627.3,257.9,623.7,259.1z
		"/>
	<path fill="#E2161A" d="M570.8,263.2c-2.8,2.8-3.2,7.3-0.4,10.1c11.3,12.1,27.5,19.4,44.5,19.4s33.1-7.3,44.5-19.4
		c2.8-2.8,2.4-7.3-0.4-10.1c-2.8-2.8-7.3-2.4-10.1,0.4c-8.9,9.3-21,14.5-33.9,14.5c-12.9,0-25.1-5.3-33.9-14.5
		C578,260.7,573.6,260.3,570.8,263.2z"/>
	<path fill="#E2161A" d="M662.9,193.6c-11.7-14.5-29.1-23-47.7-23c-18.2,0-35.2,8.1-46.9,21.8c-2.4,2.8-2.4,7.7,0.8,10.1
		c2.8,2.4,7.7,2.4,10.1-0.8c8.9-10.5,21.8-16.6,35.6-16.6c14.1,0,27.5,6.1,36.4,17.4c1.6,2,3.6,2.8,5.7,2.8c1.6,0,3.2-0.8,4.8-1.6
		C664.9,201.3,665.3,196.9,662.9,193.6z"/>
	<path fill="#E2161A" d="M668.2,190.8c1.6,0,3.6-0.4,4.8-1.6c3.2-2.8,3.2-7.3,0.8-10.1c-14.5-17-36.4-26.7-59-26.7
		c-11.3,0-22.2,2.4-32.3,6.9c-9.7,4.4-18.6,10.5-25.9,18.6c-2.4,2.8-2,7.7,0.8,10.5c2.8,2.8,7.3,2.4,10.1-0.4
		c5.7-6.5,12.9-11.7,21-15.4c8.5-3.6,17-5.7,26.3-5.7c18.6,0,36.4,8.1,48.5,21.8C664.9,190.4,666.5,191.2,668.2,190.8z"/>
	<path fill="#E2161A" d="M557.4,279.9c1.3-0.2,2.5-0.3,3.9-0.3c3.4,0,6.9,0.7,10,2.1c8.4,3.7,13.3,12.2,13.2,21.2
		c3.2,0.4,6.2,1.4,8.9,3c1,0.6,1.9,1.2,2.8,1.9c6,1.5,12.2,2.2,18.6,2.2c27.1,0,52.1-13.7,66.7-36.4c2-3.2,0.8-7.7-2.4-9.7
		s-7.7-0.8-9.7,2.4c-12.1,18.6-32.3,29.9-54.6,29.9s-42.4-11.3-54.6-29.9c-2-3.2-6.5-4.4-9.7-2.4c-1.9,1.1-3.1,2.8-3.4,4.7
		C551.8,271.2,555.4,275.1,557.4,279.9z"/>
	<path fill="#E2161A" d="M681.5,171.4c2.8-2.8,2.8-7.7-0.4-10.5c-17.8-17-41.2-26.3-66.3-26.3c-23.8,0-46.9,8.9-64.7,25.1
		c-2.8,2.8-2.8,7.3-0.4,10.1c2.8,2.8,7.3,2.8,10.1,0.4c15-13.7,34.8-21,55-21c21,0,41.2,8.1,56.6,22.6c1.2,1.2,3.2,2,4.8,2
		C678.3,173.8,679.9,173,681.5,171.4z"/>
	<path fill="#E2161A" d="M605.1,328.1c3.3,0.3,6.7,0.5,10.1,0.5c17.8,0,35.6-4.8,50.9-14.5c14.5-9.3,26.7-22.6,34.8-38
		c1.6-3.6,0.4-8.1-3.2-9.7c-3.6-1.6-8.1-0.4-9.7,3.2c-6.9,13.3-17.4,24.2-29.9,32.3c-12.9,8.1-27.9,12.1-43.2,12.1
		c-4.6,0-9.2-0.4-13.7-1.1c1.6,2.2,2.7,4.7,3.4,7.4C605.2,323,605.4,325.6,605.1,328.1z"/>
	<path fill="#E2161A" d="M601,339.4c2.1,0.5,4.1,1.4,6,2.4l1,0.6l0.9,0.8c1.3,1.1,2.4,2.3,3.4,3.6c0.9,0,1.7,0,2.6,0
		c22.6,0,44.1-6.5,62.2-18.6c18.2-11.7,32.7-28.3,41.6-47.7c2-3.6,0.4-8.1-3.2-9.7c-3.6-2-8.1-0.4-9.7,3.2
		c-8.1,17-20.6,31.1-36.4,41.6c-16.2,10.5-35.2,16.2-54.6,16.2c-3.4,0-6.8-0.2-10.2-0.5c-0.5,2.1-1.4,4.1-2.5,6
		C601.7,338,601.3,338.7,601,339.4z"/>
	<path fill="#E2161A" d="M617.1,364.6c24.6-0.4,48.4-7.7,69.2-21c20.6-13.3,37.6-32.3,48.1-54.6c1.6-3.6,0.4-8.1-3.2-9.7
		c-3.6-1.6-8.1-0.4-9.7,3.2c-9.3,19.8-24.2,36.4-42.8,48.5c-19,12.1-41.2,18.6-63.9,18.6c-0.2,0-0.5,0-0.7,0
		C616.7,354.2,617.7,359.4,617.1,364.6z"/>
	<path fill="#E2161A" d="M613.5,374.7c-1.6,2.4-3.3,4.8-5,7.1c2.1,0.1,4.2,0.1,6.3,0.1c55,0,105.5-29.9,132.2-78.4
		c2-3.2,0.8-7.7-2.8-9.7c-3.2-2-7.7-0.8-9.7,2.8c-23.6,43.2-68.5,70.5-117.9,71.1c-0.6,2.3-1.5,4.5-2.8,6.6L613.5,374.7z"/>
	<path fill="#E2161A" d="M742.5,346.4c-7.7,8.9-16.6,16.6-25.9,23.4c-4.8,3.6-14.5,10.5-28.3,17c-22.8,10.4-47.2,16-72.7,16.2
		c1.5,5,1.3,10.3-0.5,15c27.8,0,54.4-5.7,79.3-17.4c14.1-6.9,24.7-13.7,30.7-18.6c10.1-7.7,19.4-16.2,27.9-25.5
		c2.8-2.8,2.4-7.3-0.4-10.5C749.8,343.2,744.9,343.6,742.5,346.4z"/>
	<path fill="#E2161A" d="M609.5,392.2l0.5,0.6c2,2.3,3.5,4.8,4.6,7.4c0.1,0,0.1,0,0.2,0c55.8,0,107.9-27.5,139.4-74
		c2-3.2,1.2-7.7-1.6-10.1c-3.6-2-7.7-1.2-10.1,2c-29.1,42.4-76.8,67.9-127.7,67.9c-3.1,0-6.2-0.1-9.2-0.3c-0.6,0.8-1.2,1.6-1.8,2.4
		C605.9,389.2,607.8,390.6,609.5,392.2z"/>
	<path fill="#E2161A" d="M91.9,123.7c15.4-6.9,31.5-10.5,48.5-10.5c18.2,0,35.2,4,51.3,11.7c1.2,0.8,2.4,0.8,3.2,0.8
		c2.8,0,5.3-1.6,6.5-4c1.6-3.6,0.4-8.1-3.2-9.7c-17.8-8.5-37.2-12.9-57.4-12.9c-19,0-37.6,4-54.6,11.7c-3.6,1.6-5.3,5.7-4,9.3
		C83.8,123.7,88.3,125.3,91.9,123.7z"/>
	<path fill="#E2161A" d="M84.2,149.2c17-11.7,36.4-17.8,57-17.8c21.4,0,41.6,6.5,59,19c1.2,0.8,2.4,1.2,4,1.2c2,0,4-0.8,5.7-2.8
		c2.4-3.2,1.6-7.7-1.6-10.1c-19.8-14.1-43.2-21.8-67.5-21.8c-23.4,0-45.7,6.9-65.1,20.2c-3.2,2.4-4,6.9-1.6,10.5
		C76.6,150.8,81,151.6,84.2,149.2z"/>
	<path fill="#E2161A" d="M162.2,212.6c1.2,1.6,3.2,2.4,5.3,2.4c1.6,0,3.6-0.4,4.8-1.6c3.2-2.8,3.2-7.3,0.8-10.1
		c-8.1-9.3-20.2-14.5-32.3-14.5s-23.4,4.8-31.5,13.7c-2.8,2.8-2.4,7.3,0.4,10.1c2.8,2.8,7.3,2.4,10.1-0.4c5.7-6.1,12.9-9.3,21-9.3
		S157,206.6,162.2,212.6z"/>
	<path fill="#E2161A" d="M149.7,259.1c-2.8,0.8-5.3,1.2-8.5,1.2c-3.2,0-6.1-0.4-8.5-1.2c-4-1.6-8.1,0.8-9.3,4.4
		c-1.2,3.6,0.8,7.7,4.4,8.9c4,1.2,8.5,2,12.9,2c4.8,0,8.9-0.8,12.9-2c3.6-1.2,5.7-5.3,4.8-8.5C157.4,259.9,153.3,257.9,149.7,259.1z
		"/>
	<path fill="#E2161A" d="M96.8,263.2c-2.8,2.8-3.2,7.3-0.4,10.1c11.3,12.1,27.5,19.4,44.5,19.4s33.1-7.3,44.5-19.4
		c2.8-2.8,2.4-7.3-0.4-10.1c-2.8-2.8-7.3-2.4-10.1,0.4c-8.9,9.3-21,14.5-33.9,14.5c-12.9,0-25.1-5.3-33.9-14.5
		C104,260.7,99.6,260.3,96.8,263.2z"/>
	<path fill="#E2161A" d="M188.9,193.6c-11.7-14.5-29.1-23-47.7-23c-18.2,0-35.2,8.1-46.9,21.8c-2.4,2.8-2.4,7.7,0.8,10.1
		c2.8,2.4,7.7,2.4,10.1-0.8c8.9-10.5,21.8-16.6,35.6-16.6c14.1,0,27.5,6.1,36.4,17.4c1.6,2,3.6,2.8,5.7,2.8c1.6,0,3.2-0.8,4.8-1.6
		C190.9,201.3,191.3,196.9,188.9,193.6z"/>
	<path fill="#E2161A" d="M194.2,190.8c1.6,0,3.6-0.4,4.8-1.6c3.2-2.8,3.2-7.3,0.8-10.1c-14.5-17-36.4-26.7-59-26.7
		c-11.3,0-22.2,2.4-32.3,6.9c-9.7,4.4-18.6,10.5-25.9,18.6c-2.4,2.8-2,7.7,0.8,10.5c2.8,2.8,7.3,2.4,10.1-0.4
		c5.7-6.5,12.9-11.7,21-15.4c8.5-3.6,17-5.7,26.3-5.7c18.6,0,36.4,8.1,48.5,21.8C190.9,190.4,192.5,191.2,194.2,190.8z"/>
	<path fill="#E2161A" d="M171.3,302.9c0-2.5,0.3-5.1,1.1-7.5c2-6.2,6.3-11.1,12.1-13.7c3-1.3,6.2-2,9.6-2c1.5,0,2.9,0.1,4.3,0.4
		c1.8-4.7,5.2-8.7,10-11.3c-0.4-2-1.5-3.8-3.3-4.9c-3.2-2-7.7-0.8-9.7,2.4c-12.1,18.6-32.3,29.9-54.6,29.9S98.4,285,86.3,266.4
		c-2-3.2-6.5-4.4-9.7-2.4c-3.6,2-4.4,6.5-2.4,9.7c15,22.6,39.6,36.4,66.7,36.4c6.4,0,12.7-0.8,18.8-2.3c0.9-0.7,1.9-1.4,3-2
		C165.4,304.3,168.3,303.3,171.3,302.9z"/>
	<path fill="#E2161A" d="M207.5,171.4c2.8-2.8,2.8-7.7-0.4-10.5c-17.8-17-41.2-26.3-66.3-26.3c-23.8,0-46.9,8.9-64.7,25.1
		c-2.8,2.8-2.8,7.3-0.4,10.1c2.8,2.8,7.3,2.8,10.1,0.4c15-13.7,34.8-21,55-21c21,0,41.2,8.1,56.6,22.6c1.2,1.2,3.2,2,4.8,2
		C204.3,173.8,205.9,173,207.5,171.4z"/>
	<path fill="#E2161A" d="M151.3,320.4c0.7-2.7,1.9-5.2,3.4-7.4c-4.6,0.8-9.2,1.1-13.9,1.1c-15.4,0-30.3-4-43.2-12.1
		c-12.9-8.1-23-19-29.9-32.3c-1.6-3.6-6.1-4.8-9.7-3.2c-3.6,2-4.8,6.5-2.4,9.7c7.7,15.8,19.8,28.7,34.8,38
		c15.4,9.7,32.7,14.5,50.9,14.5c3.2,0,6.3-0.2,9.4-0.5C150.4,325.6,150.6,323,151.3,320.4z"/>
	<path fill="#E2161A" d="M148.5,342.5c1.9-1.4,4.1-2.5,6.3-3.2c-0.4-0.6-0.7-1.3-1.1-1.9c-1.1-1.9-2-3.9-2.5-6
		c-3.4,0.4-6.9,0.5-10.4,0.5c-19.4,0-38.4-5.7-54.6-16.2C70.5,305.6,58,291,49.9,274.1c-1.6-3.2-6.1-4.8-9.7-3.2s-4.8,5.7-3.2,9.7
		c9.3,19.4,23.4,36,41.6,47.7c18.6,12.1,39.6,18.6,62.2,18.6c1,0,1.9,0,2.9-0.1C145.1,345.2,146.7,343.7,148.5,342.5z"/>
	<path fill="#E2161A" d="M138.4,357.9c0.5-3,1.6-5.7,3.2-8.3c-0.2,0-0.5,0-0.7,0c-22.6,0-44.9-6.5-63.9-18.6
		c-18.6-11.7-33.1-28.7-42.8-48.5c-1.6-3.2-6.1-4.8-9.7-3.2s-4.8,6.1-3.2,9.7c10.9,22.2,27.1,41.2,48.1,54.6
		c20.7,13.3,44.4,20.5,69,21C138,362.4,138,360.1,138.4,357.9z"/>
	<path fill="#E2161A" d="M138.9,367.8c-49.4-0.7-94.2-27.6-117.7-71.1c-2-3.6-6.1-4.8-9.7-2.8c-3.6,2-4.8,6.5-2.8,9.7
		C34.9,352.1,85.9,382,140.8,382c2.2,0,4.3-0.1,6.5-0.2c-1.6-2.3-3.3-4.6-4.9-6.9C140.8,372.7,139.7,370.3,138.9,367.8z"/>
	<path fill="#E2161A" d="M139.4,403c-25.3-0.2-49.5-5.4-72.1-16.1c-14.1-6.5-23.8-13.3-28.3-17c-9.7-6.9-18.2-15-26.3-23.8
		c-2.8-2.8-7.3-2.8-10.1-0.4c-2.8,2.8-2.8,7.3-0.4,10.1c8.5,9.7,17.8,18.2,28.3,25.9c6.1,4.8,16.2,12.1,30.7,18.6
		c25.1,11.7,51.7,17.8,79.6,17.8c0,0,0,0,0,0C138.7,413.2,138.3,407.9,139.4,403z"/>
	<path fill="#E2161A" d="M146.3,391c1.6-1.4,3.4-2.5,5.3-3.4c-0.5-0.6-0.9-1.2-1.4-1.9c-3.1,0.2-6.2,0.3-9.4,0.3
		c-50.9,0-98.6-25.5-127.3-67.9c-2.4-3.6-6.9-4.4-10.1-2c-3.6,2.4-4.4,6.9-2,10.1c31.4,46.3,83.3,73.8,138.9,73.9
		c1.1-3.1,2.9-6.1,5.4-8.6L146.3,391z"/>
</g>
</svg>
