<?xml version="1.0" encoding="utf-8"?>
<!-- Generator: Adobe Illustrator 19.2.0, SVG Export Plug-In . SVG Version: 6.00 Build 0)  -->
<svg version="1.1" id="Layer_1" xmlns="http://www.w3.org/2000/svg" xmlns:xlink="http://www.w3.org/1999/xlink" x="0px" y="0px"
	 viewBox="0 0 12.8 12.8" style="enable-background:new 0 0 12.8 12.8;" xml:space="preserve">
<style type="text/css">
	.st0{clip-path:url(#SVGID_2_);fill:#AEAEAE;}
</style>
<g>
	<g>
		<defs>
			<rect id="SVGID_1_" x="2.4" width="7.9" height="13"/>
		</defs>
		<clipPath id="SVGID_2_">
			<use xlink:href="#SVGID_1_"  style="overflow:visible;"/>
		</clipPath>
		<path class="st0" d="M2.4,0v12.8h3.2v-2.4h1.6v2.4h3.2V0H2.4z M4.8,9.6H3.2V8h1.6V9.6z M4.8,7.2H3.2V5.6h1.6V7.2z M4.8,4.8H3.2
			V3.2h1.6V4.8z M4.8,2.4H3.2V0.8h1.6V2.4z M7.2,9.6H5.6V8h1.6V9.6z M7.2,7.2H5.6V5.6h1.6V7.2z M7.2,4.8H5.6V3.2h1.6V4.8z M7.2,2.4
			H5.6V0.8h1.6V2.4z M9.6,9.6H8V8h1.6V9.6z M9.6,7.2H8V5.6h1.6V7.2z M9.6,4.8H8V3.2h1.6V4.8z M9.6,2.4H8V0.8h1.6V2.4z M9.6,2.4"/>
	</g>
</g>
</svg>
