<?xml version="1.0" encoding="utf-8"?>
<!-- Generator: Adobe Illustrator 18.1.1, SVG Export Plug-In . SVG Version: 6.00 Build 0)  -->
<!DOCTYPE svg PUBLIC "-//W3C//DTD SVG 1.1//EN" "http://www.w3.org/Graphics/SVG/1.1/DTD/svg11.dtd">
<svg version="1.1" id="Calque_1" xmlns="http://www.w3.org/2000/svg" xmlns:xlink="http://www.w3.org/1999/xlink" x="0px" y="0px"
	 width="100px" height="82.7px" viewBox="-339 251 100 82.7" enable-background="new -339 251 100 82.7" xml:space="preserve">
<g>
	<g>

			<linearGradient id="SVGID_1_" gradientUnits="userSpaceOnUse" x1="-146.0228" y1="1283.3041" x2="-146.0228" y2="1212.2549" gradientTransform="matrix(0.9397 -0.342 0.342 0.9397 -593.7416 -930.1549)">
			<stop  offset="0" style="stop-color:#850015"/>
			<stop  offset="1" style="stop-color:#BF0020"/>
		</linearGradient>
		<path fill="url(#SVGID_1_)" d="M-270.5,317.8l-43.2,15.7c-0.7,0.2-1.7-0.1-1.9-0.9l-23.3-63.9c-0.2-0.7,0.1-1.7,0.9-1.9l43.2-15.7
			c0.7-0.2,1.7,0.1,1.9,0.9l23.3,63.8C-269.3,316.7-269.7,317.5-270.5,317.8z"/>
	</g>
	<g opacity="0.9">

			<linearGradient id="SVGID_2_" gradientUnits="userSpaceOnUse" x1="-99.1422" y1="1103.474" x2="-99.1422" y2="1032.4248" gradientTransform="matrix(0.9397 -0.342 0.342 0.9397 -561.1153 -745.122)">
			<stop  offset="0" style="stop-color:#BF0015"/>
			<stop  offset="1" style="stop-color:#FF2A42"/>
		</linearGradient>
		<path fill="url(#SVGID_2_)" d="M-255.2,317.8l-43.2,15.7c-0.7,0.2-1.7-0.1-1.9-0.9l-23.3-63.9c-0.2-0.7,0.1-1.7,0.9-1.9l43.2-15.7
			c0.7-0.2,1.7,0.1,1.9,0.9l23.2,63.9C-254.1,316.7-254.4,317.5-255.2,317.8z"/>
	</g>
	<g opacity="0.9">

			<linearGradient id="SVGID_3_" gradientUnits="userSpaceOnUse" x1="6.8646" y1="900.9005" x2="6.8646" y2="829.8796" gradientTransform="matrix(0.9397 -0.342 0.342 0.9397 -576.1752 -518.5312)">
			<stop  offset="0" style="stop-color:#FF3F3E"/>
			<stop  offset="1" style="stop-color:#FF6A5F"/>
		</linearGradient>
		<path fill="url(#SVGID_3_)" d="M-240,317.8l-43.2,15.7c-0.7,0.2-1.7-0.1-1.9-0.9l-23.2-63.9c-0.2-0.7,0.1-1.7,0.9-1.9l43.2-15.7
			c0.7-0.2,1.7,0.1,1.9,0.9l23.2,63.9C-238.8,316.7-239.2,317.5-240,317.8z"/>
		<g opacity="0.2">
			<path fill="#FFFFFF" d="M-264.1,291.5L-264.1,291.5c-0.5,0.1-0.9-0.2-1-0.6c-0.1-0.3-0.2-0.6-0.2-0.9c-1.5-4.2-6.1-6.4-10.3-4.8
				c-1.3,0.5-2.6,1.3-3.5,2.4c-0.2,0.3-0.7,0.3-1.1,0.1c-0.3-0.2-0.3-0.7-0.1-1.1c1.1-1.3,2.5-2.3,4.1-2.9c2.4-0.9,5-0.7,7.4,0.3
				c2.3,1.1,4.1,3,5,5.5c0.2,0.3,0.2,0.7,0.3,1.1C-263.5,290.9-263.8,291.3-264.1,291.5z M-277.8,298.7c-0.4,0.2-0.8-0.1-1-0.5
				l-1.2-3.1c-1.4-3.8,0.6-8,4.4-9.3c0.4-0.2,0.7-0.2,1.2-0.3c0.4-0.1,0.8,0.2,0.9,0.6c0.1,0.4-0.2,0.8-0.6,0.9
				c-0.3,0.1-0.7,0.2-1,0.2c-3,1.1-4.5,4.4-3.5,7.4l1.2,3.1C-277.2,298.2-277.4,298.7-277.8,298.7z M-265.5,294.4
				c-0.4,0.2-0.8-0.1-1-0.5l-1.2-3.1c-0.7-1.8-2.1-3.1-4-3.6c-0.4-0.1-0.7-0.5-0.6-0.9s0.5-0.7,0.9-0.6c2.3,0.6,4.2,2.3,5,4.5
				l1.2,3.1C-264.9,293.8-265.2,294.2-265.5,294.4z M-267,296.7c-0.4,0.2-0.8-0.1-1-0.5l-1.7-4.7c-0.7-1.8-2.6-2.7-4.5-2.1
				s-2.7,2.6-2.1,4.5l1.7,4.7c0.2,0.4-0.1,0.8-0.4,1c-0.4,0.2-0.8-0.1-1-0.5l-1.7-4.7c-0.9-2.6,0.4-5.5,3-6.4s5.5,0.4,6.4,3l1.7,4.7
				C-266.4,296.1-266.6,296.6-267,296.7z M-281.5,288.6c0.4-0.2,0.8,0.1,1,0.5c0.2,0.4-0.1,0.8-0.5,1c-0.4,0.2-0.8-0.1-1-0.5
				C-282.1,289.2-281.8,288.8-281.5,288.6z"/>
		</g>
	</g>
</g>
</svg>
