<?xml version="1.0" encoding="utf-8"?>
<!-- Generator: Adobe Illustrator 18.1.1, SVG Export Plug-In . SVG Version: 6.00 Build 0)  -->
<!DOCTYPE svg PUBLIC "-//W3C//DTD SVG 1.1//EN" "http://www.w3.org/Graphics/SVG/1.1/DTD/svg11.dtd">
<svg version="1.1" id="Calque_1" xmlns="http://www.w3.org/2000/svg" xmlns:xlink="http://www.w3.org/1999/xlink" x="0px" y="0px"
	 viewBox="0 0 749.3 386.4" enable-background="new 0 0 749.3 386.4" xml:space="preserve">
<g>
	<path fill="#E21417" d="M95.3,385.2h-8.5V345c0-11.9-2.5-23.5-17.7-23.5c-14.7,0-17.3,13.3-17.3,24.6v39.1h-8.6V345
		c0-11.9-2.8-23.5-17.9-23.5c-8.2,0-16.7,7-16.7,15.4v48.3H0v-70.9h7.5l0.1,9.4c4.3-7.8,12.2-10.7,17.9-10.7
		c9.9,0,17.6,3.8,22.4,14.4C51.9,317,59.9,313,68.9,313c19.5,0,26.2,13.6,26.2,32v40.2H95.3z"/>
	<path fill="#E21417" d="M147.7,386.4c-22.8,0-30.4-15.8-30.4-36.5c0-21,7.7-36.8,30.4-36.8c22.6,0,30.4,15.8,30.4,36.8
		C178.2,370.6,170.4,386.4,147.7,386.4z M147.7,321.5c-18.4,0-21.6,14.1-21.6,28.4c0,14.3,3.3,28.2,21.6,28.2
		c18.2,0,21.6-14,21.6-28.2C169.4,335.5,166.1,321.5,147.7,321.5z"/>
	<path fill="#E21417" d="M229.5,386.4c-6.9,0-15.4-1.9-20.1-10.4l-0.3,9.1h-7.3V282.8h8.7v40.4c5.2-8.2,13-10,19.4-10
		c21.8,0,28.4,17.2,28.4,36.7C258.2,369.4,251.6,386.4,229.5,386.4z M229.4,321.5c-10.3,0-18.9,6.5-18.9,17.3v22.1
		c0,10.8,8.8,17.2,18.9,17.2c17.9,0,20.3-15.4,20.3-28.3C249.6,337,247.2,321.5,229.4,321.5z"/>
	<path fill="#E21417" d="M287.9,294.9c-3.7,0-6.6-3-6.6-6.7s2.9-6.6,6.6-6.6c3.8,0,6.9,2.9,6.9,6.6S291.7,294.9,287.9,294.9z
		 M292.1,385.2h-8.7v-70.9h8.7V385.2z"/>
	<path fill="#E21417" d="M378.2,385.2h-8.7v-40.1c0-13.5-4.3-23.6-20.3-23.6c-10.8,0-18.9,8.7-18.9,16.9v46.8h-8.7v-70.9h7.5
		l0.3,9.4c4.8-7.8,13.2-10.7,20.1-10.7c20.6,0,28.6,12.6,28.6,32V385.2z"/>
	<path fill="#E21417" d="M429.8,321.9h-12.1v46c0,7.2,2.6,9.5,9.7,9.7v7.7h-3c-10.7,0-15.2-7-15.2-16.9v-46.4h-10.4v-7.7h10.4v-21
		h8.7v21h12.1v7.7H429.8z"/>
	<path fill="#E21417" d="M480.3,386.4c-22.8,0-30.4-15.8-30.4-36.5c0-21,7.7-36.8,30.4-36.8c22.6,0,30.4,15.8,30.4,36.8
		C510.7,370.6,502.9,386.4,480.3,386.4z M480.3,321.5c-18.4,0-21.6,14.1-21.6,28.4c0,14.3,3.3,28.2,21.6,28.2
		c18.2,0,21.6-14,21.6-28.2C501.9,335.5,498.6,321.5,480.3,321.5z"/>
	<path fill="#E21417" d="M589.3,385.2h-7.5l-0.3-8.7c-6,7.3-13.5,9.9-20.1,9.9c-20.4,0-28.6-10.8-28.6-30.6v-41.4h8.7v40.9
		c0,13.7,4,22.8,20.1,22.8c8.2,0,19.1-6,19.1-15.9v-47.7h8.7v70.9H589.3z"/>
	<path fill="#E21417" d="M662.9,329.7c-5-5.2-10.1-8.7-18.2-8.7c-17.9,0-23.2,14.3-23.2,28.8c0,14.4,5.2,28.6,23.2,28.6
		c8.1,0,13.2-3.4,18.2-8.7l6.2,5.6c-7.2,7.7-13.5,11-24.3,11c-21.6,0-32.3-16.2-32.3-36.5c0-20.6,10.7-36.8,32.3-36.8
		c10.8,0,17.3,3.7,24.3,11.1L662.9,329.7z"/>
	<path fill="#E21417" d="M749.3,385.2h-8.7v-40.4c0-13.3-4.4-23.3-20.3-23.3c-8.5,0-18.9,6.5-18.9,16.2v47.5h-8.7V282.8h8.7v40.5
		c4.3-7.5,12.9-10.3,19.8-10.3c19.9,0,28,12.9,28,31.8L749.3,385.2L749.3,385.2z"/>
</g>
<path fill="#E21417" d="M374.7,0c-57.9,0-104.9,47-104.9,104.9s47,104.9,104.9,104.9s104.9-47,104.9-104.9S432.6,0,374.7,0z
	 M327,75.2c2.6,0,4.7,2.1,4.7,4.7c0,2.6-2.1,4.7-4.7,4.7s-4.7-2.1-4.7-4.7C322.3,77.3,324.4,75.2,327,75.2z M331.5,137.1
	c0,2.6-2.1,4.7-4.7,4.7s-4.7-2.1-4.7-4.7v-20.5c0-25,20.5-45.2,45.4-45.2c2.5,0,5.1,0.2,7.7,0.6c2.6,0.4,4.4,2.9,3.9,5.5
	s-2.8,4.3-5.5,3.9c-2-0.3-4.2-0.5-6.2-0.5c-19.7,0-36,16.1-36,35.7v20.6H331.5z M398.7,147.8c0,2.6-2.1,4.7-4.7,4.7
	s-4.7-2.1-4.7-4.7v-31.1c0-11.9-9.7-21.4-21.5-21.4s-21.5,9.7-21.5,21.4v31.1c0,2.6-2.1,4.7-4.7,4.7s-4.7-2.1-4.7-4.7v-31.1
	c0-17.1,13.9-31,31-31s31,13.9,31,31V147.8z M412.3,137.1c0,2.6-2.1,4.7-4.7,4.7s-4.7-2.1-4.7-4.7v-20.5c0-11.8-5.7-22.8-15.4-29.5
	c-2.2-1.5-2.6-4.4-1.2-6.6c1.5-2.2,4.3-2.7,6.4-1.3c12.4,8.5,19.5,22.5,19.5,37.4v20.5H412.3z M426.8,123.7
	c-0.3,2.4-2.3,4.2-4.7,4.2c-0.2,0-0.4,0-0.5,0c-2.6-0.3-4.5-2.6-4.2-5.2c0.2-1.9,0.3-3.9,0.3-5.9c0-27.6-22.5-50.1-50.1-50.1
	c-8.9,0-17.6,2.4-25.3,6.8c-2.3,1.4-5.1,0.5-6.5-1.7c-1.4-2.3-0.5-5.1,1.7-6.5c9.1-5.4,19.5-8.2,30.1-8.2c15.9,0,30.8,6.2,42.1,17.4
	s17.4,26.2,17.4,42.1C427.2,119.1,427,121.4,426.8,123.7z"/>
</svg>
