<?xml version="1.0" encoding="utf-8"?>
<!-- Generator: Adobe Illustrator 17.1.0, SVG Export Plug-In . SVG Version: 6.00 Build 0)  -->
<!DOCTYPE svg PUBLIC "-//W3C//DTD SVG 1.1//EN" "http://www.w3.org/Graphics/SVG/1.1/DTD/svg11.dtd">
<svg version="1.1" id="Layer_1" xmlns="http://www.w3.org/2000/svg" xmlns:xlink="http://www.w3.org/1999/xlink" x="0px" y="0px"
	 viewBox="0 0 215.739 65.688" enable-background="new 0 0 215.739 65.688" xml:space="preserve">
<path fill="#FFFFFF" d="M23.397,12.527v45.891c0,4.824-2.399,7.246-7.2,7.271l-8.998-0.036L0,54.89h7.199
	c2.399,0,3.6-1.21,3.6-3.636V12.527H23.397z M23.397,8.998H10.799V0h12.599V8.998z M67.267,51.291H36.67
	c-4.798,0-7.199-2.398-7.199-7.199V33.295c0-4.197,2.401-6.299,7.199-6.299h17.996c0-2.398-1.197-5.236-3.597-5.236H29.471v-9.162
	h31.027c4.512,0,6.769,2.402,6.769,7.199V51.291z M54.666,35.494H43.869c-1.198,0-1.799,1.07-1.799,3.2
	c0,2.13,0.3,3.196,0.899,3.196h11.696V35.494z M172.55,19.834v24.258c-0.025,4.801-2.438,7.199-7.236,7.199h-17.961v14.397h-12.598
	V12.598h30.596C170.149,12.598,172.55,15.01,172.55,19.834z M156.352,23.395h-8.999v17.098h8.964c2.397,0,3.612-1.199,3.635-3.6
	v-9.861C159.951,24.606,158.751,23.395,156.352,23.395z M215.739,19.834v24.258c-0.024,4.801-2.436,7.199-7.233,7.199h-17.962
	v14.397h-12.597V12.598h30.594C213.341,12.598,215.739,15.01,215.739,19.834z M199.544,23.395h-9v17.098h8.963
	c2.398,0,3.613-1.199,3.637-3.6v-9.861C203.143,24.606,201.942,23.395,199.544,23.395z M122.157-0.275
	c4.774,0,7.173,2.401,7.199,7.199v31.494h-12.598V14.121c0-2.399-1.214-3.599-3.637-3.599h-5.362v27.896H95.162l-0.037-27.896h-8.96
	v27.896H73.6L73.566-0.275H122.157z"/>
</svg>
