<?xml version="1.0" encoding="utf-8"?>
<!-- Generator: Adobe Illustrator 18.1.1, SVG Export Plug-In . SVG Version: 6.00 Build 0)  -->
<!DOCTYPE svg PUBLIC "-//W3C//DTD SVG 1.1//EN" "http://www.w3.org/Graphics/SVG/1.1/DTD/svg11.dtd">
<svg version="1.1" id="Calque_1" xmlns="http://www.w3.org/2000/svg" xmlns:xlink="http://www.w3.org/1999/xlink" x="0px" y="0px"
	 viewBox="0 0 147.6 31.2" enable-background="new 0 0 147.6 31.2" xml:space="preserve">
<g>
	<path fill-rule="evenodd" clip-rule="evenodd" fill="#52070B" d="M59.9,7.9c-1.2,0-2.4,0.3-3.4,0.9c-1,0.6-1.9,1.5-2.5,2.5
		c-0.6,1.1-0.9,2.3-0.9,3.5c0,1.2,0.3,2.4,0.9,3.5c0.6,1.1,1.5,2,2.5,2.6c1,0.6,2.2,0.9,3.4,0.9c1.2,0,2.4-0.3,3.4-0.9
		c1.1-0.6,1.9-1.4,2.5-2.5c0.6-1,0.9-2.2,0.9-3.5c0-2-0.6-3.6-2-5C63.4,8.6,61.8,7.9,59.9,7.9 M59.6,25c-2.7,0-5.1-1-7-3
		c-1.9-2-2.9-4.4-2.9-7.2c0-2.8,1-5.2,2.9-7.1c1.9-2,4.3-3,7.1-3c1.6,0,3,0.3,4.3,1c0.9,0.5,1.7,1.1,2.5,1.9V5.1h3.3v19.4h-3.3v-2.4
		c-0.8,0.8-1.7,1.4-2.6,1.9C62.6,24.6,61.2,25,59.6,25"/>
	<path fill-rule="evenodd" clip-rule="evenodd" fill="#52070B" d="M84.2,7.9c-1.9,0-3.5,0.7-4.8,2c-1.3,1.3-2,3-2,5
		c0,1.3,0.3,2.5,0.9,3.5c0.6,1,1.4,1.9,2.5,2.5c1.1,0.6,2.2,0.9,3.4,0.9c1.2,0,2.3-0.3,3.3-0.9c1-0.6,1.9-1.5,2.5-2.6
		c0.6-1.1,0.9-2.3,0.9-3.5c0-1.2-0.3-2.4-0.9-3.5c-0.6-1.1-1.4-1.9-2.5-2.5C86.5,8.2,85.4,7.9,84.2,7.9 M74.2,31.2V5.1h3.3v2.5
		c0.8-0.8,1.6-1.5,2.5-2c1.3-0.7,2.7-1,4.3-1c2.7,0,5.1,1,7,3c1.9,2,2.9,4.4,2.9,7.1c0,2.8-1,5.3-2.9,7.2c-1.9,2-4.3,3-7,3
		c-1.5,0-3-0.3-4.3-1c-0.9-0.5-1.8-1.1-2.6-1.9v9.1H74.2z"/>
	<path fill-rule="evenodd" clip-rule="evenodd" fill="#52070B" d="M107.8,7.9c-1.9,0-3.5,0.7-4.8,2c-1.3,1.3-2,3-2,5
		c0,1.3,0.3,2.5,0.9,3.5c0.6,1,1.4,1.9,2.5,2.5c1.1,0.6,2.2,0.9,3.4,0.9c1.2,0,2.3-0.3,3.3-0.9c1-0.6,1.9-1.5,2.5-2.6
		c0.6-1.1,0.9-2.3,0.9-3.5c0-1.2-0.3-2.4-0.9-3.5c-0.6-1.1-1.4-1.9-2.5-2.5C110.1,8.2,109,7.9,107.8,7.9 M97.8,31.2V5.1h3.3v2.5
		c0.8-0.8,1.6-1.5,2.5-2c1.3-0.7,2.7-1,4.3-1c2.7,0,5.1,1,7,3c1.9,2,2.9,4.4,2.9,7.1c0,2.8-1,5.3-2.9,7.2c-1.9,2-4.3,3-7,3
		c-1.5,0-3-0.3-4.3-1c-0.9-0.5-1.8-1.1-2.6-1.9v9.1H97.8z"/>
	<rect x="121" y="5.1" fill="#52070B" width="3.3" height="19.4"/>
	<path fill-rule="evenodd" clip-rule="evenodd" fill="#52070B" d="M137.7,7.9c-1.2,0-2.4,0.3-3.4,0.9c-1,0.6-1.9,1.5-2.5,2.5
		c-0.6,1.1-0.9,2.3-0.9,3.5c0,1.2,0.3,2.4,0.9,3.5c0.6,1.1,1.5,2,2.5,2.6c1,0.6,2.2,0.9,3.4,0.9c1.2,0,2.4-0.3,3.4-0.9
		c1.1-0.6,1.9-1.4,2.5-2.5c0.6-1,0.9-2.2,0.9-3.5c0-2-0.6-3.6-2-5C141.2,8.6,139.6,7.9,137.7,7.9 M137.4,25c-2.7,0-5.1-1-7-3
		c-1.9-2-2.9-4.4-2.9-7.2c0-2.8,1-5.2,2.9-7.1c1.9-2,4.3-3,7.1-3c1.6,0,3,0.3,4.3,1c0.9,0.5,1.7,1.1,2.5,1.9V5.1h3.3v19.4h-3.3v-2.4
		c-0.8,0.8-1.7,1.4-2.6,1.9C140.4,24.6,138.9,25,137.4,25"/>
	<path fill="#52070B" d="M124.4,0.7c0-0.4-0.3-0.7-0.7-0.7h-1.9c-0.4,0-0.7,0.3-0.7,0.7v1.9c0,0.4,0.3,0.7,0.7,0.7h1.9
		c0.4,0,0.7-0.3,0.7-0.7V0.7z"/>
	<path fill="#52070B" d="M41.3,24H31.1c-0.2,0-0.5,0-0.7,0.1c-0.2,0-0.4,0.1-0.6,0.2c-0.2,0.1-0.3,0.2-0.4,0.3
		c-0.1,0.1-0.1,0.2-0.2,0.3l-0.2,5.3c0,0.1,0,0.3,0.1,0.4c0.1,0.1,0.2,0.2,0.4,0.3c0.2,0.1,0.4,0.2,0.6,0.2c0.2,0,0.5,0.1,0.8,0.1
		h11.4c0.3,0,0.5,0,0.8-0.1c0.2-0.1,0.4-0.1,0.6-0.2c0.2-0.1,0.3-0.2,0.4-0.3c0.1-0.1,0.1-0.3,0.1-0.4l-1-5.3c0-0.1-0.1-0.2-0.2-0.3
		c-0.1-0.1-0.3-0.2-0.4-0.3c-0.2-0.1-0.4-0.1-0.6-0.2C41.7,24,41.5,24,41.3,24"/>
	<path fill="#52070B" d="M14,20.6H7.4c-0.2,0-0.4,0-0.5,0c-0.2,0-0.3,0.1-0.5,0.1C6.2,20.8,6.1,20.9,6,21c-0.1,0.1-0.2,0.2-0.2,0.2
		l-1.4,3.1c0,0.1,0,0.2,0,0.3c0,0.1,0.1,0.2,0.2,0.2C4.7,24.9,4.8,24.9,5,25C5.1,25,5.3,25,5.5,25h7.1c0.2,0,0.4,0,0.6-0.1
		c0.2,0,0.4-0.1,0.5-0.1c0.1-0.1,0.3-0.1,0.4-0.2c0.1-0.1,0.2-0.2,0.2-0.3l0.9-3.1c0-0.1,0-0.2,0-0.2c0-0.1-0.1-0.1-0.2-0.2
		c-0.1-0.1-0.2-0.1-0.4-0.1C14.3,20.6,14.1,20.6,14,20.6"/>
	<path fill="#52070B" d="M33.4,18.9h-6.4c-0.2,0-0.4,0-0.5,0c-0.2,0-0.3,0.1-0.4,0.1c-0.1,0.1-0.2,0.1-0.3,0.2
		c-0.1,0.1-0.1,0.1-0.1,0.2l-0.3,3c0,0.1,0,0.2,0.1,0.3c0.1,0.1,0.2,0.1,0.3,0.2c0.1,0.1,0.3,0.1,0.4,0.1c0.2,0,0.4,0.1,0.5,0.1h6.9
		c0.2,0,0.4,0,0.5-0.1c0.2,0,0.3-0.1,0.4-0.1c0.1-0.1,0.2-0.1,0.3-0.2c0.1-0.1,0.1-0.2,0.1-0.3l-0.2-3c0-0.1,0-0.2-0.1-0.2
		s-0.2-0.1-0.3-0.2c-0.1-0.1-0.3-0.1-0.4-0.1C33.8,18.9,33.6,18.9,33.4,18.9"/>
	<path fill="#52070B" d="M10.9,25.8H3.7c-0.2,0-0.4,0-0.6,0.1c-0.2,0-0.4,0.1-0.5,0.2c-0.2,0.1-0.3,0.1-0.4,0.2
		c-0.1,0.1-0.2,0.2-0.3,0.3L0,30.4C0,30.5,0,30.6,0,30.7c0,0.1,0.1,0.2,0.2,0.3c0.1,0.1,0.3,0.1,0.4,0.2c0.2,0,0.4,0.1,0.6,0.1h7.8
		c0.2,0,0.4,0,0.6-0.1c0.2,0,0.4-0.1,0.6-0.2c0.2-0.1,0.3-0.2,0.4-0.3c0.1-0.1,0.2-0.2,0.2-0.3l1.2-3.8c0-0.1,0-0.2,0-0.3
		c0-0.1-0.1-0.2-0.2-0.2c-0.1-0.1-0.3-0.1-0.4-0.2C11.3,25.8,11.1,25.8,10.9,25.8"/>
	<path fill="#52070B" d="M23.1,22.4h-5.6c-0.2,0-0.3,0-0.4,0c-0.1,0-0.3,0.1-0.4,0.1c-0.1,0-0.2,0.1-0.3,0.2
		c-0.1,0.1-0.1,0.1-0.1,0.2l-0.7,2.7c0,0.1,0,0.1,0,0.2c0,0.1,0.1,0.1,0.2,0.2c0.1,0.1,0.2,0.1,0.3,0.1c0.1,0,0.3,0,0.4,0h5.9
		c0.2,0,0.3,0,0.5,0c0.1,0,0.3-0.1,0.4-0.1c0.1,0,0.2-0.1,0.3-0.2c0.1-0.1,0.1-0.1,0.1-0.2l0.3-2.7c0-0.1,0-0.1-0.1-0.2
		c0-0.1-0.1-0.1-0.2-0.2c-0.1,0-0.2-0.1-0.3-0.1C23.4,22.4,23.3,22.4,23.1,22.4"/>
	<path fill="#52070B" d="M16.6,16.8h-5c-0.1,0-0.3,0-0.4,0c-0.1,0-0.2,0-0.3,0.1c-0.1,0-0.2,0.1-0.3,0.1c-0.1,0-0.1,0.1-0.1,0.2
		l-0.9,2.2c0,0.1,0,0.1,0,0.2c0,0.1,0.1,0.1,0.2,0.1c0.1,0,0.2,0.1,0.3,0.1c0.1,0,0.2,0,0.4,0h5.3c0.1,0,0.3,0,0.4,0
		c0.1,0,0.3-0.1,0.4-0.1c0.1,0,0.2-0.1,0.3-0.1c0.1-0.1,0.1-0.1,0.1-0.2l0.6-2.2c0-0.1,0-0.1,0-0.2c0,0-0.1-0.1-0.2-0.1
		c-0.1,0-0.2-0.1-0.3-0.1C16.9,16.8,16.7,16.8,16.6,16.8"/>
	<path fill="#52070B" d="M25.6,15.4h-4.9c-0.1,0-0.3,0-0.4,0c-0.1,0-0.2,0-0.3,0.1c-0.1,0-0.2,0.1-0.2,0.1c-0.1,0-0.1,0.1-0.1,0.2
		l-0.5,2.1c0,0.1,0,0.1,0,0.2c0,0.1,0.1,0.1,0.2,0.1c0.1,0,0.2,0.1,0.3,0.1c0.1,0,0.2,0,0.4,0h5.2c0.1,0,0.3,0,0.4,0
		c0.1,0,0.2-0.1,0.3-0.1c0.1,0,0.2-0.1,0.2-0.1c0.1-0.1,0.1-0.1,0.1-0.2l0.2-2.1c0-0.1,0-0.1-0.1-0.2c0,0-0.1-0.1-0.2-0.1
		c-0.1,0-0.2-0.1-0.3-0.1C25.9,15.4,25.8,15.4,25.6,15.4"/>
	<path fill="#52070B" d="M41.1,16.2h-5c-0.1,0-0.3,0-0.4,0c-0.1,0-0.2,0-0.3,0.1c-0.1,0-0.2,0.1-0.2,0.1c0,0-0.1,0.1-0.1,0.2
		l0.2,2.2c0,0.1,0,0.1,0.1,0.2c0.1,0.1,0.1,0.1,0.2,0.1c0.1,0,0.2,0.1,0.3,0.1c0.1,0,0.3,0,0.4,0h5.3c0.1,0,0.3,0,0.4,0
		c0.1,0,0.2-0.1,0.3-0.1c0.1,0,0.1-0.1,0.2-0.1c0-0.1,0.1-0.1,0-0.2l-0.5-2.2c0-0.1-0.1-0.1-0.1-0.2c-0.1,0-0.1-0.1-0.2-0.1
		c-0.1,0-0.2-0.1-0.3-0.1C41.4,16.2,41.2,16.2,41.1,16.2"/>
	<path fill="#52070B" d="M32.6,12h-4.6c-0.1,0-0.2,0-0.4,0c-0.1,0-0.2,0-0.3,0.1c-0.1,0-0.2,0.1-0.2,0.1c0,0-0.1,0.1-0.1,0.1
		L27,14.1c0,0.1,0,0.1,0.1,0.1c0,0,0.1,0.1,0.2,0.1c0.1,0,0.2,0.1,0.3,0.1c0.1,0,0.2,0,0.4,0h4.8c0.1,0,0.3,0,0.4,0
		c0.1,0,0.2,0,0.3-0.1c0.1,0,0.1-0.1,0.2-0.1c0,0,0.1-0.1,0.1-0.1l-0.1-1.8c0,0,0-0.1-0.1-0.1c0,0-0.1-0.1-0.2-0.1
		c-0.1,0-0.2-0.1-0.3-0.1C32.9,12,32.8,12,32.6,12"/>
	<path fill="#52070B" d="M25.6,10.4H22c-0.1,0-0.2,0-0.2,0c-0.1,0-0.1,0-0.2,0c-0.1,0-0.1,0-0.1,0.1c0,0-0.1,0.1-0.1,0.1L21,12
		c0,0,0,0.1,0,0.1c0,0,0.1,0.1,0.1,0.1c0.1,0,0.1,0,0.2,0.1s0.2,0,0.2,0h3.8c0.1,0,0.2,0,0.3,0c0.1,0,0.1,0,0.2-0.1
		c0.1,0,0.1,0,0.1-0.1c0,0,0.1-0.1,0.1-0.1l0.1-1.4c0,0,0-0.1,0-0.1c0,0-0.1-0.1-0.1-0.1c-0.1,0-0.1,0-0.2,0
		C25.8,10.4,25.7,10.4,25.6,10.4"/>
	<path fill="#52070B" d="M18.6,14.2h-3.9c-0.1,0-0.2,0-0.3,0c-0.1,0-0.2,0-0.2,0.1c-0.1,0-0.1,0.1-0.2,0.1c0,0-0.1,0.1-0.1,0.1
		L13.4,16c0,0,0,0.1,0,0.1c0,0,0.1,0.1,0.1,0.1c0.1,0,0.1,0,0.2,0.1s0.2,0,0.3,0h4.1c0.1,0,0.2,0,0.3,0c0.1,0,0.2,0,0.2-0.1
		c0.1,0,0.1-0.1,0.2-0.1c0,0,0.1-0.1,0.1-0.1l0.4-1.6c0,0,0-0.1,0-0.1c0,0-0.1-0.1-0.1-0.1c-0.1,0-0.1,0-0.2-0.1
		C18.8,14.2,18.7,14.2,18.6,14.2"/>
	<path fill="#52070B" d="M37.1,9.5h-3.5c-0.1,0-0.2,0-0.2,0c-0.1,0-0.1,0-0.2,0c-0.1,0-0.1,0-0.1,0.1c0,0,0,0.1,0,0.1l0.1,1.3
		c0,0,0,0.1,0.1,0.1c0,0,0.1,0.1,0.1,0.1c0.1,0,0.1,0,0.2,0c0.1,0,0.2,0,0.2,0h3.7c0.1,0,0.2,0,0.2,0c0.1,0,0.1,0,0.2,0
		c0.1,0,0.1,0,0.1-0.1c0,0,0-0.1,0-0.1l-0.2-1.3c0,0,0-0.1-0.1-0.1c0,0-0.1,0-0.1-0.1c-0.1,0-0.1,0-0.2,0
		C37.3,9.5,37.2,9.5,37.1,9.5"/>
	<path fill="#52070B" d="M22.6,19h-4.3c-0.1,0-0.2,0-0.3,0c-0.1,0-0.2,0-0.2,0.1s-0.1,0.1-0.2,0.1c0,0-0.1,0.1-0.1,0.1L17,21.3
		c0,0,0,0.1,0,0.1c0,0,0.1,0.1,0.1,0.1c0.1,0,0.1,0.1,0.2,0.1c0.1,0,0.2,0,0.3,0h4.5c0.1,0,0.2,0,0.3,0c0.1,0,0.2,0,0.3-0.1
		c0.1,0,0.1-0.1,0.2-0.1c0,0,0.1-0.1,0.1-0.1l0.3-1.9c0,0,0-0.1,0-0.1c0,0-0.1-0.1-0.1-0.1c-0.1,0-0.1-0.1-0.2-0.1
		C22.8,19.1,22.7,19,22.6,19"/>
	<path fill="#52070B" d="M18.8,27.7h-5c-0.1,0-0.2,0-0.3,0c-0.1,0-0.2,0.1-0.3,0.1c-0.1,0-0.2,0.1-0.2,0.1c-0.1,0.1-0.1,0.1-0.1,0.2
		l-0.8,2.6c0,0.1,0,0.1,0,0.2c0,0.1,0.1,0.1,0.1,0.2c0.1,0,0.2,0.1,0.3,0.1c0.1,0,0.2,0,0.3,0h5.3c0.1,0,0.2,0,0.4,0
		c0.1,0,0.2-0.1,0.3-0.1c0.1,0,0.2-0.1,0.2-0.2c0.1-0.1,0.1-0.1,0.1-0.2l0.5-2.6c0-0.1,0-0.1,0-0.2c0-0.1-0.1-0.1-0.2-0.1
		c-0.1,0-0.2-0.1-0.3-0.1C19.1,27.7,19,27.7,18.8,27.7"/>
	<path fill="#52070B" d="M27,26.7h-4.9c-0.1,0-0.2,0-0.3,0c-0.1,0-0.2,0.1-0.3,0.1c-0.1,0-0.2,0.1-0.2,0.1c0,0-0.1,0.1-0.1,0.2
		l-0.4,2.5c0,0.1,0,0.1,0,0.2c0,0.1,0.1,0.1,0.2,0.1c0.1,0,0.2,0.1,0.3,0.1c0.1,0,0.2,0,0.3,0h5.2c0.1,0,0.2,0,0.3,0
		c0.1,0,0.2-0.1,0.3-0.1c0.1,0,0.1-0.1,0.2-0.1c0.1-0.1,0.1-0.1,0.1-0.2l0.1-2.5c0-0.1,0-0.1-0.1-0.2c0,0-0.1-0.1-0.2-0.1
		c-0.1,0-0.2-0.1-0.3-0.1C27.2,26.8,27.1,26.7,27,26.7"/>
	<path fill="#52070B" d="M41.3,20h-4.4c-0.1,0-0.2,0-0.3,0c-0.1,0-0.2,0-0.2,0.1c-0.1,0-0.1,0.1-0.2,0.1c0,0-0.1,0.1,0,0.1l0.2,2
		c0,0,0,0.1,0.1,0.1c0,0,0.1,0.1,0.2,0.1c0.1,0,0.2,0.1,0.3,0.1c0.1,0,0.2,0,0.3,0h4.6c0.1,0,0.2,0,0.3,0c0.1,0,0.2,0,0.2-0.1
		c0.1,0,0.1-0.1,0.1-0.1c0,0,0-0.1,0-0.1l-0.4-2c0,0,0-0.1-0.1-0.1c0,0-0.1-0.1-0.2-0.1c-0.1,0-0.2-0.1-0.2-0.1
		C41.5,20,41.4,20,41.3,20"/>
	<path fill="#52070B" d="M33.2,15.3h-4c-0.1,0-0.2,0-0.3,0c-0.1,0-0.2,0-0.2,0.1c-0.1,0-0.1,0.1-0.2,0.1c0,0-0.1,0.1-0.1,0.1
		l-0.1,1.7c0,0,0,0.1,0,0.1c0,0,0.1,0.1,0.1,0.1c0.1,0,0.1,0,0.2,0.1c0.1,0,0.2,0,0.3,0h4.2c0.1,0,0.2,0,0.3,0c0.1,0,0.2,0,0.2-0.1
		c0.1,0,0.1-0.1,0.1-0.1c0,0,0.1-0.1,0-0.1l-0.1-1.7c0,0,0-0.1-0.1-0.1c0,0-0.1-0.1-0.2-0.1c-0.1,0-0.1,0-0.2-0.1
		C33.4,15.3,33.3,15.3,33.2,15.3"/>
	<path fill="#52070B" d="M37.1,12.1h-1.7c-0.1,0-0.1,0-0.2,0c-0.1,0-0.1,0-0.2,0c0,0-0.1,0-0.1,0.1c0,0,0,0,0,0.1l0,0.7
		c0,0,0,0.1,0,0.1c0,0,0.1,0,0.1,0.1c0,0,0.1,0,0.2,0c0.1,0,0.1,0,0.2,0h1.8c0.1,0,0.1,0,0.2,0c0.1,0,0.1,0,0.2,0c0,0,0.1,0,0.1-0.1
		c0,0,0,0,0-0.1l-0.1-0.7c0,0,0-0.1-0.1-0.1c0,0-0.1,0-0.1-0.1c0,0-0.1,0-0.2,0C37.2,12.1,37.2,12.1,37.1,12.1"/>
	<path fill="#52070B" d="M36.8,13.9H35c-0.1,0-0.1,0-0.2,0c-0.1,0-0.1,0-0.2,0c0,0-0.1,0-0.1,0.1c0,0,0,0.1,0,0.1l0,0.7
		c0,0,0,0.1,0.1,0.1c0,0,0.1,0,0.1,0.1c0,0,0.1,0,0.2,0c0.1,0,0.1,0,0.2,0h1.9c0.1,0,0.1,0,0.2,0c0.1,0,0.1,0,0.2,0
		c0,0,0.1,0,0.1-0.1c0,0,0-0.1,0-0.1l-0.1-0.7c0,0,0-0.1-0.1-0.1c0,0-0.1,0-0.1-0.1c-0.1,0-0.1,0-0.2,0
		C36.9,13.9,36.8,13.9,36.8,13.9"/>
	<path fill="#52070B" d="M44,8.8h-1.6c-0.1,0-0.1,0-0.2,0c-0.1,0-0.1,0-0.1,0c0,0-0.1,0-0.1,0.1c0,0,0,0,0,0.1L42,9.6c0,0,0,0,0,0.1
		c0,0,0.1,0,0.1,0.1c0,0,0.1,0,0.2,0c0.1,0,0.1,0,0.2,0h1.7c0.1,0,0.1,0,0.2,0c0.1,0,0.1,0,0.1,0c0,0,0.1,0,0.1-0.1c0,0,0,0,0-0.1
		L44.5,9c0,0,0,0-0.1-0.1c0,0-0.1,0-0.1-0.1c0,0-0.1,0-0.2,0C44.2,8.8,44.1,8.8,44,8.8"/>
	<path fill="#52070B" d="M42.7,6.3h-1.5c-0.1,0-0.1,0-0.2,0c-0.1,0-0.1,0-0.1,0c0,0-0.1,0-0.1,0c0,0,0,0,0,0.1l0.1,0.5
		c0,0,0,0,0,0.1c0,0,0.1,0,0.1,0.1c0,0,0.1,0,0.2,0c0.1,0,0.1,0,0.2,0h1.6c0.1,0,0.1,0,0.2,0c0.1,0,0.1,0,0.1,0c0,0,0.1,0,0.1-0.1
		c0,0,0,0,0-0.1l-0.1-0.5c0,0,0,0,0-0.1c0,0-0.1,0-0.1,0c0,0-0.1,0-0.2,0C42.8,6.3,42.8,6.3,42.7,6.3"/>
	<path fill="#52070B" d="M33.5,6.6h-1.5c-0.1,0-0.1,0-0.2,0c-0.1,0-0.1,0-0.1,0s-0.1,0-0.1,0c0,0,0,0,0,0.1l0,0.5c0,0,0,0,0,0.1
		c0,0,0.1,0,0.1,0c0,0,0.1,0,0.1,0c0.1,0,0.1,0,0.2,0h1.6c0.1,0,0.1,0,0.2,0c0.1,0,0.1,0,0.1,0s0.1,0,0.1,0c0,0,0,0,0-0.1l0-0.5
		c0,0,0,0,0-0.1c0,0-0.1,0-0.1,0c0,0-0.1,0-0.1,0C33.6,6.6,33.5,6.6,33.5,6.6"/>
	<path fill="#52070B" d="M36.6,5.6h-1.5c-0.1,0-0.1,0-0.2,0c-0.1,0-0.1,0-0.1,0c0,0-0.1,0-0.1,0c0,0,0,0,0,0.1l0,0.5c0,0,0,0,0,0.1
		c0,0,0.1,0,0.1,0c0,0,0.1,0,0.1,0c0.1,0,0.1,0,0.2,0h1.5c0.1,0,0.1,0,0.2,0c0.1,0,0.1,0,0.1,0c0,0,0.1,0,0.1,0c0,0,0,0,0-0.1
		l-0.1-0.5c0,0,0,0,0-0.1c0,0-0.1,0-0.1,0c0,0-0.1,0-0.1,0C36.8,5.6,36.7,5.6,36.6,5.6"/>
	<path fill="#52070B" d="M40.4,5.3h-1.5c-0.1,0-0.1,0-0.2,0c-0.1,0-0.1,0-0.1,0c0,0-0.1,0-0.1,0c0,0,0,0,0,0.1l0.1,0.5
		c0,0,0,0,0,0.1c0,0,0.1,0,0.1,0c0,0,0.1,0,0.1,0c0.1,0,0.1,0,0.2,0h1.5c0.1,0,0.1,0,0.2,0c0.1,0,0.1,0,0.1,0c0,0,0.1,0,0.1,0
		c0,0,0,0,0-0.1l-0.1-0.5c0,0,0,0,0-0.1c0,0-0.1,0-0.1,0c0,0-0.1,0-0.1,0C40.5,5.3,40.4,5.3,40.4,5.3"/>
	<path fill="#52070B" d="M45.9,6.3h-1.5c-0.1,0-0.1,0-0.2,0c-0.1,0-0.1,0-0.1,0c0,0-0.1,0-0.1,0c0,0,0,0,0,0.1L44.2,7
		c0,0,0,0,0.1,0.1c0,0,0.1,0,0.1,0c0,0,0.1,0,0.2,0c0.1,0,0.1,0,0.2,0h1.5c0.1,0,0.1,0,0.2,0c0.1,0,0.1,0,0.1,0c0,0,0.1,0,0.1,0
		c0,0,0,0,0-0.1l-0.2-0.5c0,0,0,0-0.1-0.1c0,0-0.1,0-0.1,0c0,0-0.1,0-0.2,0C46,6.3,46,6.3,45.9,6.3"/>
	<path fill="#52070B" d="M43.8,5.2h-1.5c-0.1,0-0.1,0-0.2,0c-0.1,0-0.1,0-0.1,0c0,0-0.1,0-0.1,0c0,0,0,0,0,0.1l0.1,0.5
		c0,0,0,0,0.1,0.1c0,0,0.1,0,0.1,0c0,0,0.1,0,0.1,0c0.1,0,0.1,0,0.2,0h1.5c0.1,0,0.1,0,0.2,0c0.1,0,0.1,0,0.1,0s0.1,0,0.1,0
		c0,0,0,0,0-0.1l-0.2-0.5c0,0,0,0-0.1-0.1c0,0-0.1,0-0.1,0c0,0-0.1,0-0.1,0C43.9,5.2,43.9,5.2,43.8,5.2"/>
	<path fill="#52070B" d="M47.1,5.1h-1.5c-0.1,0-0.1,0-0.2,0c0,0-0.1,0-0.1,0c0,0-0.1,0-0.1,0c0,0,0,0,0,0.1l0.2,0.5c0,0,0,0,0.1,0.1
		c0,0,0.1,0,0.1,0c0,0,0.1,0,0.2,0c0.1,0,0.1,0,0.2,0h1.5c0.1,0,0.1,0,0.2,0c0.1,0,0.1,0,0.1,0c0,0,0.1,0,0.1,0c0,0,0,0,0-0.1
		l-0.2-0.5c0,0,0,0-0.1-0.1c0,0-0.1,0-0.1,0c0,0-0.1,0-0.2,0C47.2,5.1,47.2,5.1,47.1,5.1"/>
	<path fill="#52070B" d="M20.4,12.3h-2.7c-0.1,0-0.2,0-0.3,0c-0.1,0-0.2,0-0.2,0.1c-0.1,0-0.1,0-0.2,0.1c0,0-0.1,0.1-0.1,0.1l-0.3,1
		c0,0,0,0.1,0,0.1c0,0,0.1,0.1,0.1,0.1c0.1,0,0.1,0,0.2,0.1c0.1,0,0.2,0,0.3,0h2.8c0.1,0,0.2,0,0.3,0c0.1,0,0.2,0,0.2-0.1
		c0.1,0,0.1,0,0.2-0.1c0,0,0.1-0.1,0.1-0.1l0.2-1c0,0,0-0.1,0-0.1c0,0-0.1-0.1-0.1-0.1c-0.1,0-0.1,0-0.2-0.1
		C20.6,12.3,20.5,12.3,20.4,12.3"/>
	<path fill="#52070B" d="M25.3,13.2h-2.7c-0.1,0-0.2,0-0.3,0c-0.1,0-0.2,0-0.2,0.1c-0.1,0-0.1,0-0.2,0.1c0,0-0.1,0.1-0.1,0.1
		l-0.2,1.1c0,0,0,0.1,0,0.1c0,0,0.1,0.1,0.1,0.1c0.1,0,0.1,0,0.2,0.1c0.1,0,0.2,0,0.3,0h2.8c0.1,0,0.2,0,0.3,0c0.1,0,0.2,0,0.2-0.1
		c0.1,0,0.1-0.1,0.2-0.1c0,0,0.1-0.1,0.1-0.1l0.1-1.1c0,0,0-0.1,0-0.1c0,0-0.1-0.1-0.1-0.1c-0.1,0-0.1,0-0.2-0.1
		C25.4,13.2,25.4,13.2,25.3,13.2"/>
	<path fill="#52070B" d="M41.8,14.1h-2.8c-0.1,0-0.2,0-0.3,0c-0.1,0-0.1,0-0.2,0.1c-0.1,0-0.1,0.1-0.1,0.1c0,0,0,0.1,0,0.1l0.2,1.1
		c0,0,0,0.1,0.1,0.1c0,0,0.1,0.1,0.2,0.1c0.1,0,0.1,0,0.2,0.1c0.1,0,0.2,0,0.3,0h2.9c0.1,0,0.2,0,0.3,0c0.1,0,0.1,0,0.2-0.1
		c0.1,0,0.1-0.1,0.1-0.1c0,0,0-0.1,0-0.1l-0.3-1.1c0,0,0-0.1-0.1-0.1c0,0-0.1-0.1-0.2-0.1c-0.1,0-0.1,0-0.2-0.1
		C42,14.1,41.9,14.1,41.8,14.1"/>
	<path fill="#52070B" d="M41.9,12h-2.7c-0.1,0-0.2,0-0.2,0c-0.1,0-0.1,0-0.2,0.1c-0.1,0-0.1,0-0.1,0.1c0,0,0,0.1,0,0.1l0.2,1
		c0,0,0,0.1,0.1,0.1c0,0,0.1,0.1,0.2,0.1c0.1,0,0.1,0,0.2,0.1s0.2,0,0.3,0h2.7c0.1,0,0.2,0,0.3,0s0.1,0,0.2-0.1c0.1,0,0.1,0,0.1-0.1
		c0,0,0-0.1,0-0.1l-0.3-1c0,0,0-0.1-0.1-0.1c0,0-0.1-0.1-0.2-0.1c-0.1,0-0.1,0-0.2-0.1C42.1,12,42,12,41.9,12"/>
	<path fill="#52070B" d="M42.6,10.2h-2.6c-0.1,0-0.2,0-0.2,0c-0.1,0-0.1,0-0.2,0c0,0-0.1,0-0.1,0.1c0,0,0,0.1,0,0.1l0.2,1
		c0,0,0,0.1,0.1,0.1c0,0,0.1,0.1,0.2,0.1c0.1,0,0.1,0,0.2,0c0.1,0,0.2,0,0.2,0H43c0.1,0,0.2,0,0.2,0c0.1,0,0.1,0,0.2,0
		c0.1,0,0.1,0,0.1-0.1s0-0.1,0-0.1l-0.3-1c0,0,0-0.1-0.1-0.1c0,0-0.1-0.1-0.1-0.1c-0.1,0-0.1,0-0.2,0C42.8,10.2,42.7,10.2,42.6,10.2
		"/>
	<path fill="#52070B" d="M44.6,7.3h-2.4c-0.1,0-0.2,0-0.2,0c-0.1,0-0.1,0-0.2,0c0,0-0.1,0-0.1,0.1c0,0,0,0.1,0,0.1l0.2,0.8
		c0,0,0,0.1,0.1,0.1c0,0,0.1,0,0.1,0.1c0.1,0,0.1,0,0.2,0c0.1,0,0.2,0,0.2,0H45c0.1,0,0.2,0,0.2,0c0.1,0,0.1,0,0.2,0
		c0.1,0,0.1,0,0.1-0.1c0,0,0-0.1,0-0.1l-0.3-0.8c0,0,0-0.1-0.1-0.1c0,0-0.1,0-0.1-0.1c-0.1,0-0.1,0-0.2,0
		C44.8,7.3,44.7,7.3,44.6,7.3"/>
	<path fill="#52070B" d="M39.4,6.6h-2.4c-0.1,0-0.2,0-0.2,0c-0.1,0-0.1,0-0.2,0c-0.1,0-0.1,0-0.1,0.1c0,0,0,0,0,0.1l0.1,0.8
		c0,0,0,0.1,0.1,0.1c0,0,0.1,0,0.1,0.1c0.1,0,0.1,0,0.2,0c0.1,0,0.1,0,0.2,0h2.4c0.1,0,0.2,0,0.2,0c0.1,0,0.1,0,0.2,0
		c0,0,0.1,0,0.1-0.1c0,0,0,0,0-0.1L40,6.8c0,0,0-0.1-0.1-0.1c0,0-0.1,0-0.1-0.1c-0.1,0-0.1,0-0.2,0C39.6,6.6,39.5,6.6,39.4,6.6"/>
	<path fill="#52070B" d="M30.7,7.5h-2.4c-0.1,0-0.2,0-0.2,0c-0.1,0-0.1,0-0.2,0c-0.1,0-0.1,0-0.1,0.1c0,0,0,0.1-0.1,0.1l-0.1,0.8
		c0,0,0,0.1,0,0.1c0,0,0.1,0,0.1,0.1c0.1,0,0.1,0,0.2,0c0.1,0,0.1,0,0.2,0h2.5c0.1,0,0.2,0,0.2,0c0.1,0,0.1,0,0.2,0
		c0.1,0,0.1,0,0.1-0.1c0,0,0-0.1,0-0.1l0-0.8c0,0,0-0.1,0-0.1c0,0-0.1,0-0.1-0.1c-0.1,0-0.1,0-0.2,0C30.9,7.5,30.8,7.5,30.7,7.5"/>
	<path fill="#52070B" d="M27.1,8.9h-2.5c-0.1,0-0.2,0-0.2,0c-0.1,0-0.1,0-0.2,0c-0.1,0-0.1,0-0.1,0.1C24.1,9,24,9,24,9.1L23.9,10
		c0,0,0,0.1,0,0.1c0,0,0.1,0.1,0.1,0.1c0.1,0,0.1,0,0.2,0c0.1,0,0.2,0,0.2,0H27c0.1,0,0.2,0,0.2,0c0.1,0,0.1,0,0.2,0
		c0.1,0,0.1,0,0.1-0.1c0,0,0.1-0.1,0.1-0.1l0.1-0.9c0,0,0-0.1,0-0.1c0,0-0.1,0-0.1-0.1c-0.1,0-0.1,0-0.2,0
		C27.3,8.9,27.2,8.9,27.1,8.9"/>
	<path fill="#52070B" d="M28.5,25.5c0,0.2-0.2,0.4-0.4,0.4h-3c-0.2,0-0.4-0.2-0.3-0.4l0.2-1.3c0-0.2,0.2-0.3,0.4-0.3h2.9
		c0.2,0,0.4,0.1,0.4,0.3L28.5,25.5z"/>
	<path fill="#52070B" d="M32.3,10.9c0,0.2-0.2,0.3-0.5,0.3h-3.5c-0.3,0-0.5-0.1-0.4-0.3L28,9.7c0-0.2,0.2-0.3,0.5-0.3h3.4
		c0.2,0,0.4,0.1,0.4,0.3V10.9z"/>
	<path fill="#52070B" d="M35.5,7.8h-2.4c-0.1,0-0.2,0-0.2,0c-0.1,0-0.1,0-0.2,0c-0.1,0-0.1,0-0.1,0.1c0,0,0,0.1,0,0.1l0,0.8
		c0,0,0,0.1,0,0.1c0,0,0.1,0,0.1,0.1c0.1,0,0.1,0,0.2,0c0.1,0,0.2,0,0.2,0h2.5c0.1,0,0.2,0,0.2,0c0.1,0,0.1,0,0.2,0
		c0.1,0,0.1,0,0.1-0.1c0,0,0-0.1,0-0.1L36.1,8c0,0,0-0.1-0.1-0.1c0,0-0.1,0-0.1-0.1c-0.1,0-0.1,0-0.2,0C35.7,7.8,35.6,7.8,35.5,7.8"
		/>
	<path fill="#52070B" d="M41.7,9.4c0,0.1-0.1,0.3-0.4,0.3H38c-0.2,0-0.4-0.1-0.5-0.3l-0.1-0.9c0-0.1,0.2-0.2,0.4-0.2H41
		c0.2,0,0.4,0.1,0.5,0.2L41.7,9.4z"/>
</g>
</svg>
