<?xml version="1.0" encoding="utf-8"?>
<!-- Generator: Adobe Illustrator 18.1.1, SVG Export Plug-In . SVG Version: 6.00 Build 0)  -->
<!DOCTYPE svg PUBLIC "-//W3C//DTD SVG 1.1//EN" "http://www.w3.org/Graphics/SVG/1.1/DTD/svg11.dtd">
<svg version="1.1" id="Calque_1" xmlns="http://www.w3.org/2000/svg" xmlns:xlink="http://www.w3.org/1999/xlink" x="0px" y="0px"
	 viewBox="5.4 0.9 276.2 50.5" enable-background="new 5.4 0.9 276.2 50.5" xml:space="preserve">
<g>
	<g>
		<g>
			<g>
				<g>
					<path fill="#52070B" d="M101.8,49.5V14.1h6.1v4l0.7-0.8c1.9-2.5,4.7-3.8,7.8-3.8c6.8,0,11.2,5.2,11.2,13.3
						c0,8.1-4.4,13.4-11.2,13.4c-3.1,0-5.8-1.3-7.8-3.9l-0.7-0.8v14H101.8z M114.2,18.8c-2.3,0-5,1.3-6.2,3.1l-0.1,0.1v9.4l0.1,0.1
						c1.2,1.8,3.9,3.2,6.2,3.2c4.1,0,7-3.3,7-8C121.3,22.1,118.4,18.8,114.2,18.8z"/>
				</g>
			</g>
			<g>
				<g>
					<path fill="#52070B" d="M80,40.2c-7.1,0-12-5.5-12-13.4c0-7.8,4.9-13.3,12-13.3c3.1,0,5.8,1.4,7.8,3.8l0.7,0.8v-4h6.3v25.5
						h-6.3v-4l-0.7,0.8C85.8,38.8,83.1,40.2,80,40.2z M82.2,18.8c-4.4,0-7.8,3.5-7.8,7.9c0,4.5,3.4,8,7.8,8c2.3,0,5-1.4,6.2-3.2
						l0.1-0.1v-9.4L88.4,22C87.1,20.2,84.5,18.8,82.2,18.8z"/>
				</g>
			</g>
			<g>
				<g>
					<path fill="#52070B" d="M133,49.5V14.1h6.1v4l0.7-0.8c1.9-2.5,4.7-3.8,7.8-3.8c6.8,0,11.2,5.2,11.2,13.3
						c0,8.1-4.4,13.4-11.2,13.4c-3.1,0-5.8-1.3-7.8-3.9l-0.7-0.8v14H133z M145.4,18.8c-2.3,0-5,1.3-6.2,3.1l-0.1,0.1v9.4l0.1,0.1
						c1.2,1.8,3.9,3.2,6.2,3.2c4.1,0,7-3.3,7-8C152.4,22.1,149.5,18.8,145.4,18.8z"/>
				</g>
			</g>
			<g>
				<path fill="#52070B" d="M181.7,39.5V24.1c0-3.5-1.7-5.2-5.2-5.2c-3.4,0-5.5,2.2-6.2,3.2l-0.1,0.1v17.4h-6.1V14.1h6.1v4l0.6-0.7
					c1.6-1.9,4.8-3.9,8.9-3.9c5.3,0,8.2,2.8,8.2,8v18.1H181.7z"/>
			</g>
			<g>
				<g>
					<path fill="#52070B" d="M206.5,40.2c-8,0-13.6-5.5-13.6-13.4c0-7.6,5.7-13.3,13.2-13.3c7.6,0,12.7,5.6,12.7,14v1.3h-19.5
						l0.1,0.4c0.6,3.7,3.7,6.2,7.9,6.2c2.1,0,5-0.8,6.9-2.4l2.7,3.9C214.4,38.9,210.5,40.2,206.5,40.2z M206.1,18.4
						c-4.5,0-6.5,3.2-6.8,5.9l0,0.4H213l0-0.4C212.7,21.5,210.8,18.4,206.1,18.4z"/>
				</g>
			</g>
			<g>
				<polygon fill="#52070B" points="239.2,39.5 233.1,30.4 226.9,39.5 220.2,39.5 229.2,26.5 220.7,14.1 227.5,14.1 233.1,22.4
					238.6,14.1 245.4,14.1 237,26.5 246,39.5 				"/>
			</g>
			<g>
				<path fill="#52070B" d="M260.2,40.2c-4.6,0-7-2.3-7-6.8v-14h-4.3v-5.3h4.3V7h6.1v7.1h5.3v5.3h-5.3v12.1c0,2,1.1,3.3,2.7,3.3
					c0.8,0,1.6-0.2,2.2-0.5l1.3,4.5C264.4,39.7,262.5,40.2,260.2,40.2z"/>
			</g>
			<g>
				<g>
					<g>
						<path fill="#52070B" d="M273.3,14.5v4.9h-0.8v-4.9h-1.4v-0.7h3.5v0.7H273.3z"/>
					</g>
				</g>
				<path fill="#52070B" d="M278.9,19.4h-0.5l-1.9-4.7v4.7h-0.8v-5.5h1.2l1.7,4.3l1.7-4.3h1.2v5.5h-0.8v-4.7L278.9,19.4z"/>
			</g>
		</g>
	</g>
	<g>
		<g>
			<path fill="#52070B" d="M7.5,34.5l0,9.9c0,2.7,2.2,4.9,4.9,4.9l9.9,0l-7.4-7.4L7.5,34.5z"/>
			<path fill="#52070B" d="M53.7,17.8l0-9.9c0-2.7-2.2-4.9-4.9-4.9l-9.9,0l7.4,7.4L53.7,17.8z"/>
			<path fill="#52070B" d="M48.8,49.2c2.7,0,4.9-2.2,4.9-4.9l0-9.9L38.9,49.2L48.8,49.2z"/>
			<path fill="#52070B" d="M6.8,22.7c-1.9,1.9-1.9,5,0,6.9l7,7l0-20.9L6.8,22.7z"/>
			<path fill="#52070B" d="M20.2,43l7,7c1.9,1.9,5,1.9,6.9,0l7-7l-10.4,0L20.2,43z"/>
			<path fill="#52070B" d="M41,9.3l-7-7c-1.9-1.9-5-1.9-6.9,0l-7,7l10.4,0L41,9.3z"/>
			<path fill="#52070B" d="M54.4,22.6l-7-7v20.9l7-7C56.3,27.7,56.3,24.6,54.4,22.6z"/>
		</g>
		<path fill="#52070B" d="M12.4,3C9.7,3,7.5,5.2,7.5,7.9l0,9.9L22.2,3L12.4,3z"/>
	</g>
</g>
</svg>
