<?xml version="1.0" encoding="utf-8"?>
<!-- Generator: Adobe Illustrator 18.1.1, SVG Export Plug-In . SVG Version: 6.00 Build 0)  -->
<!DOCTYPE svg PUBLIC "-//W3C//DTD SVG 1.1//EN" "http://www.w3.org/Graphics/SVG/1.1/DTD/svg11.dtd">
<svg version="1.1" id="Calque_1" xmlns="http://www.w3.org/2000/svg" xmlns:xlink="http://www.w3.org/1999/xlink" x="0px" y="0px"
	 viewBox="0 410 1000 179.9" enable-background="new 0 410 1000 179.9" xml:space="preserve">
<g>
	<path fill="#52070B" d="M90,410c-49.7,0-90,40.3-90,90s40.3,90,90,90s90-40.3,90-90S139.6,410,90,410z M93.9,577
		C54.7,577,23,545.3,23,506.1s31.7-70.9,70.9-70.9s70.9,31.7,70.9,70.9S133.1,577,93.9,577z"/>
	<path id="flame_1_" fill="#52070B" d="M140,515.5c0,20.2-16.9,38.9-33.1,42.5c7.2-3.6,10.8-10.4,11.9-17.6
		c1.1-9.7-2.2-20.5-13.7-25.2c2.9,8.6-3.2,16.6-3.2,16.6c-1.8-15.8-10.4-23.4-22-26.6c0.4,0.4,5,5.4-3.6,16.2
		c-3.6,4.3-6.1,9.7-6.1,15.8c0,7.9,2.2,14.8,11.2,20.9c-18.4-5.4-33.1-23-33.1-43.2c0-16.2,5.4-24.8,16.6-36.7
		c13.3-14.4,6.8-25.9,4-27.7c24.1,6.5,40.7,23.7,41.4,45c4.7-4.3,6.5-16.9,2.2-24.5C120.2,474.1,140,486.7,140,515.5z"/>
</g>
<g>
	<path id="G_1_" fill="#52070B" d="M302.6,494.2v48.2c-13,5.8-25.5,7.9-37.4,7.9c-29.5,0-54-17.6-54-49.7
		c0-27.3,20.2-51.8,53.6-51.8c12.2,0,22,3.2,30.6,6.8l-1.4,19.4c-10.1-4.7-17.6-6.1-25.5-6.1c-15.1,0-29.5,11.9-29.5,31.7
		c0,22.3,15.1,32.4,31.3,32.4c4,0,7.2-0.4,9-1.1V513c-8.3-0.7-18.7-2.5-20.2-3.2c0.4-4.7,1.1-11.2,1.1-11.2c5,0,13.3-0.7,23-1.8
		C294,495.3,300.5,494.6,302.6,494.2z"/>
	<path fill="#52070B" d="M323.1,473.4c12.2-4.7,26.6-5.8,30.6-5.8c28.8,0,38.1,10.1,38.1,27.3v35.6l1.8,16.6l-23.4,2.5l-2.5-11.2
		H367c-6.5,8.3-15.1,11.5-23.7,11.5c-13.7,0-28.1-7.6-28.1-24.5c0-20.9,19.1-25.9,33.1-25.9c5,0,8.6,0.4,18.4,1.4v-4.7
		c0-7.6-4.7-11.9-17.6-11.9c-8.3,0-18.4,2.2-26.6,5.4L323.1,473.4z M366.3,513.3c-4.7-1.1-7.9-1.4-11.9-1.4
		c-7.6,0-13.7,3.2-13.7,11.9c0,7.6,5.8,10.8,11.9,10.8c5.8,0,11.2-3.2,14-8.3L366.3,513.3L366.3,513.3z"/>
	<path fill="#52070B" d="M430.7,469.4l2.2,11.5h1.1c6.8-9.4,16.2-13,25.2-13c11.5,0,18.4,4.7,23,13h1.1c7.2-9.4,16.9-13,25.9-13
		c14,0,25.9,8.6,25.9,26.6v53.6h-25.5v-48.9c0-8.6-2.9-13.7-10.4-13.7c-6.1,0-11.5,4.7-14.4,11.2v51.8h-25.5v-49.3
		c0-8.6-3.2-13.7-10.8-13.7c-6.1,0-11.9,4.7-13.7,11.2v51.8h-25.5v-55.4l-2.2-20.5L430.7,469.4z"/>
	<path fill="#52070B" d="M574.3,512.2c0.7,13.7,10.4,20.2,25.2,20.2c10.4,0,18.7-2.2,25.2-5l-1.4,16.2c-9,4.7-20.5,6.1-28.4,6.1
		c-25.9,0-45-13.7-45-41c0-24.1,17.3-41,41.7-41c24.1,0,35.6,14,35.6,33.1c0,2.9-0.4,8.3-1.4,11.5
		C625.8,512.2,574.3,512.2,574.3,512.2z M602.4,499.6c0.7-11.5-3.6-16.6-12.6-16.6c-6.1,0-14,4-15.1,17.3L602.4,499.6z"/>
	<path fill="#52070B" d="M683.3,450.7c32.7,0,54.3,19.4,54.3,48.2c0,27.7-22,49.3-54,49.3h-42.8v-97.2h42.5V450.7L683.3,450.7z
		 M667.9,528.4h12.2c19.8,0,30.6-11.2,30.6-29.5s-10.8-29.1-30.9-29.1h-11.9L667.9,528.4L667.9,528.4z"/>
	<path fill="#52070B" d="M774.7,468.3v50c0,9.4,2.9,14,11.9,14c6.5,0,11.9-5,14.8-11.5v-50.4l25.5-2.2v78.4l-21.2,2.5l-2.5-12.6
		h-1.1c-7.2,9.4-15.8,13-25.5,13c-18.4,0-27.3-10.4-27.3-28.8v-50.4L774.7,468.3z"/>
	<path fill="#52070B" d="M864.7,512.2c0.7,13.7,10.4,20.2,25.2,20.2c10.4,0,18.7-2.2,25.2-5l-1.4,16.2c-9,4.7-20.5,6.1-28.4,6.1
		c-25.9,0-45-13.7-45-41c0-24.1,17.3-41,41.7-41c24.1,0,35.6,14,35.6,33.1c0,2.9-0.4,8.3-1.4,11.5
		C916.2,512.2,864.7,512.2,864.7,512.2z M892.8,499.6c0.7-11.5-3.6-16.6-12.6-16.6c-6.1,0-14,4-15.1,17.3L892.8,499.6z"/>
	<path fill="#52070B" d="M956.5,450v75.9v21.6l-25.5,3.2v-19.4v-78.8L956.5,450z"/>
	<path fill="#52070B" d="M1000,450v75.9v21.6l-25.5,3.2v-19.4v-78.8L1000,450z"/>
</g>
</svg>
