<?xml version="1.0" encoding="utf-8"?>
<!-- Generator: Adobe Illustrator 18.1.1, SVG Export Plug-In . SVG Version: 6.00 Build 0)  -->
<!DOCTYPE svg PUBLIC "-//W3C//DTD SVG 1.1//EN" "http://www.w3.org/Graphics/SVG/1.1/DTD/svg11.dtd">
<svg version="1.1" id="Calque_1" xmlns="http://www.w3.org/2000/svg" xmlns:xlink="http://www.w3.org/1999/xlink" x="0px" y="0px"
	 viewBox="0 0 226.6 50" enable-background="new 0 0 226.6 50" xml:space="preserve">
<g>
	<path fill="#52070B" d="M38.4,0c-4.3,0-8.3,1.7-11.2,4.5C24.4,1.7,20.4,0,16.1,0C7.2,0,0,7.2,0,16.1c0,4.5,1.9,8.7,5,11.6
		c6.4,6.4,9.1,9.1,10.3,10.3c0.1,0.2,0.3,0.3,0.4,0.5c0.4,0.4,0.4,0.4,0.4,0.4l0,0C27.3,50,27.3,50,27.3,50
		c5.6-5.6,11.2-11.1,11.2-11.1C49.6,27.7,50,27.3,50,27.3c2.8-2.9,4.5-6.8,4.5-11.1C54.5,7.2,47.3,0,38.4,0z"/>
	<g>
		<path fill="#52070B" d="M106.1,7.7c-7.5,0-13.6,6.1-13.6,13.6s6.1,13.6,13.6,13.6s13.6-6.1,13.6-13.6
			C119.7,13.7,113.6,7.7,106.1,7.7z M106.1,32c-5.9,0-10.8-4.8-10.8-10.8c0-6.1,4.9-10.9,10.8-10.9c6.1,0,10.9,4.9,10.9,10.9
			S112.2,32,106.1,32z"/>
		<path fill="#52070B" d="M175.7,7.7c-7.5,0-13.6,6.1-13.6,13.6s6,13.6,13.6,13.6c7.5,0,13.6-6.1,13.6-13.6
			C189.3,13.7,183.2,7.7,175.7,7.7z M175.7,32c-6.1,0-10.9-4.8-10.9-10.8c0-6.1,4.8-10.9,10.9-10.9c5.9,0,10.8,4.9,10.8,10.9
			S181.6,32,175.7,32z"/>
		<path fill="#52070B" d="M213,7.7c-7.5,0-13.6,6.1-13.6,13.6s6.1,13.6,13.6,13.6s13.6-6.1,13.6-13.6C226.6,13.7,220.5,7.7,213,7.7z
			 M213,32c-6.1,0-10.9-4.8-10.9-10.8c0-6.1,4.9-10.9,10.9-10.9c5.9,0,10.8,4.9,10.8,10.9S218.9,32,213,32z"/>
		<polygon fill="#52070B" points="152.3,8 140.7,30.5 129,8 125.8,8 139.6,34.7 141.8,34.7 155.4,8 		"/>
		<polygon fill="#52070B" points="71.7,31.9 71.7,8.2 69.1,8.2 69.1,34.6 85.7,34.6 85.7,31.9 		"/>
	</g>
</g>
</svg>
