<?xml version="1.0" encoding="utf-8"?>
<!-- Generator: Adobe Illustrator 18.1.1, SVG Export Plug-In . SVG Version: 6.00 Build 0)  -->
<!DOCTYPE svg PUBLIC "-//W3C//DTD SVG 1.1//EN" "http://www.w3.org/Graphics/SVG/1.1/DTD/svg11.dtd">
<svg version="1.1" id="Calque_1" xmlns="http://www.w3.org/2000/svg" xmlns:xlink="http://www.w3.org/1999/xlink" x="0px" y="0px"
	 viewBox="0 0 1000 184.5" enable-background="new 0 0 1000 184.5" xml:space="preserve">
<g>
	<path fill="#52070B" d="M87.3,40.8c1.4-1.2,2.7-2.3,4-3.4c23.7-19.5,62.1-14.4,78,18.4c3.7,7.7,5.2,15.9,5.3,24.3
		c0.2,24.7,0,49.4,0.1,74.2c0,2.8-0.7,3.9-3.7,3.8c-7.4-0.2-14.8-0.2-22.2,0c-2.8,0.1-3.5-0.9-3.5-3.6c0.1-25.8,0.1-51.7,0-77.5
		c0-9.1-6.9-18.8-15.4-21c-16-4.2-27.8,5.5-28,20.4c-0.4,25.8-0.2,51.7,0,77.5c0,3.4-0.9,4.4-4.2,4.3c-6.7-0.3-13.5-0.1-20.2-0.1
		c-4.4,0-4.4,0-4.4-4.3c0-24.6,0.1-49.2-0.1-73.8c0-4.5-1.1-9.3-2.8-13.4c-2.8-6.6-8.1-10.5-15.5-11.3c-9.4-1.1-16.6,2.3-21.7,10.2
		c-2.7,4.2-3.9,8.8-3.9,13.8c0,24.9,0,49.9,0.1,74.8c0,3.1-0.8,4.2-4,4.1c-7.2-0.2-14.3-0.1-21.5,0c-2.4,0-3.3-0.8-3.2-3.2
		c0.1-26.7-0.5-53.4,0.3-80.1c0.8-26.1,23-46.6,45.3-48.3c15.4-1.2,28.8,2.6,40,13.3C86.1,40.1,86.6,40.4,87.3,40.8z"/>
	<path fill="#52070B" d="M592,146c0,2,0,3.2,0,4.4c0,10.3-0.1,20.5,0,30.8c0,2.4-0.6,3.3-3.1,3.3c-7.5-0.1-15-0.1-22.5,0
		c-2.3,0-3.1-0.6-3.1-3c0.1-31.4-0.6-62.7,0.3-94.1c0.6-20.1,10.8-36,26.7-48.1c10.2-7.7,21.7-11.8,34.5-12.9
		c37.3-3.3,65.8,25.4,71,53.5c7.4,40.2-19.6,71.7-48.6,78.2c-18.5,4.2-35.9,1.3-51.6-9.7C594.6,147.8,593.7,147.2,592,146z M592,93
		c-0.9,19.2,16.1,38.3,37.8,38.3c21,0,37.8-16.8,38.4-37.4c0.6-19.4-15.9-38.9-38.2-39C607.1,54.9,590.9,75.2,592,93z"/>
	<path fill="#52070B" d="M236.7,124.5c5.7,4.4,11.9,6.2,18.4,6.7c18.5,1.2,33.5-8.9,39.2-26.5c0.7-2,1.6-2.8,3.8-2.8
		c7.7,0.1,15.5,0.1,23.2,0c2.3,0,3.3,0.3,2.7,3.2c-5.9,28.6-25.5,48.7-54.5,53.8c-38,6.7-71.3-19.6-77.2-52.5
		c-6.6-36.8,15.1-70.5,51.3-78.7c31-7.1,64.1,10,75.7,38.3c1.2,2.8,0.8,4.2-1.8,5.8c-26,16.8-51.8,33.6-77.7,50.5
		C238.8,122.8,237.9,123.6,236.7,124.5z M279.3,62.1c-8.2-8.1-29.7-9.8-42.2-1.1c-15,10.3-20,29.7-15.9,38.9
		C240.6,87.2,259.9,74.7,279.3,62.1z"/>
	<path fill="#52070B" d="M512.3,146.4c-3.8,2.3-6.8,4.5-10.1,6.2c-37.6,19.2-81.2-0.4-92.5-41.8c-9.9-36.2,11.5-72.9,47.1-82.4
		c37.5-10.1,75.5,13.5,83.2,51.6c0.8,4,1,8.1,1,12.2c0.1,20.6,0,41.3,0.1,61.9c0,3.2-0.9,4.2-4.1,4.1c-7.2-0.2-14.4-0.1-21.5,0
		c-2.4,0-3.4-0.7-3.2-3.2C512.5,152.3,512.3,149.6,512.3,146.4z M512.3,93.2c1.1-19.2-16.2-38.3-38.2-38.3
		c-22.6,0-38.1,20.8-38.1,38c0,19,16.7,38.6,38,38.4C495.4,131.2,512.3,114.5,512.3,93.2z"/>
	<path fill="#52070B" d="M844.5,185.8c2.4-9,4.5-16.9,6.6-24.9c1.1-4.3,2.2-8.5,3.4-12.7c0.6-2,0.3-3.5-1.1-5.1
		c-12-13.2-19.1-28.9-20.9-46.6c-4.4-44,23.8-81.1,64-90.4c45-10.4,88.7,16.6,100,61.1c11.7,46-18.4,93.3-64.9,102
		c-16.5,3.1-32.7,1.7-48.3-4.9c-2.1-0.9-3.6-0.6-5.5,0.6c-9.8,6.2-19.6,12.4-29.4,18.5C847.4,184.1,846.4,184.7,844.5,185.8z
		 M915.5,154.4c36-0.1,66.8-28.9,66.8-67c0-36.8-29-66.9-66.8-67c-38.3-0.1-67,30.4-67.2,66.9C848.2,124.3,878.5,154.5,915.5,154.4z
		"/>
	<path fill="#52070B" d="M770.3,68c-0.6-2.2-1.1-4-1.7-5.7c-1.5-4.6-4.3-6.9-8.5-7c-6-0.2-10,2.2-11.8,7c-1.6,4.1-0.6,8.2,3.2,11.2
		c2.1,1.7,4.5,3.1,7,4.3c6.2,3.1,12.4,6.2,18.8,8.9c16.2,6.9,22.2,23.4,20.4,39.5c-1.8,16.2-17.8,34-40.2,33.7
		c-18.4-0.2-34.9-13.8-38.2-31.9c-0.2-0.9,0.7-2.7,1.4-2.9c8.5-2.5,17.1-4.8,25.9-7.2c0.4,1.7,0.8,3,1,4.4c1,5.6,6.4,9.6,12,8.9
		c5.8-0.7,10.1-5.7,9.8-11.4c-0.2-3.8-2.4-6.5-5.5-8.2c-5.2-2.9-10.6-5.4-15.9-8c-2.6-1.3-5.2-2.5-7.8-3.6
		c-12.5-5.2-19.3-14.9-20.9-27.9c-2.8-21.9,9.5-37.7,26.2-43.7c22.6-8.2,47.3,6.1,51.8,29.6c0.3,1.5,0.5,2.8-1.6,3.3
		C787.3,63.4,779,65.6,770.3,68z"/>
	<path fill="#52070B" d="M352,107.5c0-15.6-0.1-31.1,0.1-46.7c0-3-0.9-3.8-3.8-3.7c-4.4,0.2-8.8,0-13.2,0.1c-2.2,0.1-3.2-0.6-3.1-3
		c0.1-7.6,0.1-15.2,0-22.9c0-2.3,0.9-3.1,3.1-3c4.6,0.1,9.3,0,13.9,0c2.3,0,3.1-0.8,3.1-3.1c-0.1-7.4,0-14.8-0.1-22.2
		c0-2.3,0.7-3.1,3-3.1c7.6,0.1,15.2,0.1,22.9,0c2.2,0,2.9,0.7,2.9,2.9c-0.1,7.3,0.1,14.6-0.1,21.9c-0.1,2.7,0.8,3.8,3.5,3.7
		c4.4-0.2,8.8,0.1,13.2-0.1c2.4-0.1,3.4,0.7,3.3,3.2c-0.1,7.6-0.1,15.2,0,22.9c0,2.2-0.8,2.9-2.9,2.8c-4.1-0.1-8.2,0-12.3,0
		c-4.9,0-4.9,0-4.9,4.7c0,30.4,0,60.7,0,91.1c0,0.8-0.1,1.6,0,2.3c0.2,2-0.6,2.8-2.6,2.8c-7.7-0.1-15.5-0.1-23.2,0
		c-2.5,0-2.9-1.1-2.9-3.3c0.1-9.9,0-19.9,0-29.8C352,119.2,352,113.4,352,107.5z"/>
	<path fill="#52070B" d="M915.4,58.8c4.7-2,9.2-4.7,14.1-5.8c14.5-3.3,29.7,8.6,30,23.6c0.3,13.1,0.1,26.3,0.1,39.4
		c0,2.1-0.7,3-2.9,2.9c-2.4-0.1-4.9-0.2-7.3,0c-3.1,0.3-4.2-0.7-4.1-4c0.2-11.9,0.1-23.8,0.1-35.8c0-5.6-3.4-10.5-8.2-12
		c-6.5-2.1-13,1.9-14.1,8.6c-0.3,2.1-0.5,4.2-0.5,6.2c0,11.1-0.1,22.3,0,33.4c0,2.5-0.7,3.6-3.4,3.4c-2.5-0.2-5.1-0.2-7.6,0
		c-2.7,0.2-3.3-0.9-3.3-3.4c0.1-12.1,0.1-24.3,0-36.4c0-7.4-4.2-12.3-10.7-12.5c-6.3-0.1-11.5,5.4-11.6,12.4
		c-0.1,12-0.1,24.1,0,36.1c0,3.1-0.9,4.1-3.9,3.8c-2.5-0.2-5.1-0.1-7.6,0c-2,0.1-2.7-0.8-2.7-2.7c0.1-13.2-0.4-26.5,0.2-39.7
		c0.4-10,5.9-17.6,15-21.7c9-4.1,17.8-3.1,25.9,2.9c0.9,0.7,1.7,1.3,2.6,2C915.6,59.3,915.5,59,915.4,58.8z"/>
</g>
</svg>
