<?xml version="1.0" encoding="utf-8"?>
<!-- Generator: Adobe Illustrator 18.1.1, SVG Export Plug-In . SVG Version: 6.00 Build 0)  -->
<!DOCTYPE svg PUBLIC "-//W3C//DTD SVG 1.1//EN" "http://www.w3.org/Graphics/SVG/1.1/DTD/svg11.dtd">
<svg version="1.1" id="Calque_1" xmlns="http://www.w3.org/2000/svg" xmlns:xlink="http://www.w3.org/1999/xlink" x="0px" y="0px"
	 viewBox="0 437.1 1000 127" enable-background="new 0 437.1 1000 127" xml:space="preserve">
<g>
	<path fill="#52070B" d="M-143.8,411.7c5.6,1.2,11.6,1.7,17.1,3.5c33.9,11.3,54.1,34.7,58.6,70.2c5.5,43.8-25.6,84.1-69,90.9
		c-1.8,0.3-3.7,0.6-5.5,1c-5.1,0-10.3,0-15.4,0c-0.6-0.1-1.3-0.4-1.9-0.5c-32.9-3.6-61.1-27.6-70-59.6c-1.4-5.3-2.2-10.7-3.2-16.1
		c0-4.5,0-8.9,0-13.4c0.3-1.4,0.4-2.8,0.6-4.2c4.4-33,28-60.2,60.1-69c5-1.3,10.3-1.9,15.3-3C-152.7,411.7-148.2,411.7-143.8,411.7z
		 M-179,513.5c0.9,0.4,1.7,0.8,2.3,1c7.7,3.5,17.1-0.6,19.5-8.7c1.8-5.9,0.4-11-4.1-15.2c-4.8-4.2-10.3-4.9-16.1-2.2
		c-18.6,8.7-31.2,22.9-36.9,42.6c-0.4,1.2,0,3,0.8,4c13.2,19.9,31.7,31.8,55.7,33.9c28.2,2.6,51-8.2,68.1-30.8c1.2-1.5,1.5-3,1-5
		c-5-19.4-16.3-33.9-33.9-43.3c-0.6-0.4-1.4-0.5-2.7-1c4.8,9.2,5.5,18.1,1.5,27c-4,9-10.9,14.8-20.5,17.2
		C-158.7,536.9-175.6,527.3-179,513.5z M-224.3,503.6c18.1-25.9,42.5-41.1,74.6-40.4c32,0.6,55.9,16.3,72.8,43.3
		c4.5-21.4-2.8-51.7-28.1-71.1c-25.7-19.8-61.8-20.5-88.5-1.7C-219.8,452.1-227.9,482.7-224.3,503.6z"/>
	<path fill="#52070B" d="M999,554.1c-1.9,4.4-4.6,8-9.4,9.4c-6.8,2-14-1.7-16.2-8.3c-2.2-6.6,0.9-13.7,7.4-16.4
		c6.5-2.7,13.9,0.2,17,6.6c0.5,0.8,0.8,1.6,1.3,2.5C999,549.8,999,551.9,999,554.1z M997.1,550.8c0-6.1-5.2-11.2-11.3-11.2
		c-6,0-11.2,5.4-11,11.3s5,10.9,11.2,11C991.9,561.9,997.1,556.9,997.1,550.8z"/>
	<path fill="#52070B" d="M591.1,538.6c0-24.9,0-49.4,0-74.5c1.1,0,2.2-0.2,3.3-0.2c23.5,0,46.9-0.2,70.2,0c5.4,0,10.7,0.5,15.9,1.7
		c10.1,2.2,15.6,8.8,16.7,19.2c0.3,3,0.5,5.8,0.5,8.8c0,13.7,0,27.6,0,41.3c0,1.1,0,2.2,0,3.6c-6.6,0-13.1,0-20.2,0c0-0.9,0-2,0-3.1
		c0-13.9,0-27.7,0-41.6c0-10.9-2.2-13.1-13.2-13.1c-3.5,0-6.9,0-10.6,0c0,19.5,0,38.6,0,58c-6.6,0-13.1,0-20,0c0-19.2,0-38.4,0-57.6
		c-7.9,0-15.3,0-23,0c0,19.1,0,38.3,0,57.8C604.5,538.6,598.1,538.6,591.1,538.6z"/>
	<path fill="#52070B" d="M22,538.6c-6.9,0-13.2,0-19.7,0c0-24.9,0-49.6,0-74.6c0.9,0,1.9-0.2,2.8-0.2c23.6,0,47.2-0.2,71,0.2
		c5.7,0,11.7,0.6,17.2,2.2c9.9,2.7,15.1,9.9,15.4,21.9c0.5,16.5,0,33.2,0,49.8c0,0.2-0.2,0.3-0.3,0.8c-6.5,0-12.9,0-19.7,0
		c0-1.3,0-2.4,0-3.5c0-14.3,0-28.7-0.2-42.8c0-0.5,0-0.8,0-1.3c-0.5-7.7-2.8-10.1-10.4-10.4c-3.9-0.2-8,0-12,0
		c-0.3,0-0.6,0.2-1.1,0.3c0,19.1,0,38.1,0,57.5c-6.8,0-13.2,0-20,0c0-19.2,0-38.4,0-57.8c-7.9,0-15.3,0-23,0
		C22,500.1,22,519.3,22,538.6z"/>
	<path fill="#52070B" d="M856.5,538.5c-0.2,0.2-0.3,0.3-0.5,0.3c-14.5-0.2-29,0.6-43.5-0.6c-17.3-1.4-28-13.2-29.6-30.6
		c-0.9-10.7-0.2-20.9,6.1-30.2c6.8-9.9,16.5-13.1,27.7-13.2c6.6-0.2,13.2,0,20,0c0-9.3,0-18,0-26.9c6.6,0,12.9,0,19.7,0
		C856.5,470.9,856.5,504.8,856.5,538.5z M836.6,480.1c-6.9,0.3-13.9,0.3-20.5,1.3c-6.8,0.9-11,5.4-12,12c-0.8,5.4-0.8,10.9-0.3,16.2
		c0.6,7.1,5.2,11.7,12.3,12.3c6.8,0.6,13.5,0.2,20.5,0.2C836.6,508.6,836.6,494.9,836.6,480.1z"/>
	<path fill="#52070B" d="M893.2,479.6c0-5.4,0-10.2,0-15.3c0.3-0.2,0.8-0.3,1.1-0.3c15,0.2,30.1-0.2,45,0.5
		c15.3,0.6,24.4,10.1,24.7,25.5c0.3,16.2,0.2,32.3,0.2,48.7c-0.9,0-1.7,0.2-2.5,0.2c-16.7,0-33.4,0-50.1,0c-2.7,0-5.5-0.3-8.2-0.9
		c-11-2.5-16.8-12.1-15.1-24.7c1.6-11.8,7.7-18.1,19.8-18.9c9.9-0.8,20-0.5,29.9-0.8c1.7,0,3.6,0,5.4,0c1.6-5.4-0.8-10.7-5.8-12.1
		c-3.3-0.9-6.9-1.6-10.6-1.6C915.9,479.4,904.7,479.6,893.2,479.6z M943.7,508.4c-8.5,0-16.7,0-24.9,0c-1.9,0-3.9,0.3-5.8,0.9
		c-3.3,1.1-4.7,4.3-4.3,8.5c0.3,3.3,1.6,4.9,5.5,5.2c4.6,0.5,9.3,0.3,13.9,0.5c5,0,10.2,0,15.6,0
		C943.7,518.5,943.7,513.8,943.7,508.4z"/>
	<path fill="#52070B" d="M534.6,538.8c-1.3,0-2.4,0-3.3,0c-16.2,0-32.6,0-48.8,0c-3,0-6-0.3-8.8-0.9c-8.7-2-13.9-8.2-14.6-17.2
		c-0.3-3.3-0.3-6.8,0.3-10.1c1.6-9.9,8-15.7,19.2-16.5c10.4-0.6,20.9-0.5,31.5-0.8c1.3,0,2.5,0,3.6,0c1.1-7.4-1.4-11.5-8.3-12.9
		c-2.7-0.6-5.7-0.8-8.5-0.8c-9.9-0.2-19.8,0-29.6,0c-1.1,0-2.2,0-3.6,0c0-5.4,0-10.4,0-15.3c0.3-0.2,0.5-0.3,0.8-0.3
		c15.3,0.2,30.6-0.2,45.7,0.5c12.4,0.5,20.9,7.7,23.6,18.7c0.5,1.9,0.8,3.8,0.8,5.7C534.6,505.4,534.6,521.8,534.6,538.8z
		 M514.1,508.4c-8.3,0-16.5,0-24.7,0c-2,0-3.9,0.3-5.8,0.8c-3.3,0.9-4.9,4.1-4.6,8.3c0.3,3.6,1.6,5.2,5.5,5.5
		c3.8,0.3,7.7,0.3,11.7,0.5c6,0,12,0,18.1,0C514.1,518.5,514.1,513.8,514.1,508.4z"/>
	<path fill="#52070B" d="M775.5,523.5c0,5.2,0,10.1,0,15.1c-0.5,0-1.1,0.2-1.6,0.2c-13.2,0-26.5,0.2-39.7,0c-4.1,0-8.2-0.6-12.1-1.7
		c-10.6-2.7-17-9.9-17.5-20.6c-0.8-17.2-0.3-34.2-0.5-51.3c0-0.3,0.2-0.6,0.5-1.1c0.9,0,1.9,0,3,0c15.9,0,31.8,0,47.6,0
		c3,0,6.1,0.2,9.1,0.8c11.5,2.4,17.6,11.7,16.1,24.3c-1.4,12.8-8.2,19.2-21.7,20c-9.9,0.6-20,0.5-29.9,0.6c-1.3,0-2.5,0-3.6,0
		c-1.3,6.8,1.6,11.5,7.9,12.6c3.6,0.6,7.6,0.9,11.3,1.1c9.1,0.2,18.3,0,27.4,0C773,523.5,774.3,523.5,775.5,523.5z M724.8,494.1
		c9.8,0,19.5,0,29.1,0c0.5,0,0.9-0.3,1.6-0.5c3.6-1.3,5-4.1,4.6-8.7c-0.3-3.3-2.2-5.2-5.8-5.4c-5.8-0.3-11.5-0.3-17.3-0.3
		c-3.9,0-7.9,0-12.1,0C724.8,484.3,724.8,489.2,724.8,494.1z"/>
	<path fill="#52070B" d="M225.2,509.7c-0.6,7.9,2,11.7,9.3,12.9c3.3,0.6,6.6,0.8,10.1,0.9c9.1,0.2,18.3,0,27.4,0c1.1,0,2.2,0,3.6,0
		c0,5.2,0,10.1,0,15c-16.8-0.2-33.5,0.6-50.1-0.9c-13.9-1.4-20.3-10.2-20.8-25.7c-0.5-15.4-0.2-30.9-0.2-46.3c0-0.5,0.2-0.8,0.3-1.3
		c0.3-0.2,0.6-0.3,0.9-0.3c18.1,0,36.2,0,54.2,0.2c8.2,0.2,15.6,3,18.7,11.3c3.5,8.8,3.1,17.8-2.4,25.8c-4.1,5.8-10.9,7.4-17.6,7.7
		c-9.9,0.5-19.7,0.5-29.6,0.6C227.8,509.7,226.6,509.7,225.2,509.7z M225,494.1c9.9,0,19.5,0,29.1,0c0.8,0,1.6-0.5,2.4-0.8
		c2.8-1.4,4.1-4.4,3.6-8c-0.5-3.5-2-5.5-5.7-5.5c-9.6-0.3-19.2-0.2-28.8-0.2c-0.2,0-0.3,0.3-0.5,0.5C225,484.5,225,489.2,225,494.1z
		"/>
	<path fill="#52070B" d="M359.8,464c3.3,0,6.5,0,9.6,0c11.5,0.2,22.8,0.3,34.3,0.5c2,0,4.3,0.5,6.1,0.9c12,2.8,17.3,8.8,17.8,22.8
		c0.6,16.7,0.2,33.4,0.2,50.4c-6.5,0-12.8,0-19.7,0c0-1.3,0-2.7,0-3.9c0-14.6,0-29.4-0.3-44.1c-0.2-7.4-2.5-9.4-9.9-9.8
		c-6.1-0.2-12.1,0-18.6,0c0,19.4,0,38.6,0,58c-6.8,0-13.1,0-19.7,0C359.8,513.9,359.8,489.2,359.8,464z"/>
	<path fill="#52070B" d="M304.5,480.8c0,19.4,0,38.4,0,57.8c-6.6,0-12.9,0-19.4,0c0-24.9,0-49.6,0-74.6c1.6,0,2.8,0,4.3,0
		c13.2,0.2,26.5,0.3,39.7,0.5c2,0,4.3,0.5,6.3,0.9c10.6,2.5,16.8,8.3,17.5,19.5c0.8,17.8,0.2,35.7,0.2,53.7c-6.1,0-12.6,0-19.4,0
		c0-1.1,0-2.2,0-3.3c0-13.4,0-26.8,0-40c0-2.4-0.2-4.6-0.5-6.9c-0.8-5.2-2.7-7.1-7.9-7.4C318.4,480.7,311.8,480.8,304.5,480.8z"/>
	<path fill="#52070B" d="M168.8,538.6c-6.9,0-13.7,0-20.5,0c0-33.9,0-67.6,0-101.4c6.8,0,13.5,0,20.5,0
		C168.8,470.9,168.8,504.8,168.8,538.6z"/>
	<path fill="#52070B" d="M561.7,538.8c-6.8,0-13.4,0-20,0c0-33.7,0-67.4,0-101.4c6.6,0,13.2,0,20,0
		C561.7,471.1,561.7,504.8,561.7,538.8z"/>
	<path fill="#52070B" d="M198.2,437.2c0,33.9,0,67.4,0,101.4c-6.6,0-13.1,0-20,0c0-33.7,0-67.4,0-101.4
		C185,437.2,191.5,437.2,198.2,437.2z"/>
	<path fill="#52070B" d="M884.8,538.6c-6.9,0-13.7,0-20.5,0c0-24.9,0-49.6,0-74.5c6.8,0,13.5,0,20.5,0
		C884.8,489,884.8,513.8,884.8,538.6z"/>
	<path fill="#52070B" d="M455.1,538.6c-6.9,0-13.7,0-20.5,0c0-24.9,0-49.6,0-74.5c6.8,0,13.5,0,20.5,0
		C455.1,489,455.1,513.8,455.1,538.6z"/>
	<path fill="#52070B" d="M118.7,464.2c6.8,0,13.5,0,20.5,0c0,24.9,0,49.6,0,74.5c-6.8,0-13.5,0-20.5,0
		C118.7,513.9,118.7,489.2,118.7,464.2z"/>
	<path fill="#52070B" d="M139.2,437.1c0,6.3,0,12.3,0,18.4c-6.9,0-13.5,0-20.8,0c0-5.7,0-11.2,0-16.7c0-0.6,0.9-1.6,1.4-1.6
		C126.3,437.1,132.7,437.1,139.2,437.1z"/>
	<path fill="#52070B" d="M864.4,437.2c6.8,0,13.5,0,20.5,0c0,6,0,12,0,18.1c-6.6,0-13.4,0-20.5,0
		C864.4,449.4,864.4,443.4,864.4,437.2z"/>
	<path fill="#52070B" d="M455.2,437.2c0,6.1,0,12,0,18.1c-6.8,0-13.5,0-20.5,0c0-6,0-12,0-18.1C441.5,437.2,448.2,437.2,455.2,437.2
		z"/>
	<path fill="#52070B" d="M989.2,551.7c0.9,2.2,1.9,4.4,2.8,6.5c-2.8,1.1-3.1-1.1-3.6-2.7c-0.9-2.4-2-4.4-5.4-3.3
		c-1.6,1.6,1.6,5.4-2.7,6.5c0-5.2,0-10.1,0-15.4c1.7,0,3.5,0,5.4,0c2.4,0,4.7,0,5.8,2.7S991.3,550.3,989.2,551.7z M982.8,550.9
		c2.5-0.9,4.6-1.6,6.3-2.5c0.3-0.2,0.2-2-0.2-2.2c-1.9-0.6-3.9-1.1-6.1-1.6C982.8,547,982.8,548.4,982.8,550.9z"/>
</g>
</svg>
