<?xml version="1.0" encoding="utf-8"?>
<!-- Generator: Adobe Illustrator 18.1.1, SVG Export Plug-In . SVG Version: 6.00 Build 0)  -->
<!DOCTYPE svg PUBLIC "-//W3C//DTD SVG 1.1//EN" "http://www.w3.org/Graphics/SVG/1.1/DTD/svg11.dtd">
<svg version="1.1" id="Calque_1" xmlns="http://www.w3.org/2000/svg" xmlns:xlink="http://www.w3.org/1999/xlink" x="0px" y="0px"
	 viewBox="0 0 147.6 31.8" enable-background="new 0 0 147.6 31.8" xml:space="preserve">
<g>
	<path fill="#52070B" d="M147.6,31.6c-1.8,0-3.6,0-5.3,0c-1.1-3.7-1.3-18.9-0.3-25c1.8,0,3.7,0,5.6,0
		C147.6,14.9,147.6,23.3,147.6,31.6z"/>
	<path fill="#52070B" d="M5.7,31.5c-1.6,0-3.2,0-4.8,0c-1-3.6-1.1-15.3-0.3-18.4c1.5-5.5,6.9-8.3,12.6-6c1.9,0.8,3.2,0.7,5,0
		c6.5-2.4,12.5,1.3,13,8c0.4,5.3,0.1,10.6,0.1,16.2c-2.1,0-3.9,0-6.3,0c0-2.3-0.1-4.5-0.1-6.8c0-3,0-6-0.1-9c0-1.7-0.9-2.9-2.7-3
		c-2-0.2-3.1,1.1-3.4,2.9c-0.2,1.1-0.1,2.3-0.1,3.5c0,4,0,8,0,12.3c-2,0-3.7,0-6,0c0-4.5,0-8.9,0-13.3c0-3.8-0.8-5.2-3-5.4
		c-2.3-0.2-3.2,1.3-3.3,5.5c-0.1,4.2-0.1,8.3-0.1,12.5C6.2,30.7,6.1,30.8,5.7,31.5z"/>
	<path fill="#52070B" d="M61.7,0c2.3,0,3.9,0,5.7,0c0.2,2,0.4,3.8,0.7,6.1c2.5,0.1,4.9,0.2,7.3,0.4c5.5,0.3,9.7,3.6,11.5,8.8
		c1.6,4.9,0.1,10.2-4,13.5c-4,3.2-8.5,3.7-13.2,2c-4.6-1.7-7.6-5.2-7.8-10.1C61.4,13.9,61.7,7.1,61.7,0z M67.6,12.5
		c0.2,3.2,0.1,5.8,0.7,8.3c0.8,3.3,4,5.2,7.2,4.8c3.1-0.4,5.8-3.5,5.8-6.5c0-3.2-2.7-6.2-6.3-6.5C72.9,12.4,70.7,12.5,67.6,12.5z"/>
	<path fill="#52070B" d="M46.3,31.7c-7.1-0.1-12.7-5.6-12.7-12.6c0-7.2,5.7-12.8,13.1-12.7C53.8,6.5,59.5,12,59.5,19
		C59.5,26.1,53.7,31.7,46.3,31.7z M46.7,25.6c3.7-0.1,6.6-3.2,6.4-6.9c-0.2-3.6-3.4-6.5-7-6.2c-3.3,0.2-6.4,3.4-6.3,6.6
		C39.8,22.5,43.2,25.7,46.7,25.6z"/>
	<path fill="#52070B" d="M135.5,6.4c0,2.4,0,4,0,5.5c-4.2,1.7-9-0.9-12.9,1.7c0.6,2.3,2,2.2,3.3,2.3c2.1,0.1,4.3,0.1,6.4,0.6
		c3.9,0.9,6.3,4.5,5.9,8.1c-0.4,3.9-3.2,6.8-7.2,7c-4.1,0.2-8.3,0.1-12.8,0.1c0-1.9,0-3.6,0-5.5c4.3-0.4,8.7-0.8,13-1.3
		c0.2,0,0.3-0.9,0.6-2c-1.5-0.2-2.9-0.5-4.2-0.6c-2-0.2-4-0.2-5.9-0.7c-3.7-1.1-5.5-4.1-5.2-8c0.3-3.7,2.9-6.5,6.6-6.9
		c1.3-0.2,2.7-0.1,4-0.1C129.8,6.4,132.4,6.4,135.5,6.4z"/>
	<path fill="#52070B" d="M107.8,6.6c2.3,0,4.1,0,6.1,0c0,5.2,0.4,10.2-0.1,15c-0.7,6.4-5.8,10.1-12.2,10
		c-5.9-0.2-10.9-4.4-11.5-10.4c-0.4-4.7-0.1-9.6-0.1-14.6c2.1,0,3.9,0,6.2,0c0,2,0.1,4,0.1,5.9c0,2.2-0.1,4.3,0,6.5
		c0.2,4.1,2.6,6.7,5.9,6.6c2.9-0.1,5.9-3,5.6-6.4c-0.2-2.3,0-4.7,0-7C107.8,10.5,107.8,8.9,107.8,6.6z"/>
</g>
</svg>
