<?xml version="1.0" encoding="utf-8"?>
<!-- Generator: Adobe Illustrator 18.1.1, SVG Export Plug-In . SVG Version: 6.00 Build 0)  -->
<!DOCTYPE svg PUBLIC "-//W3C//DTD SVG 1.1//EN" "http://www.w3.org/Graphics/SVG/1.1/DTD/svg11.dtd">
<svg version="1.1" id="Calque_1" xmlns="http://www.w3.org/2000/svg" xmlns:xlink="http://www.w3.org/1999/xlink" x="0px" y="0px"
	 viewBox="-148 208 1311 461" enable-background="new -148 208 1311 461" xml:space="preserve">
<g>
	<path fill="#52070B" d="M410.8,466.2c-3.4-10.1-11.5-16.2-23-13.5c-7.4,1.4-14.9,4.1-23,6.8c0-0.7-0.7-2.7-0.7-3.4
		c0.7-27.7,1.4-55.4,10.8-82.4c1.4-6.1,2.7-13.5,1.4-20.3c-0.7-10.8-9.5-19.6-20.9-20.9c-9.5-1.4-18.2,2.7-23,13.5
		c-4.1,11.5-6.8,25-10.1,37.2c-4.1,16.9-6.1,33.8-16.9,47.3c-4.1,6.1-9.5,10.8-16.9,9.5c-8.1-1.4-10.1-8.1-10.8-14.9
		c-2.7-17.6-2.7-34.5,6.8-50.7c10.1-18.2,1.4-37.8-17.6-41.2c-12.8-2.7-23,3.4-28.4,16.2c-7.4,16.9-8.1,34.5-7.4,52
		c0.7,19.6-10.8,29.7-23.6,40.5c-4.7,4.1-7.4,2.7-8.1-4.1c0-1.4,0-3.4,0-4.7c1.4-21.6,2.7-43.2,4.1-64.9c1.4-17.6-6.8-27-24.3-26.4
		c-8.1,0-14.9,4.7-20.3,10.8c-10.1,12.8-20.3,25-30.4,37.2c-1.4,1.4-4.1,2.7-6.1,3.4c-0.7-2.7-3.4-4.1-3.4-6.8
		c-0.7-10.1,0-19.6-0.7-29.7c-0.7-11.5-4.7-16.2-14.9-18.2c-9.5-2.7-17.6,0.7-23.6,9.5c-4.7,6.1-9.5,14.2-13.5,23
		c-3.4,4.1-5.4,10.1-10.1,14.9c-1.4,2-4.7,2.7-7.4,2.7c-0.7,0-2.7-4.1-2.7-6.1c-0.7-8.1,0-15.5-0.7-24.3
		c-0.7-10.1-4.7-13.5-14.2-14.2c-12.8,0-20.3,6.8-25,17.6C3.4,368.2,2,375,0,381.8c0,18.2,0,37.2,0,55.4c0.7,11.5,1.4,23.6,2.7,35.1
		c0.7,11.5,6.1,18.2,16.2,20.9c9.5,1.4,19.6-3.4,24.3-12.8c1.4-3.4,2.7-6.1,4.1-9.5c6.8-14.9,12.8-31.1,20.3-45.3
		c1.4-3.4,6.8-4.7,10.1-6.8c1.4,3.4,3.4,7.4,4.1,10.8c0,12.8-0.7,26.4-0.7,38.5c0,11.5,6.8,19.6,16.9,20.9
		c11.5,2.7,20.9-1.4,26.4-12.8c4.1-8.1,6.8-17.6,10.8-27c3.4-8.1,6.8-16.9,10.8-24.3c1.4-2.7,6.8-4.7,10.1-4.1
		c2.7,0.7,4.1,6.1,4.7,9.5c0.7,10.8,0,21.6,0.7,33.1c1.4,23.6,24.3,37.2,45.3,25c9.5-4.7,16.9-14.2,25-21.6c2.7-1.4,3.4-4.7,4.7-6.8
		c6.1,8.1,10.1,16.2,16.2,23c14.9,19.6,35.1,20.3,52,2.7c4.1-4.1,7.4-10.1,12.8-14.9c0.7,11.5-0.7,20.3-10.8,27
		c-18.2,11.5-34.5,26.4-48,43.9c-38.5,52.7-7.4,104.1,38.5,124.3c16.2,6.8,31.1,0.7,39.9-14.2c4.1-8.1,8.1-17.6,10.1-27.7
		c6.1-34.5,10.1-68.9,14.9-103.4c0.7-3.4,3.4-8.1,6.8-10.1c10.1-6.1,20.9-11.5,31.8-16.9C410.8,487.8,414.9,480.4,410.8,466.2z
		 M305.4,597.3c-0.7,6.1-4.7,6.8-10.1,3.4c-6.8-6.1-10.1-14.2-8.1-23.6c2.7-13.5,11.5-23.6,21.6-31.8c0.7,0,1.4,0.7,3.4,0.7
		C310.1,562.8,308.1,579.7,305.4,597.3z"/>
	<path fill="#52070B" d="M953.4,439.2c6.1-2.7,10.8-4.1,14.9-6.8c13.5-6.8,20.3-6.8,27,1.4c6.8,8.1,6.8,21.6-1.4,31.1
		c-10.1,11.5-23,19.6-37.2,24.3c-6.8,2.7-14.9,2.7-21.6,1.4c-13.5-1.4-20.9-10.1-21.6-24.3c-0.7-11.5,0-23.6-0.7-35.1
		c0-3.4-3.4-6.8-4.7-10.1c-3.4,1.4-8.1,2.7-10.1,6.1c-4.1,7.4-6.8,14.9-10.1,23c-3.4,9.5-6.8,18.2-10.8,27.7
		c-4.7,10.8-14.2,14.2-26.4,12.8c-10.1-1.4-16.2-8.1-16.9-20.3c-0.7-13.5,0-27.7,0-41.2c0-3.4-1.4-6.1-3.4-8.1
		c-3.4,1.4-7.4,1.4-9.5,4.1c-4.7,7.4-10.1,16.2-14.2,25c-4.7,10.1-8.1,20.9-13.5,31.8c-6.1,12.8-16.9,16.9-29.7,12.8
		c-8.1-2.7-12.8-8.1-12.8-17.6c0-18.2,0.7-37.8,0.7-56.1c0-6.1,0.7-10.8,0.7-16.9c0-4.1,2.7-10.1-4.1-11.5
		c-4.7-0.7-12.8,7.4-13.5,12.8c-0.7,31.1-14.2,56.1-37.8,76.4c-27,23-52.7,19.6-74.3-8.1c-0.7-0.7-1.4-1.4-2.7-3.4
		c-3.4,2.7-6.1,4.1-9.5,6.1c-24.3,16.9-51.4,24.3-81.1,16.2c-24.3-6.8-38.5-25-40.5-50.7c-1.4-37.2,9.5-66.2,33.8-91.9
		c12.8-13.5,28.4-17.6,45.9-14.2c20.9,3.4,33.1,25,26.4,47.3c-3.4,10.8-8.1,20.9-20.3,26.4c-6.1,2.7-12.8,3.4-18.2-1.4
		c-4.7-4.7-3.4-10.8-0.7-17.6c0.7-2.7,0-6.8,0-10.1c-3.4,1.4-6.8,2.7-9.5,4.1c-12.8,14.2-16.2,31.8-13.5,50.7
		c0.7,9.5,8.1,16.2,20.3,17.6c20.9,3.4,38.5-3.4,54.1-18.2c1.4-1.4,2.7-4.7,2.7-8.1c3.4-16.9,4.7-33.8,10.1-49.3
		c14.2-41.9,60.8-56.1,90.5-28.4c4.1,3.4,7.4,7.4,11.5,11.5c7.4-6.1,14.2-11.5,21.6-16.9c9.5-6.8,18.2-11.5,30.4-8.1
		c8.1,1.4,14.2,6.8,16.2,14.9c2.7,10.8,3.4,23,4.7,34.5c0.7,4.1,1.4,7.4,2.7,11.5c0.7,0,1.4,0,2.7,0.7c1.4-2.7,4.1-4.1,4.7-6.8
		c10.1-14.2,17.6-27.7,26.4-41.2c6.8-10.1,16.2-13.5,26.4-10.1c7.4,2.7,12.8,7.4,13.5,16.9c0,10.1,0,19.6,0.7,29.7
		c0,3.4,2.7,6.1,3.4,8.1c2.7-1.4,6.1-2.7,7.4-4.7c10.1-12.8,20.3-25,30.4-37.2c6.1-6.8,13.5-10.1,23.6-9.5
		c14.2,0.7,20.9,10.1,20.3,24.3c-1.4,21.6-3.4,44.6-4.1,66.2C952.7,433.1,952.7,434.5,953.4,439.2z M700,396.6
		c-0.7-3.4-1.4-10.8-6.1-16.9c-9.5-16.2-27-14.9-35.1,0.7c-4.1,8.1-7.4,17.6-10.1,26.4c-3.4,11.5-4.1,23.6,0.7,34.5
		c6.8,14.9,17.6,17.6,29.7,6.8C692.6,435.8,698,419.6,700,396.6z"/>
	<path fill="#52070B" d="M470.3,459.5c0,13.5-11.5,25-25,25c-11.5,0-20.3-7.4-20.3-20.3c0-14.2,10.8-26.4,25-26.4
		C460.8,437.2,470.3,447.3,470.3,459.5z"/>
</g>
</svg>
