<?xml version="1.0" encoding="utf-8"?>
<!-- Generator: Adobe Illustrator 18.1.1, SVG Export Plug-In . SVG Version: 6.00 Build 0)  -->
<!DOCTYPE svg PUBLIC "-//W3C//DTD SVG 1.1//EN" "http://www.w3.org/Graphics/SVG/1.1/DTD/svg11.dtd">
<svg version="1.1" id="Calque_1" xmlns="http://www.w3.org/2000/svg" xmlns:xlink="http://www.w3.org/1999/xlink" x="0px" y="0px"
	 viewBox="0 412 1000 505" enable-background="new 0 412 1000 505" xml:space="preserve">
<path fill="#52070B" d="M740.8,604.6c6.2-33-1.7-41.9-15.6-41.9c-14.6,0-24.2,13.2-29.6,41.9c-6.2,33,1.7,41.9,15.6,41.9
	C726,646.6,735.4,633.4,740.8,604.6 M791.2,604.6c-10,54.1-41.3,81.5-83.9,81.5c-55,0-69.3-41.3-61.9-81.5
	c10-54.1,41.3-81.5,84.1-81.5C784.4,523.1,798.7,564.4,791.2,604.6"/>
<path fill="#52070B" d="M328.7,524.2c-51.1,0-89.5,33.4-99.3,87.3c-4.8,26.3-0.5,44.4,9.9,56.8c6.6,8.2,14.6,14.2,27.6,15.1
	c23.9,1.5,41-14.2,47.7-24.8h0.6c-0.5,16.5,10.9,24.8,22,24.8c14,0,24.9-7.2,30.5-19.4c-1.8-1.1-3.2-2-4.3-3.4
	c-3.9-4.8-3.7-12-1.4-24.9l19-102.9C368.7,528.2,351.1,524.2,328.7,524.2 M296.9,644.2c-8.3,0-13.2-2.9-17.1-8.3
	c-4.6-6.6-6.2-16.8-3.2-31.1c6-29.1,18.8-41.1,37.6-41.3c5.9,0,11.4,0.6,15.2,1.8l-13.1,70.2C311.4,640.6,303.1,644.2,296.9,644.2"
	/>
<path fill="#52070B" d="M996.3,548.4c-2.5,2.3-5.2,3.5-8.6,3.5c-3.5,0-6.5-1.2-8.8-3.5c-2.5-2.3-3.5-5.4-3.5-8.8
	c0-3.5,1.2-6.6,3.9-9.1c2.5-2.3,5.2-3.4,8.5-3.4c3.4,0,6.3,1.2,8.8,3.7s3.7,5.4,3.7,8.8C1000,543.1,998.8,546.1,996.3,548.4
	 M980.3,532.4c-2,2-2.9,4.5-2.9,7.2c0,2.9,1.1,5.2,3.1,7.2s4.5,3.1,7.2,3.1s5.2-1.1,7.2-3.1s2.9-4.5,2.9-7.2c0-2.8-0.9-5.1-2.9-7.2
	c-2-2-4.5-3.1-7.2-3.1C984.8,529.3,982.3,530.4,980.3,532.4z M982.1,546.4v-13.7c0.9,0,2.2,0,3.9,0s2.6,0,2.8,0
	c1.1,0.2,2,0.3,2.8,0.8c1.2,0.6,1.8,1.7,1.8,3.2c0,1.1-0.3,2-0.9,2.5c-0.6,0.5-1.4,0.8-2.3,0.9c0.9,0.2,1.5,0.5,2,0.8
	c0.8,0.6,1.2,1.7,1.2,3.1v1.2c0,0.2,0,0.3,0,0.5c0,0.2,0,0.3,0.2,0.5l0.2,0.5h-3.4c-0.2-0.5-0.2-1.1-0.2-1.8c0-0.8-0.2-1.4-0.2-1.7
	c-0.2-0.5-0.5-0.8-1.1-1.1c-0.3-0.2-0.6-0.2-1.2-0.2h-0.8h-0.8v4.9h-4V546.4z M988.8,535.4c-0.5-0.2-1.2-0.3-2.2-0.3h-0.9v4h1.4
	c0.8,0,1.5-0.2,2-0.5c0.5-0.3,0.8-0.9,0.8-1.7C989.8,536.2,989.5,535.7,988.8,535.4z"/>
<path fill="#52070B" d="M477.1,563.5c8.3-0.2,12.9,2.9,16.8,8.3c4.8,6.8,5.7,18.8,2.8,33c-6,29-17.6,39.3-36.8,39.3
	c-5.9,0-11.4-0.6-15.2-1.8l13.1-70.2C462.7,567,470.4,563.6,477.1,563.5 M438.2,677.1c21.1,6,39.9,4.2,55.6-3.4
	c26.3-12.6,44.2-39,50.2-72.7c4.8-26.3,0-46.5-8.6-58.7c-6-8.6-16.8-17.1-33.1-18c-20.6-1.4-35.1,6.9-44.7,18.3H457
	c0.3-11.6-7.5-18.3-22.9-18.3c-14,0-24.9,7.2-30.5,19.4c1.8,1.1,3.2,2,4.3,3.4c3.9,4.8,3.7,12.2,1.4,24.9l-29.4,157.9H428
	L438.2,677.1z"/>
<path fill="#52070B" d="M533.3,802.5c-6.2,32.7-27.4,49.1-51.7,48.1c-19.1-0.8-32.2-15.9-28.2-37.7c5.2-28,31-38.5,57.3-38.5h27.7
	L533.3,802.5 M918.4,526.7l-49,111.8h-2.3l-5.9-111.8h-48.8l19.4,166c-17.1,32.2-48.4,37.1-76.4,37.1H594.9l37.7-203.1h-48.2
	l-37.7,203.1h-30.5c-49.6,0-101.3,21.4-112.1,78.5c-11.1,59.1,33.7,87.8,75.3,87.8c61,0,92.7-44.2,101-89.2l6.3-32.8h168.6
	c80.7,0,107.5-35.1,136.8-93.6c26.5-52.8,77-153.9,77-153.9h-50.7V526.7z"/>
<path fill="#52070B" d="M189.6,680.8l38-204.2H642l8.2-43.9H110c-65,0-101.5,21.6-108.7,67c-4.2,25.4,2,46.2,16.5,61.8
	c15.4,16.6,40.4,24,65.5,24.2l8-42.8c-14.8-0.3-27.3-3.2-34.3-10.5c-6.3-6.5-8.6-15.7-6.5-27c4.5-22.5,26.8-29,64.7-29h60.4
	l-38,204.4H189.6"/>
</svg>
