<?xml version="1.0" encoding="utf-8"?>
<!-- Generator: Adobe Illustrator 18.1.1, SVG Export Plug-In . SVG Version: 6.00 Build 0)  -->
<!DOCTYPE svg PUBLIC "-//W3C//DTD SVG 1.1//EN" "http://www.w3.org/Graphics/SVG/1.1/DTD/svg11.dtd">
<svg version="1.1" id="Calque_1" xmlns="http://www.w3.org/2000/svg" xmlns:xlink="http://www.w3.org/1999/xlink" x="0px" y="0px"
	 viewBox="0 0 705.2 321" enable-background="new 0 0 705.2 321" xml:space="preserve">
<g>
	<path fill="#52070B" d="M555.9,0c1.1,0.4,2.2,0.7,3.2,1.2c2.9,1.4,4.4,4.1,5.3,7c1.4,4.6,1.3,9.3,0.8,14.1
		c-1.1,10.7-2.1,21.5-3,32.2c-1,11.3-2.1,22.5-3,33.8c-1.3,16.5-3.1,33-3,49.6c0,6.5,0.4,12.9,0.7,19.4c0.1,1.3,0.5,2.6,1,3.7
		c1.2,2.8,4,4,6.7,2.7c2-0.9,3.8-2.3,5.5-3.8c4.9-4.5,8.6-10,12.4-15.5c0.3-0.4,0.4-1,0.4-1.5c0.4-25.2,9.2-47.3,25.5-66.4
		c6.1-7.1,13.1-13.1,22-16.6c8.4-3.4,17.1-3.3,25.5-0.3c9.1,3.1,13.7,10.3,15.2,19.4c2.9,18.1-1.7,34-14.6,47.2
		c-6.7,6.9-14.9,11.7-23.8,15.2c-2.9,1.2-5.9,2.1-8.8,3.1c-0.8,0.3-1.1,0.6-1,1.4c0.3,2.2,0.5,4.4,1,6.5c0.8,3.3,2.7,4.8,6.1,5.1
		c10.1,0.8,19.3-1.8,27.9-6.8c15.2-8.7,26.6-21.1,35.6-35.9c1.4-2.2,4.6-3.8,7.1-2.9c1.1,0.4,2.3,1.5,2.9,2.6
		c2.2,4.2,2,8.8,0.9,13.3c-1.6,6.2-4.7,11.8-8.3,17c-13,18.5-29.4,33.2-50.2,42.5c-9.8,4.4-20,6.2-30.8,4.6
		c-12.1-1.7-20.8-8-26.2-19c-0.2-0.5-0.5-0.9-0.7-1.5c-2.4,2.7-4.7,5.3-7.1,7.8c-6.5,6.7-13.5,12.8-22,16.7
		c-7.3,3.4-15,3.5-22.6,1.9c-6.2-1.3-9.7-5.5-10.4-12.7c-0.6-5.2-0.6-10.4-0.8-15.6c-0.3-6.9-0.4-13.8-0.6-20.9
		c-1.2,1.1-2.3,2.2-3.3,3.3c-5.9,6.2-12.5,11.6-19.7,16.4c-1,0.6-1.4,1.4-1.6,2.5c-2.5,16.1-3.4,32.4-4.7,48.7
		c-1.5,17.9-3,35.8-6.9,53.4c-1.4,6.3-3.3,12.4-5.8,18.4c-3.7,8.8-10.3,13.2-19.5,14.4c-6.8,1-13.6,0.5-20.4,0.4
		c-6.7-0.1-13.4-0.2-20.2-0.5c-9.9-0.4-19.9-1-29.8-1.5c-12.4-0.7-24.7-1.6-37.1-2.3c-13.4-0.8-26.7-1.5-40.1-2.1
		c-12.6-0.5-25.3-0.9-38-0.9c-15.2,0-30.4,0.2-45.6,0.7c-15,0.5-30.1,1.2-45.1,2.2c-13.3,0.8-26.6,2-39.7,4.7
		c-3.6,0.7-7.1,1.9-10.6,3.1c-1.1,0.3-2.1,1-2.9,1.7c-0.6,0.6-1.3,1.5-1.4,2.3c-0.2,3.3-2.1,5.1-4.8,6.3c-1.3,0.5-2.6,0.9-4,1.3
		c-0.9,0-1.9,0-2.8,0c-0.4-0.2-0.7-0.4-1.1-0.5c-5.9-2.1-8.1-5.8-6.9-12c1-5.2,3.9-9.1,7.9-12.4c6.1-5.1,13.2-8,20.7-10.4
		c11.2-3.6,22.8-5.4,34.5-6.6c8.3-0.8,16.7-1.8,25-2.6c10-0.9,19.9-1.7,29.9-2.4c18.7-1.2,37.5-1.6,56.3-1.3
		c15.3,0.2,30.6,0.7,45.9,1.2c16.1,0.5,32.2,1.1,48.3,1.6c12.7,0.4,25.4,0.7,38.1-0.4c5.3-0.5,10.6-1.5,15.9-2.4
		c6.7-1.2,11.3-5.2,14.8-10.8c4-6.6,6.4-13.9,8.1-21.4c2.5-10.5,3.7-21.2,4.4-32c0.3-5,0.8-10,1.1-15c0.1-0.8,0.1-1.6,0.2-2.7
		c-2.4,1.2-4.5,2.4-6.7,3.4c-13.3,6.3-26.3,5.8-39.1-1.4c-5.3-3-9.3-7.5-12.3-12.8c-0.3-0.4-0.5-0.9-0.7-1.2
		c-3.9,4.5-7.6,9-11.5,13.2c-6.6,7.1-13.8,13.5-22.7,17.7c-5.5,2.6-11.4,3.4-17.4,2.7c-6.1-0.7-10.2-4.2-12.6-9.7
		c-2.3-5.2-3.3-10.7-3.4-16.4c-0.3-10,1.3-19.7,3-29.5c0.9-5.3,1.7-10.6,2.4-15.9c0.2-1.8,0.4-3.7-1.4-4.8c-1.7-1.1-3.4-0.2-5,0.7
		c-3.4,1.9-6.1,4.7-8.4,7.8c-3.7,5-6.8,10.5-7.8,16.7c-0.6,4-0.3,8.1-0.1,12.1c0.3,9.4,0.8,18.8,1,28.3c0.1,3.2-0.5,6.4-0.8,9.6
		c-0.2,2.4-1.5,4-3.6,4.9c-10.5,4.3-20.5,3.3-28.2-5.4c-5.6-6.3-8.4-13.9-9.2-22.2c-0.7-6.5-0.7-13.1-1-19.5
		c-0.1,0.2-0.4,0.7-0.7,1.2c-8.5,16.3-19.8,30.7-32.3,44.1c-2.8,3-6.2,5.7-9.7,7.9c-10.2,6.3-21.1,2.6-25.5-8.6
		c-2.2-5.5-2.7-11.4-3.1-17.3c0-0.3,0-0.6-0.2-0.9c-0.7,1.8-1.3,3.6-2,5.3c-3,7.6-6.9,14.7-12.8,20.5c-4.5,4.4-9.8,7.2-16.1,8.4
		c-5.5,1-10.1-0.6-14.1-4.2c-6.6-6-10.3-13.5-12-22.1c-2.8-13.3-3.3-26.8-2.6-40.3c0.6-12.3,2.4-24.5,5.8-36.3
		c1.7-6,4-11.8,7.5-17.1c5.6-8.4,13.5-12.8,23.3-13.9c1.7-0.2,3.5-0.2,5.3-0.1c4,0.3,6.6,2.6,8,6.3c1.7,4.6,1.5,9.3,0.5,14
		c-1.9,8.8-4.9,17.2-8.1,25.6c-3,8-5.5,16.2-6.3,24.7c-0.5,5.3-0.5,10.5,1.7,15.5c0.5,1.1,1.2,2.2,1.9,3.2c1.9,2.4,4.2,2.9,6.7,1.2
		c1.8-1.2,3.4-2.8,4.7-4.5c3.1-4.2,4.9-9.1,6.8-14c3.1-7.9,4-16.2,5-24.6c1.3-10.4,2.2-20.9,5.3-31.1c1.6-5.4,4-10.4,8.1-14.4
		c2.6-2.5,5.6-4.3,9.2-4.5c3.8-0.3,7.6-0.5,11.4-0.1c7,0.6,11,4.9,12,12.1c0.9,6.3,0.1,12.4-1.5,18.4c-3.4,13.1-7.1,26.2-10.6,39.4
		c-1.1,4.1-2,8.2-2.8,12.3c-0.3,1.4-0.3,2.9,0,4.3c0.7,3,3.8,3.8,5.9,1.6c1.4-1.5,2.7-3.2,3.6-5.1c3.8-7.8,7.7-15.7,11.2-23.7
		c6.2-13.8,12.1-27.7,19.4-40.9c4.5-8.1,9.9-15.5,17.5-21.1c4.3-3.1,9-4.7,14.3-4.6c4.1,0.1,7,1.8,8.2,5.7c0.9,3,1.5,6.3,1.6,9.5
		c0.3,10.3-0.9,20.4-3.3,30.4c-0.1,0.3-0.1,0.7-0.2,1.4c2-4.5,3.8-8.7,5.7-12.8c5.2-10.6,11.2-20.7,19.7-29.1
		c4.4-4.3,9.2-7.9,15.2-9.5c3.8-1,7.6-1.2,11.4-0.1c6.5,1.9,10.2,6.5,12,12.8c1.5,5.4,1.5,10.9,1.1,16.4
		c-0.7,10.1-3.6,19.9-5.6,29.8c-1.6,8.2-3,16.4-4.4,24.6c-0.3,1.7-0.1,3.4,0.1,5.1c0.5,3.2,2.9,4.6,5.7,2.9c2.5-1.6,5-3.5,6.9-5.7
		c4-4.7,7.5-9.7,11.2-14.6c0.4-0.5,0.4-1.2,0.5-1.9c1.2-27.4,12.7-49.4,34.4-66c8-6.1,17.2-10,27.3-11.2c9.5-1.1,18.9-0.2,27.6,4
		c10.9,5.3,16.5,14.4,18.4,26.1c1,6.5,0.6,13-0.4,19.4c-0.5,2.9-0.6,5.9-0.8,8.9c0.1,0.1,0.2,0.2,0.4,0.3c1.8-1.9,3.7-3.7,5.4-5.7
		c5.3-6.1,9.5-12.9,13.3-20c0.3-0.5,0.3-1.1,0.3-1.6c0.6-16.1,0.9-32.2,1.7-48.3c0.5-10.7,1.4-21.4,3.7-31.9
		c1.6-7.7,5.1-14.5,10.6-20.2c2.4-2.5,5.1-4.1,8.6-4.3c0.3,0,0.5-0.2,0.8-0.3C551.8,0,553.9,0,555.9,0z M468.6,138.5
		c0.1-5.5,0.1-9.9-1.9-14.1c-2.2-4.8-6-6.9-11.1-6.1c-4.8,0.7-8.9,2.9-11.6,7c-4.7,7.1-6.5,14.9-4.1,23.2c1.4,4.8,4.2,8.4,9.2,9.7
		c8.9,2.3,17.7-3.2,18.7-11.9C468.3,143.4,468.5,140.4,468.6,138.5z M622.8,117.5c5.1-1.3,9.6-3,13.2-6.6c4.5-4.6,5.3-10.2,4.5-16.2
		c-0.3-1.7-0.9-3.6-1.9-5c-1.7-2.6-4.5-2.7-6.7-0.6c-1,1-1.9,2.1-2.7,3.2C624.6,100,623.4,108.6,622.8,117.5z"/>
	<path fill="#52070B" d="M72.5,185.8c6.5-14.8,9.8-30.4,13.1-46C91.2,114.5,96.5,89.3,102,64c0.6-3,1.5-6,2.2-8.9
		c2.1-8.7,8.2-13.2,16.4-15.3c3.2-0.8,6.4-0.7,9.6,0.1c6.9,1.7,10.5,6.3,11.8,13c1.4,7.6,0.6,15.2-1,22.6
		c-9.6,44.6-22.6,88.2-38.8,130.8c-3.9,10.1-8.4,20-15.2,28.6c-5.8,7.4-13.7,9.6-22.7,8.8c-2.7-0.2-4.7-1.8-6.5-3.7
		c-4-4.4-6.3-9.7-8.5-15c-6-14.6-10.7-29.8-15.3-44.9c-6-19.7-11.8-39.4-17.9-59c-3.3-10.6-7.2-21-10.5-31.5
		c-2.2-7.1-4.8-14.2-5.5-21.7c-0.3-3.4-0.1-6.8,0.9-10c1.4-4.6,4.6-7.5,8.8-9.3c3.2-1.4,6.5-2.6,10.1-2.3c5.2,0.4,9.2,3.1,12.5,6.9
		c4.2,4.8,6.9,10.5,9.2,16.4c4.1,10.4,6.8,21.2,9.3,32.1c5.6,24.2,11.4,48.3,18.4,72.2C70.4,177.7,71.5,181.8,72.5,185.8z"/>
</g>
</svg>
