<?xml version="1.0" encoding="utf-8"?>
<!-- Generator: Adobe Illustrator 16.0.4, SVG Export Plug-In . SVG Version: 6.00 Build 0)  -->
<!DOCTYPE svg PUBLIC "-//W3C//DTD SVG 1.1//EN" "http://www.w3.org/Graphics/SVG/1.1/DTD/svg11.dtd">
<svg version="1.1" id="Layer_1" xmlns="http://www.w3.org/2000/svg" xmlns:xlink="http://www.w3.org/1999/xlink" x="0px" y="0px"
	 width="470.817px" height="137.21px" viewBox="56.121 316.93 470.817 137.21"
	 enable-background="new 56.121 316.93 470.817 137.21" xml:space="preserve">
<g>
	<path fill="#010101" d="M167.443,375.865c-1.591-2.632-4.223-3.978-7.834-3.978c-4.345,0-7.344,2.02-8.935,5.998
		c-0.857,2.142-1.285,4.835-1.285,8.079c0,5.141,1.408,8.812,4.223,10.893c1.652,1.225,3.672,1.836,5.998,1.836
		c3.305,0,5.875-1.224,7.65-3.733c1.774-2.509,2.631-5.814,2.631-9.976C169.891,381.557,169.096,378.497,167.443,375.865
		 M176.562,367.542c3.672,3.855,5.569,9.486,5.569,16.891c0,7.833-1.836,13.77-5.447,17.871s-8.262,6.181-13.954,6.181
		c-3.611,0-6.671-0.856-9.058-2.631c-1.285-0.979-2.57-2.387-3.856-4.284v29.805h-11.75v-68.605h11.383v6.548
		c1.286-1.958,2.632-3.427,4.101-4.59c2.632-1.958,5.814-2.938,9.486-2.938C168.361,361.789,172.89,363.687,176.562,367.542"/>
	<path fill="#010101" d="M199.696,393.001c0.245,2.081,0.795,3.55,1.652,4.406c1.469,1.53,4.223,2.326,8.201,2.326
		c2.326,0,4.223-0.367,5.569-1.041c1.407-0.673,2.081-1.713,2.081-3.06c0-1.285-0.551-2.265-1.652-2.999
		c-1.102-0.673-5.263-1.836-12.424-3.488c-5.141-1.224-8.812-2.815-10.894-4.712c-2.081-1.836-3.182-4.529-3.182-8.017
		c0-4.101,1.652-7.65,4.957-10.588c3.305-2.938,7.956-4.406,13.893-4.406c5.691,0,10.282,1.102,13.893,3.305
		c3.549,2.204,5.63,6.059,6.181,11.506h-11.934c-0.184-1.469-0.612-2.693-1.285-3.55c-1.285-1.591-3.55-2.387-6.671-2.387
		c-2.57,0-4.406,0.367-5.508,1.163c-1.102,0.795-1.652,1.713-1.652,2.754c0,1.346,0.612,2.326,1.775,2.876
		c1.163,0.612,5.263,1.713,12.362,3.244c4.712,1.102,8.262,2.754,10.649,4.957c2.326,2.203,3.488,5.019,3.488,8.323
		c0,4.406-1.652,8.018-5.018,10.771c-3.366,2.754-8.507,4.161-15.545,4.161c-7.161,0-12.424-1.469-15.79-4.406
		c-3.427-2.938-5.08-6.732-5.08-11.261h11.934V393.001z"/>
	<path fill="#010101" d="M263.099,385.596c-0.734,0.489-1.53,0.856-2.325,1.102c-0.796,0.306-1.836,0.551-3.183,0.795l-2.693,0.49
		c-2.509,0.428-4.345,0.979-5.447,1.591c-1.897,1.04-2.815,2.692-2.815,4.957c0,1.958,0.551,3.427,1.713,4.284
		c1.163,0.856,2.509,1.346,4.162,1.346c2.57,0,4.957-0.734,7.16-2.203c2.204-1.469,3.305-4.161,3.427-8.017V385.596z
		 M255.816,380.149c2.203-0.245,3.794-0.612,4.712-1.041c1.714-0.734,2.57-1.836,2.57-3.305c0-1.836-0.673-3.06-1.958-3.794
		c-1.286-0.673-3.244-1.041-5.753-1.041c-2.815,0-4.835,0.673-6.059,2.02c-0.856,0.979-1.407,2.387-1.713,4.101h-11.383
		c0.245-3.917,1.347-7.099,3.366-9.608c3.121-3.917,8.568-5.875,16.218-5.875c4.958,0,9.425,0.979,13.28,2.876
		c3.856,1.958,5.814,5.569,5.814,10.955v20.38c0,1.407,0.062,3.121,0.062,5.141c0.061,1.53,0.306,2.57,0.734,3.121
		c0.367,0.551,0.979,0.979,1.775,1.347v1.714h-12.914c-0.367-0.918-0.612-1.714-0.734-2.51c-0.122-0.795-0.245-1.652-0.306-2.692
		c-1.652,1.714-3.55,3.243-5.692,4.468c-2.57,1.407-5.447,2.142-8.69,2.142c-4.1,0-7.527-1.163-10.22-3.427
		c-2.693-2.326-4.039-5.569-4.039-9.792c0-5.447,2.142-9.425,6.487-11.873c2.387-1.347,5.875-2.265,10.465-2.876L255.816,380.149z"
		/>
</g>
<rect x="285.498" y="347.101" fill="#010101" width="11.873" height="60.098"/>
<g>
	<path fill="#010101" d="M334.152,385.596c-0.734,0.489-1.53,0.856-2.326,1.102c-0.795,0.306-1.836,0.551-3.183,0.795l-2.692,0.49
		c-2.509,0.428-4.345,0.979-5.447,1.591c-1.896,1.04-2.814,2.692-2.814,4.957c0,1.958,0.551,3.427,1.713,4.284
		c1.163,0.856,2.51,1.346,4.162,1.346c2.57,0,4.957-0.734,7.16-2.203s3.305-4.161,3.428-8.017V385.596L334.152,385.596z
		 M326.869,380.149c2.203-0.245,3.795-0.612,4.713-1.041c1.713-0.734,2.57-1.836,2.57-3.305c0-1.836-0.674-3.06-1.959-3.794
		c-1.285-0.673-3.243-1.041-5.753-1.041c-2.814,0-4.835,0.673-6.059,2.02c-0.856,0.979-1.407,2.387-1.652,4.101h-11.444
		c0.245-3.917,1.347-7.099,3.366-9.608c3.121-3.917,8.567-5.875,16.218-5.875c4.957,0,9.425,0.979,13.28,2.876
		c3.855,1.958,5.814,5.569,5.814,10.955v20.38c0,1.407,0,3.121,0.061,5.141c0.062,1.53,0.307,2.57,0.734,3.121
		c0.367,0.551,0.979,0.979,1.775,1.347v1.714h-12.913c-0.367-0.918-0.612-1.714-0.734-2.51c-0.123-0.795-0.245-1.652-0.307-2.692
		c-1.652,1.714-3.549,3.243-5.691,4.468c-2.57,1.407-5.446,2.142-8.69,2.142c-4.101,0-7.527-1.163-10.221-3.427
		c-2.692-2.326-4.039-5.569-4.039-9.792c0-5.447,2.142-9.425,6.487-11.873c2.387-1.347,5.875-2.265,10.466-2.876L326.869,380.149z"
		/>
	<path fill="#010101" d="M381.521,361.728c0.123,0,0.49,0.061,1.041,0.061v11.934c-0.734-0.061-1.408-0.123-2.02-0.184
		c-0.551,0-1.041-0.061-1.408-0.061c-4.773,0-7.956,1.53-9.608,4.59c-0.918,1.714-1.346,4.345-1.346,7.895v21.236h-11.996v-44.431
		h11.322v7.772c1.836-2.938,3.428-5.019,4.773-6.059c2.203-1.836,5.08-2.754,8.63-2.754
		C381.153,361.667,381.337,361.667,381.521,361.728"/>
</g>
<path fill="#010101" d="M117.32,362.218v22.154H94.676L117.32,362.218z M117.32,347.285l-61.2,60.038h15.239l12.485-12.24h33.538
	v12.24h11.261v-60.038H117.32z"/>
<polygon fill="#F15A25" points="128.643,316.93 128.643,322.866 153.551,347.285 159.548,347.285 "/>
<polygon fill="#F15A25" points="128.643,333.515 142.718,347.285 148.288,347.285 128.643,328.007 "/>
<polygon fill="#F15A25" points="128.643,347.285 137.394,347.285 128.643,338.717 "/>
<g>
	<path d="M158.202,431.312h2.509l6.12,15.545l6.12-15.545h2.509v17.687h-1.714v-15.3h-0.061l-6.059,15.3h-1.591l-6.059-15.3h-0.061
		v15.3h-1.713V431.312L158.202,431.312z"/>
	<path d="M190.026,442.635c0,3.672-2.142,6.793-6.059,6.793c-3.917,0-6.059-3.121-6.059-6.793s2.142-6.794,6.059-6.794
		C187.884,435.841,190.026,438.963,190.026,442.635z M179.5,442.635c0,2.692,1.53,5.446,4.468,5.446
		c2.999,0,4.467-2.754,4.467-5.446c0-2.693-1.53-5.447-4.467-5.447S179.5,439.941,179.5,442.635z"/>
	<path d="M192.352,431.312h1.591v7.344h0.061c0.673-1.836,2.57-2.815,4.406-2.815c3.917,0,5.753,3.122,5.753,6.794
		s-1.836,6.793-5.753,6.793c-2.081,0-3.855-1.041-4.59-2.815h-0.061v2.448h-1.408V431.312L192.352,431.312z M198.41,437.188
		c-3.305,0-4.467,2.815-4.467,5.447c0,2.631,1.163,5.446,4.467,5.446c2.999,0,4.162-2.815,4.162-5.446
		C202.633,440.003,201.409,437.188,198.41,437.188z"/>
	<path d="M206.611,431.312h1.591v2.509h-1.591V431.312z M206.611,436.27h1.591v12.791h-1.591V436.27z"/>
	<path d="M211.201,431.312h1.591v17.687h-1.591V431.312z"/>
	<path d="M216.709,443.062c0,2.265,1.224,5.019,4.223,5.019c2.264,0,3.549-1.285,4.039-3.243h1.591
		c-0.673,2.876-2.326,4.59-5.569,4.59c-4.039,0-5.753-3.121-5.753-6.793c0-3.366,1.714-6.794,5.753-6.794
		c4.101,0,5.753,3.611,5.63,7.161h-9.915V443.062z M224.971,441.777c-0.061-2.325-1.591-4.59-4.039-4.59
		c-2.57,0-3.917,2.203-4.223,4.59H224.971z"/>
	<path d="M235.804,431.312h2.509l6.12,15.545l6.12-15.545h2.509v17.687h-1.713v-15.3h-0.062l-6.059,15.3h-1.652l-6.059-15.3h-0.061
		v15.3h-1.714v-17.687H235.804z"/>
	<path d="M257.101,443.062c0,2.265,1.224,5.019,4.223,5.019c2.264,0,3.549-1.285,4.039-3.243h1.591
		c-0.673,2.876-2.326,4.59-5.569,4.59c-4.039,0-5.753-3.121-5.753-6.793c0-3.366,1.714-6.794,5.753-6.794
		c4.1,0,5.753,3.611,5.63,7.161h-9.915V443.062z M265.363,441.777c-0.062-2.325-1.591-4.59-4.039-4.59
		c-2.571,0-3.917,2.203-4.223,4.59H265.363z"/>
	<path d="M268.913,440.187c0.184-2.999,2.204-4.284,5.202-4.284c2.265,0,4.712,0.673,4.712,4.101v6.793
		c0,0.612,0.306,0.918,0.918,0.918c0.184,0,0.306,0,0.49-0.122v1.285c-0.367,0.061-0.612,0.122-1.041,0.122
		c-1.591,0-1.836-0.918-1.836-2.203h-0.061c-1.102,1.652-2.204,2.632-4.651,2.632c-2.387,0-4.284-1.163-4.284-3.733
		c0-3.55,3.489-3.733,6.854-4.101c1.285-0.122,2.02-0.367,2.02-1.713c0-2.081-1.469-2.632-3.366-2.632
		c-1.958,0-3.366,0.918-3.427,2.999h-1.53V440.187z M277.236,442.022L277.236,442.022c-0.245,0.367-0.918,0.489-1.346,0.551
		c-2.632,0.489-5.937,0.489-5.937,2.938c0,1.591,1.347,2.509,2.876,2.509c2.387,0,4.468-1.529,4.468-4.039v-1.958H277.236z"/>
	<path d="M289.599,440.003c-0.062-1.959-1.591-2.815-3.366-2.815c-1.408,0-2.999,0.551-2.999,2.203c0,1.347,1.591,1.897,2.632,2.143
		l2.081,0.489c1.775,0.245,3.672,1.285,3.672,3.55c0,2.754-2.754,3.855-5.141,3.855c-2.999,0-4.957-1.347-5.263-4.529h1.591
		c0.123,2.081,1.713,3.183,3.794,3.183c1.469,0,3.488-0.673,3.488-2.448c0-1.469-1.407-1.958-2.815-2.325l-2.02-0.429
		c-2.02-0.551-3.55-1.285-3.55-3.427c0-2.632,2.57-3.611,4.835-3.611c2.57,0,4.59,1.347,4.712,4.101h-1.652V440.003z"/>
	<path d="M304.225,449.061h-1.408v-2.326h-0.061c-0.795,1.714-2.509,2.693-4.406,2.693c-3.244,0-4.468-1.836-4.468-4.835v-8.323
		h1.591v8.323c0.061,2.325,0.918,3.55,3.427,3.55c2.693,0,3.855-2.51,3.855-5.141v-6.732h1.591v12.791H304.225z"/>
	<path d="M307.163,436.27h1.407v2.999h0.062c0.795-2.081,2.509-3.244,4.835-3.183v1.591c-2.815-0.122-4.774,1.897-4.774,4.591v6.793
		h-1.591V436.27H307.163z"/>
	<path d="M315.425,443.062c0,2.265,1.224,5.019,4.223,5.019c2.265,0,3.55-1.285,4.039-3.243h1.592
		c-0.674,2.876-2.326,4.59-5.569,4.59c-4.039,0-5.753-3.121-5.753-6.793c0-3.366,1.714-6.794,5.753-6.794
		c4.101,0,5.753,3.611,5.63,7.161h-9.914V443.062z M323.748,441.777c-0.062-2.325-1.591-4.59-4.039-4.59
		c-2.57,0-3.917,2.203-4.223,4.59H323.748z"/>
	<path d="M327.42,436.27h1.407v2.142h0.062c0.796-1.591,2.143-2.509,4.162-2.509c1.713,0,3.182,0.796,3.672,2.509
		c0.795-1.713,2.387-2.509,4.039-2.509c2.815,0,4.223,1.469,4.223,4.468v8.69h-1.591v-8.629c0-2.081-0.796-3.244-2.999-3.244
		c-2.693,0-3.488,2.203-3.488,4.59v7.222h-1.592v-8.69c0-1.713-0.673-3.183-2.692-3.183c-2.693,0-3.795,2.021-3.795,4.713v7.16
		h-1.407V436.27z"/>
	<path d="M348.963,443.062c0,2.265,1.224,5.019,4.223,5.019c2.264,0,3.549-1.285,4.039-3.243h1.591
		c-0.673,2.876-2.325,4.59-5.569,4.59c-4.039,0-5.753-3.121-5.753-6.793c0-3.366,1.714-6.794,5.753-6.794
		c4.101,0,5.753,3.611,5.631,7.161h-9.914V443.062z M357.225,441.777c-0.062-2.325-1.592-4.59-4.039-4.59
		c-2.57,0-3.917,2.203-4.223,4.59H357.225z"/>
	<path d="M360.896,436.27h1.591v2.203h0.062c0.612-1.53,2.265-2.57,4.101-2.57c3.61,0,4.712,1.897,4.712,4.957v8.201h-1.591v-7.956
		c0-2.203-0.734-3.855-3.244-3.855c-2.509,0-3.916,1.896-4.039,4.406v7.466h-1.591V436.27L360.896,436.27z"/>
	<path d="M376.686,436.27h2.632v1.285h-2.632v8.629c0,1.041,0.123,1.592,1.285,1.714c0.429,0,0.919,0,1.347-0.062v1.347
		c-0.489,0-0.918,0.062-1.407,0.062c-2.081,0-2.815-0.674-2.754-2.877v-8.751h-2.203v-1.285h2.203v-3.855h1.591v3.794H376.686z"/>
	<path d="M398.534,446.734c-1.285,1.592-3.121,2.693-5.202,2.693c-3.06,0-5.324-1.775-5.324-4.957c0-2.51,2.326-4.162,4.346-5.264
		c-0.979-1.224-2.203-2.57-2.203-4.284c0-2.142,1.774-3.61,3.916-3.61c2.143,0,3.917,1.407,3.917,3.61s-1.714,3.489-3.488,4.591
		l3.855,4.65c0.429-0.856,0.551-1.591,0.551-2.998h1.592c0,0.979-0.245,2.754-1.041,4.223l2.999,3.61h-1.958L398.534,446.734z
		 M393.148,440.187c-1.713,0.918-3.61,2.265-3.61,4.406c0,2.081,1.836,3.488,3.855,3.488c1.774,0,3.183-1.102,4.161-2.509
		L393.148,440.187z M391.68,434.923c0,1.225,1.163,2.632,1.959,3.55c1.224-0.796,2.754-1.836,2.754-3.55
		c0-1.469-1.041-2.264-2.326-2.264C392.721,432.659,391.68,433.454,391.68,434.923z"/>
	<path d="M410.958,431.312h1.714v17.687h-1.714V431.312z"/>
	<path d="M415.977,436.27h1.591v2.203h0.062c0.612-1.53,2.265-2.57,4.101-2.57c3.61,0,4.712,1.897,4.712,4.957v8.201h-1.591v-7.956
		c0-2.203-0.734-3.855-3.244-3.855c-2.509,0-3.916,1.896-4.039,4.406v7.466h-1.591V436.27L415.977,436.27z"/>
	<path d="M431.827,436.27h2.632v1.285h-2.632v8.629c0,1.041,0.122,1.592,1.285,1.714c0.429,0,0.918,0,1.347-0.062v1.347
		c-0.49,0-0.918,0.062-1.408,0.062c-2.08,0-2.814-0.674-2.754-2.877v-8.751h-2.203v-1.285h2.203v-3.855h1.592v3.794H431.827z"/>
	<path d="M437.58,443.062c0,2.265,1.224,5.019,4.223,5.019c2.265,0,3.55-1.285,4.039-3.243h1.592
		c-0.674,2.876-2.326,4.59-5.569,4.59c-4.039,0-5.753-3.121-5.753-6.793c0-3.366,1.714-6.794,5.753-6.794
		c4.101,0,5.753,3.611,5.63,7.161h-9.914V443.062z M445.842,441.777c-0.061-2.325-1.591-4.59-4.039-4.59
		c-2.57,0-3.917,2.203-4.223,4.59H445.842z"/>
	<path d="M449.575,431.312h1.591v17.687h-1.591V431.312z"/>
	<path d="M454.165,431.312h1.591v17.687h-1.591V431.312z"/>
	<path d="M458.755,431.312h1.592v2.509h-1.592V431.312z M458.755,436.27h1.592v12.791h-1.592V436.27z"/>
	<path d="M474.116,448.02c0,3.856-1.53,6.12-5.691,6.12c-2.57,0-5.079-1.162-5.324-3.855h1.591c0.307,1.897,2.02,2.57,3.733,2.57
		c2.876,0,4.101-1.713,4.101-4.835v-1.713h-0.062c-0.734,1.591-2.203,2.631-4.039,2.631c-4.101,0-5.753-2.876-5.753-6.548
		c0-3.55,2.081-6.426,5.753-6.426c1.897,0,3.427,1.162,4.039,2.57h0.062v-2.203h1.591V448.02L474.116,448.02z M472.525,442.512
		c0-2.509-1.163-5.324-4.101-5.324c-2.999,0-4.223,2.632-4.223,5.324c0,2.57,1.285,5.08,4.223,5.08
		C471.117,447.592,472.525,445.082,472.525,442.512z"/>
	<path d="M477.972,443.062c0,2.265,1.225,5.019,4.223,5.019c2.265,0,3.55-1.285,4.04-3.243h1.591
		c-0.673,2.876-2.325,4.59-5.569,4.59c-4.039,0-5.753-3.121-5.753-6.793c0-3.366,1.714-6.794,5.753-6.794
		c4.101,0,5.753,3.611,5.631,7.161h-9.915V443.062z M486.295,441.777c-0.061-2.325-1.591-4.59-4.039-4.59
		c-2.57,0-3.917,2.203-4.223,4.59H486.295z"/>
	<path d="M489.906,436.27h1.591v2.203h0.062c0.611-1.53,2.264-2.57,4.101-2.57c3.61,0,4.712,1.897,4.712,4.957v8.201h-1.591v-7.956
		c0-2.203-0.734-3.855-3.244-3.855c-2.509,0-3.917,1.896-4.039,4.406v7.466h-1.591V436.27L489.906,436.27z"/>
	<path d="M512.305,440.248c-0.428-1.897-1.591-3.061-3.61-3.061c-2.999,0-4.468,2.754-4.468,5.447c0,2.692,1.53,5.446,4.468,5.446
		c1.897,0,3.55-1.53,3.733-3.672h1.591c-0.429,3.121-2.387,4.957-5.263,4.957c-3.917,0-6.06-3.121-6.06-6.793
		s2.143-6.793,6.06-6.793c2.754,0,4.834,1.407,5.201,4.406h-1.652V440.248z"/>
	<path d="M517.018,443.062c0,2.265,1.224,5.019,4.223,5.019c2.265,0,3.55-1.285,4.039-3.243h1.592
		c-0.674,2.876-2.326,4.59-5.569,4.59c-4.039,0-5.753-3.121-5.753-6.793c0-3.366,1.714-6.794,5.753-6.794
		c4.101,0,5.753,3.611,5.63,7.161h-9.914V443.062z M525.341,441.777c-0.062-2.325-1.591-4.59-4.039-4.59
		c-2.57,0-3.917,2.203-4.223,4.59H525.341z"/>
</g>
</svg>
