<?xml version="1.0" encoding="utf-8"?>
<!-- Generator: Adobe Illustrator 18.1.1, SVG Export Plug-In . SVG Version: 6.00 Build 0)  -->
<!DOCTYPE svg PUBLIC "-//W3C//DTD SVG 1.1//EN" "http://www.w3.org/Graphics/SVG/1.1/DTD/svg11.dtd">
<svg version="1.1" id="Layer_1" xmlns="http://www.w3.org/2000/svg" xmlns:xlink="http://www.w3.org/1999/xlink" x="0px" y="0px"
	 viewBox="0 44.4 60.2 14.3" enable-background="new 0 44.4 60.2 14.3" xml:space="preserve">
<g>
	<g>
		<path fill="#0F9F38" d="M1.6,55.6c0,1.2,1,1.7,2.1,1.7c0.8,0,1.4-0.1,1.9-0.3l0.2,1.2c-0.6,0.2-1.4,0.4-2.3,0.4
			c-2.2,0-3.5-1.4-3.5-3.4c0-1.9,1.1-3.6,3.3-3.6s2.9,1.8,2.9,3.3c0,0.3,0,0.6-0.1,0.7H1.6z M4.6,54.4c0-0.6-0.3-1.6-1.4-1.6
			c-1,0-1.5,1-1.6,1.6H4.6z"/>
	</g>
	<g>
		<path fill="#0F9F38" d="M14.6,54.8c-0.1-1.2-0.1-2.6-0.1-3.9l0,0c-0.3,1.1-0.7,2.4-1.1,3.6l-1.4,4h-1.3l-1.2-4
			c-0.4-1.2-0.7-2.5-0.9-3.6l0,0c0,1.2-0.1,2.7-0.2,4l-0.2,3.7H6.5l0.6-9.3h2.2l1.2,3.7c0.3,1.1,0.6,2.2,0.9,3.2l0,0
			c0.2-1,0.6-2.1,0.9-3.2l1.3-3.7h2.2l0.5,9.3h-1.7L14.6,54.8z"/>
	</g>
	<g>
		<path fill="#0F9F38" d="M25.2,54.8c-0.1-1.2-0.1-2.6-0.1-3.9l0,0c-0.3,1.1-0.7,2.4-1.1,3.6l-1.4,4h-1.3l-1.2-4
			c-0.4-1.2-0.7-2.5-0.9-3.6l0,0c0,1.2-0.1,2.7-0.2,4l-0.2,3.7h-1.6l0.6-9.3H20l1.2,3.7c0.3,1.1,0.6,2.2,0.9,3.2l0,0
			c0.2-1,0.6-2.1,0.9-3.2l1.3-3.7h2.2l0.5,9.3h-1.7L25.2,54.8z"/>
	</g>
	<g>
		<path fill="#0F9F38" d="M33.1,57c0,0.6,0,1.2,0.1,1.6h-1.5l-0.1-0.7l0,0c-0.4,0.5-1.1,0.9-2,0.9c-1.4,0-2.1-1-2.1-2
			c0-1.7,1.5-2.5,4-2.5V54c0-0.4-0.2-1.2-1.4-1.2c-0.7,0-1.4,0.2-1.8,0.5L28,52.2c0.5-0.3,1.4-0.6,2.4-0.6c2.1,0,2.8,1.4,2.8,2.8
			L33.1,57L33.1,57z M31.5,55.2c-1.2,0-2.3,0.2-2.3,1.3c0,0.7,0.4,1,1,1c0.7,0,1.2-0.4,1.3-0.9c0-0.1,0.1-0.3,0.1-0.4v-1
			C31.6,55.2,31.5,55.2,31.5,55.2z"/>
	</g>
</g>
<g>
	<path fill="#0F9F38" d="M46,54c-0.2,0-0.4,0-0.5,0.1l0,0c-0.5,0.2-1,0.2-1.4,0.1c0.2,0.2,0.6,0.5,0.9,0.6c-0.2,0.1-0.4,0.1-0.6,0
		c0.1,0.1,0.2,0.3,0.6,0.4c0.1,0.5,0.5,0.9,1.1,0.9s1.1-0.5,1.1-1.1C47.1,54.5,46.6,54,46,54z"/>
</g>
<g>
	<path fill="#20A537" d="M51.8,54c0.2,0,0.4,0,0.5,0.1l0,0c0.5,0.2,1,0.2,1.4,0.1c-0.2,0.2-0.6,0.5-0.9,0.6c0.2,0.1,0.4,0.1,0.6,0
		c-0.1,0.1-0.2,0.3-0.6,0.4c-0.1,0.5-0.5,0.9-1.1,0.9s-1.1-0.5-1.1-1.1C50.6,54.5,51.1,54,51.8,54z"/>
</g>
<path fill="#0F9F38" d="M48.8,44.8c-6.2,0-11.2,4.8-11.2,10.8c0,1,0.1,2,0.4,2.9h4.5c-0.5-0.9-0.7-1.9-0.7-3c0-2.8,1.8-5.2,4.4-6.2
	c1.7,2,5.2,4.4,9.6,4.7c0.1,0.5,0.2,1,0.2,1.5c0,1.1-0.3,2.1-0.7,3h4.5c0.3-0.9,0.4-1.9,0.4-2.9C60,49.8,55,44.8,48.8,44.8z"/>
</svg>
