<svg version="1.1" id="Layer_1" xmlns="http://www.w3.org/2000/svg" xmlns:xlink="http://www.w3.org/1999/xlink" x="0px" y="0px"
	 viewBox="0 0 386.973 145.528" enable-background="new 0 0 386.973 145.528" xml:space="preserve">
<g>
	<path fill="#121820" d="M140.351,95.135c0,7.94-5.171,13.163-14.208,13.163c-10.237,0-14.208-5.642-14.208-13.477V71.942h7.521
		v23.141c0,4.7,2.09,7.104,6.687,7.104c4.283,0,6.634-2.246,6.634-7.104V71.942h7.574V95.135z"/>
	<path fill="#121820" d="M159.682,107.463V72.1c3.605-0.366,5.955-0.522,9.925-0.522c10.133,0,14.991,4.179,14.991,11.909
		c0,9.298-6.267,12.902-15.827,12.902h-1.566v11.074H159.682z M167.204,90.539h1.618c5.694,0.155,8.463-1.777,8.463-6.844
		c0-3.97-2.403-6.007-6.79-6.007c-1.409,0-2.09,0.052-3.291,0.209V90.539z"/>
	<path fill="#121820" d="M223.62,78.629c-3.187-0.784-5.798-1.306-8.984-1.306c-3.761,0-5.642,1.201-5.642,3.656
		c0,2.508,1.307,3.552,7.68,5.693c6.791,2.351,9.715,4.754,9.715,10.081c0,5.537-3.499,11.544-12.901,11.544
		c-5.223,0-9.298-0.992-13.007-2.246l1.515-6.268c3.395,1.148,6.426,2.193,10.395,2.193c3.97,0,6.111-1.775,6.111-4.91
		c0-2.508-2.662-3.604-8.462-5.536c-6.32-1.985-8.775-5.067-8.775-10.081c0-5.799,3.971-10.238,12.902-10.238
		c4.231,0,7.522,0.73,10.865,1.357L223.62,78.629z"/>
	<rect x="243.629" y="71.943" fill="#121820" width="7.68" height="35.519"/>
	<path fill="#121820" d="M296.39,79.621c-3.082-1.096-6.53-1.984-10.5-1.984c-6.111,0-9.454,3.395-9.454,11.073
		c0,8.671,2.873,13.216,8.827,13.216c2.247,0,4.335-0.313,6.321-0.993l-0.156-8.2h-7.679v-5.955h14.154l0.418,18.178h-0.052
		c-3.395,1.88-7.835,3.239-13.527,3.239c-10.865,0-15.671-7.209-15.671-19.484c0-11.491,6.529-17.394,16.767-17.394
		c4.754,0,9.246,1.253,12.171,2.402L296.39,79.621z"/>
	<polygon fill="#121820" points="345.285,107.462 337.711,107.462 337.711,92.627 325.278,92.627 325.278,107.462 317.705,107.462
		317.705,71.943 325.278,71.943 325.278,86.517 337.711,86.517 337.711,71.943 345.285,71.943 	"/>
	<polygon fill="#121820" points="386.973,71.942 386.973,78.263 377.987,78.263 377.987,107.462 370.466,107.462 370.466,78.263
		361.481,78.263 361.481,71.942 	"/>
	<g>
		<path fill="#F15E3D" d="M29.117,108.079h0.003c0.586,6.328,5.903,11.283,12.384,11.283c6.872,0,12.443-5.57,12.443-12.442V37.836
			H29.117v67.983c-0.032,0.363-0.056,0.729-0.056,1.101c0,0.371,0.024,0.738,0.056,1.1V108.079z"/>
		<path fill="#F15E3D" d="M89.233,32.499L71.159,0L52.397,32.499h5.785v70.362c0,13.498-6.361,20.48-16.602,20.48
			c-10.395,0-16.756-6.982-16.756-20.48V48.712H0v56.321c0,26.221,16.446,40.495,41.581,40.495
			c25.135,0,41.426-14.274,41.426-40.339v-72.69H89.233z"/>
	</g>
</g>
</svg>
