<?xml version="1.0" encoding="utf-8"?>
<!-- Generator: Adobe Illustrator 18.1.1, SVG Export Plug-In . SVG Version: 6.00 Build 0)  -->
<!DOCTYPE svg PUBLIC "-//W3C//DTD SVG 1.1//EN" "http://www.w3.org/Graphics/SVG/1.1/DTD/svg11.dtd">
<svg version="1.1" id="Calque_1" xmlns="http://www.w3.org/2000/svg" xmlns:xlink="http://www.w3.org/1999/xlink" x="0px" y="0px"
	 width="150px" height="150px" viewBox="241.7 323 150 150" enable-background="new 241.7 323 150 150" xml:space="preserve">
<g>
	<path fill="#383838" d="M298.6,349c5.7-2.5,11.8-3.9,18.1-3.9c6.7,0,13.1,1.5,19,4.3c1.2,0.5,1.6,2,1.1,3.2
		c-0.4,0.8-1.2,1.4-2.2,1.4c-0.3,0-0.7,0-1.1-0.3c-5.4-2.6-11-3.9-17-3.9c-5.6,0-11,1.2-16.1,3.5c-1.2,0.5-2.7,0-3.2-1.2
		C296.9,350.8,297.4,349.5,298.6,349z"/>
	<path fill="#383838" d="M295.1,357.7c6.5-4.4,13.8-6.7,21.6-6.7c8,0,15.8,2.6,22.4,7.2c1.1,0.8,1.4,2.3,0.5,3.4
		c-0.5,0.7-1.2,0.9-1.9,0.9c-0.5,0-0.9-0.1-1.4-0.4c-5.8-4.2-12.5-6.3-19.6-6.3c-6.8,0-13.3,2-18.9,5.9c-1.1,0.8-2.6,0.5-3.4-0.5
		C293.8,360,294.1,358.5,295.1,357.7z"/>
	<path fill="#383838" d="M316.7,379.6c-2.7,0-5.1,1.1-7,3.1c-0.9,0.9-2.4,1.1-3.4,0.1c-0.9-0.9-1.1-2.4-0.1-3.4
		c2.7-2.9,6.5-4.6,10.5-4.6c4,0,8,1.7,10.7,4.8c0.8,0.9,0.8,2.4-0.3,3.4c-0.4,0.4-1.1,0.5-1.6,0.5c-0.7,0-1.4-0.3-1.7-0.8
		C322.1,380.8,319.4,379.6,316.7,379.6z"/>
	<path fill="#383838" d="M321,402.6c-1.4,0.4-2.7,0.7-4.3,0.7c-1.5,0-2.9-0.3-4.3-0.7c-1.2-0.4-1.9-1.7-1.5-2.9s1.7-2,3.1-1.5
		c0.8,0.3,1.7,0.4,2.8,0.4c1.1,0,1.9-0.1,2.8-0.4c1.2-0.4,2.6,0.3,2.9,1.6C322.9,400.9,322.2,402.2,321,402.6z"/>
	<path fill="#383838" d="M316.7,404.5c4.3,0,8.3-1.7,11.3-4.8c0.9-0.9,2.4-1.1,3.4-0.1c0.9,0.9,1.1,2.4,0.1,3.4
		c-3.7,4-9.1,6.5-14.8,6.5s-11-2.4-14.8-6.5c-0.9-0.9-0.8-2.4,0.1-3.4c0.9-0.9,2.4-0.8,3.4,0.1C308.4,402.8,312.4,404.5,316.7,404.5
		z"/>
	<path fill="#383838" d="M330.7,380.4c-0.7,0-1.4-0.3-1.9-0.9c-2.9-3.7-7.4-5.8-12.1-5.8c-4.6,0-8.8,2-11.8,5.5
		c-0.8,1.1-2.4,1.1-3.4,0.3c-1.1-0.8-1.1-2.4-0.3-3.4c3.9-4.6,9.5-7.2,15.6-7.2c6.2,0,11.9,2.8,15.8,7.7c0.8,1.1,0.7,2.6-0.4,3.4
		C331.8,380.1,331.2,380.4,330.7,380.4z"/>
	<path fill="#383838" d="M332.8,374.9c-4-4.6-9.9-7.2-16.1-7.2c-3.1,0-5.9,0.7-8.7,1.9c-2.7,1.2-5.1,2.9-7,5.1
		c-0.9,0.9-2.4,1.1-3.4,0.1c-0.9-0.9-1.1-2.6-0.3-3.5c2.4-2.7,5.4-4.7,8.6-6.2c3.4-1.5,7-2.3,10.7-2.3c7.5,0,14.8,3.2,19.6,8.8
		c0.8,0.9,0.8,2.4-0.3,3.4c-0.4,0.4-1.1,0.5-1.6,0.5C333.9,375.7,333.4,375.4,332.8,374.9z"/>
	<path fill="#383838" d="M298.6,400.6c4,6.2,10.7,9.9,18.1,9.9s14.1-3.7,18.1-9.9c0.7-1.1,2.2-1.5,3.2-0.8c1.1,0.7,1.5,2.2,0.8,3.2
		c-4.8,7.5-13.1,12.1-22.1,12.1s-17.2-4.6-22.1-12.1c-0.7-1.1-0.4-2.6,0.8-3.2C296.5,399.2,298,399.5,298.6,400.6z"/>
	<path fill="#383838" d="M338.9,369.1c-0.5,0.5-1.1,0.8-1.7,0.8c-0.5,0-1.2-0.3-1.6-0.7c-5.1-4.8-11.8-7.5-18.8-7.5
		c-6.7,0-13.3,2.4-18.2,7c-0.9,0.8-2.4,0.8-3.4-0.1c-0.8-0.9-0.8-2.4,0.1-3.4c5.9-5.4,13.6-8.3,21.5-8.3c8.3,0,16.1,3.1,22,8.7
		C339.8,366.5,339.8,368.2,338.9,369.1z"/>
	<path fill="#383838" d="M289.2,400.6c1.2-0.5,2.7-0.1,3.2,1.1c2.3,4.4,5.6,8,9.9,10.7s9.3,4,14.4,4c5.1,0,10.1-1.4,14.4-4
		c4.2-2.7,7.7-6.3,9.9-10.7c0.5-1.2,2-1.6,3.2-1.1c1.2,0.5,1.6,2,1.1,3.2c-2.7,5.1-6.7,9.5-11.5,12.6c-5.1,3.2-11,4.8-16.9,4.8
		c-6,0-11.8-1.6-16.9-4.8c-5-3.1-9-7.4-11.5-12.6C287.6,402.8,288,401.3,289.2,400.6z"/>
	<path fill="#383838" d="M283.3,402.1c1.2-0.5,2.7,0,3.2,1.1c2.7,5.6,6.8,10.5,12.1,13.8c5.4,3.5,11.7,5.4,18.1,5.4
		c6.5,0,12.8-1.9,18.1-5.4c5.2-3.5,9.4-8.2,12.1-13.8c0.5-1.2,2-1.7,3.2-1.1c1.2,0.5,1.7,2,1.1,3.2c-2.9,6.5-7.8,11.9-13.8,15.8
		c-6,4-13.1,6.2-20.7,6.2c-7.5,0-14.5-2.2-20.7-6.2c-6-3.9-10.7-9.4-13.8-15.8C281.7,404,282.1,402.6,283.3,402.1z"/>
	<path fill="#383838" d="M278.1,404.9c1.2-0.5,2.7,0,3.2,1.1c3.2,6.6,8,12.2,14.2,16.1c6.3,4,13.7,6.2,21.2,6.2s14.9-2.2,21.2-6.2
		c6.2-4,11.1-9.5,14.2-16.1c0.5-1.2,2-1.6,3.2-1.1c1.2,0.5,1.6,2,1.1,3.2c-3.5,7.4-9.1,13.7-16,18.1c-7.1,4.6-15.3,7-23.8,7
		c-8.5,0-16.6-2.4-23.8-7c-7-4.4-12.3-10.7-16-18.1C276.5,406.9,276.9,405.5,278.1,404.9z"/>
	<path fill="#383838" d="M273.8,409.7c1.2-0.7,2.6-0.3,3.2,0.9c7.9,14.6,23.1,23.6,39.7,23.6s31.8-9.1,39.7-23.6
		c0.7-1.2,2.2-1.6,3.2-0.9c1.2,0.7,1.6,2.2,0.9,3.2c-8.9,16.1-25.6,26-43.9,26c-18.2,0-35.2-9.9-43.9-26
		C272.2,411.9,272.6,410.4,273.8,409.7z"/>
	<path fill="#383838" d="M362.6,430.5c-2.8,3.1-5.9,5.9-9.3,8.5c-2,1.6-5.5,3.9-10.2,6.2c-8.3,3.9-17.2,5.8-26.4,5.8
		s-18.1-2-26.4-5.9c-4.8-2.2-8.2-4.6-10.2-6.2c-3.5-2.6-6.6-5.4-9.4-8.6c-0.8-0.9-0.8-2.4,0.1-3.4c0.9-0.8,2.4-0.8,3.4,0.1
		c2.7,2.9,5.5,5.6,8.7,7.9l0,0l0,0c1.5,1.2,4.7,3.5,9.4,5.6c7.7,3.6,15.8,5.4,24.4,5.4s16.8-1.9,24.4-5.4c4.6-2.2,7.8-4.4,9.4-5.6
		l0,0l0,0c3.1-2.3,6-4.8,8.6-7.8c0.8-0.9,2.4-1.1,3.4-0.1C363.4,428.1,363.6,429.6,362.6,430.5z"/>
	<path fill="#383838" d="M363,420.5c-10.5,15.4-27.8,24.6-46.3,24.6s-35.8-9.1-46.3-24.6c-0.8-1.1-0.5-2.6,0.7-3.4
		c1.1-0.8,2.6-0.5,3.4,0.7c9.5,14.1,25.4,22.5,42.3,22.5c16.9,0,32.7-8.4,42.4-22.5c0.8-1.1,2.2-1.4,3.4-0.7
		C363.4,417.9,363.7,419.4,363,420.5z"/>
</g>
<path fill="#E21417" d="M372.7,361.2L372.7,361.2c-1,0-1.9-0.9-1.9-1.9v-19.6c0-1,0.9-1.9,1.9-1.9l0,0c1,0,1.9,0.9,1.9,1.9v19.6
	C374.6,360.4,373.7,361.2,372.7,361.2z"/>
<path fill="#E21417" d="M384.4,349.5L384.4,349.5c0,1-0.9,1.9-1.9,1.9h-19.6c-1,0-1.9-0.9-1.9-1.9l0,0c0-1,0.9-1.9,1.9-1.9h19.6
	C383.5,347.6,384.4,348.5,384.4,349.5z"/>
<g>
	<path fill="#E21417" d="M316.7,473c-41.4,0-75-33.6-75-75c0-41.4,33.6-75,75-75c12.3,0,24.5,3.1,35.3,8.8c0.5,0.3,0.7,0.9,0.4,1.3
		c-0.3,0.5-0.9,0.7-1.3,0.4c-10.5-5.6-22.4-8.6-34.4-8.6c-40.3,0-73,32.8-73,73s32.8,73,73,73s73-32.8,73-73c0-9.7-1.9-19.1-5.6-28
		c-0.2-0.5,0-1.1,0.5-1.3c0.5-0.2,1.1,0,1.3,0.5c3.8,9.1,5.7,18.8,5.7,28.8C391.7,439.4,358,473,316.7,473z"/>
</g>
<path fill="none" stroke="#E2161A" stroke-miterlimit="10" d="M385,369.6"/>
<path fill="none" stroke="#E2161A" stroke-miterlimit="10" d="M351.5,332.7"/>
</svg>
